<svg xmlns="http://www.w3.org/2000/svg" viewBox="0 0 635.02 689.94"><defs><style>.cls-1{fill:#3417c1;}</style></defs><title>Fichier 1</title><g id="Calque_2" data-name="Calque 2"><g id="Calque_1-2" data-name="Calque 1"><path class="cls-1" d="M635,247.38A183.24,183.24,0,0,0,634,228.1a143.88,143.88,0,0,0-7.72-33.48,137.22,137.22,0,0,0-56.52-69.79c-12.12-7.48-24.42-14.7-36.76-21.78s-24.83-14.48-37.42-21.4c-11.11-6.1-21.78-13-33.06-18.77h0a5.9,5.9,0,0,0-.8-.7C447.19,53.7,432.7,45.05,418,36.8s-28.63-17.52-44-24.43a128.08,128.08,0,0,0-41-11c-3-1.6-6.21-1-9.32-1.12-7.15-.27-14.35-.75-21.4,1.14L300,1.62a59.56,59.56,0,0,0-14.67,2.74,2.21,2.21,0,0,0,.78.07,2.21,2.21,0,0,1-.78-.07.76.76,0,0,0-.7.1,47.35,47.35,0,0,0-13.9,4.3l0,0c-4.12.36-7.51,2.65-11.13,4.27-12,5.34-23,12.43-34.22,19.2-2.37,0-3.91,1.83-5.71,2.93-4.68,2.86-9.87,4.93-14,8.66-2.51.15-3.51,3-5.94,3.3h0a40.06,40.06,0,0,0-10.86,6.37v0l-1,.5c-1.86.28-3.32,1.43-4.87,2.32q-30,17.25-59.86,34.58c-7.43,4.31-14.8,8.72-22.2,13.09l-1.3.71-.93.63a8.73,8.73,0,0,0-1.36.47c-11.73,6.86-23.57,13.53-35.12,20.67a116.23,116.23,0,0,0-21,16.78,137.45,137.45,0,0,0-15.24,18.31,138.85,138.85,0,0,0-19,37.81A170.25,170.25,0,0,0,.75,230c-1.89,15.08-.36,29.63,7.46,42.67,11.79,19.68,29.32,30.61,52.67,31,14.38.22,28.78,0,43.16.06a44.1,44.1,0,0,0,28.4-9.77c4.39-3.48,8.63-7.27,8-13.76q3.33-12.68,6.67-25.35a.7.7,0,0,0,.52-.9c.1-.69.21-1.38.31-2.07l-.07,0c1.09-.72,1.15-1.89,1.29-3l.33-1.32a6.27,6.27,0,0,0,1.38-2.92,245.92,245.92,0,0,1,12-28.52,276.08,276.08,0,0,1,26.56-43.44c2.21-1.76,5.42-2.74,5.09-6.5a.92.92,0,0,0,.19-.55c1.55-.14,2.15,1.12,3,2h0l-3.92,5.11c-.43.06-.73.24-.75.73-17.67,23.15-43.94,72.18-43.38,81,.11,0,.29-.06.33-.14a199,199,0,0,1,60.68-80.16c7.43-5.91,15.47-10.93,23.42-16.09A8,8,0,0,0,238,155.8l.71-.5.17.09.06-.21a10.44,10.44,0,0,0,4.89-2.68l2-1.21c1.3.29,2.36-.42,3.42-.94a208.8,208.8,0,0,1,38.8-14.3,258.23,258.23,0,0,1,80.35-7.58,199.6,199.6,0,0,1,25.62,2.87A245,245,0,0,1,418,137.26,203,203,0,0,1,460.28,155a170.62,170.62,0,0,1,44.86,36.91c.66.76,1.79,1.42.89,2.77s-1.61,3.18-2.77,4.43c-6.67,7.16-11.38,15.79-17.58,23.29-7.48,9.05-13.5,19.26-21.73,27.71a35.42,35.42,0,0,1-15.17,9.42c-5.2,1.6-10.39.77-15.58,1.07-8.91-1.38-16.15-6.36-23.31-11.25a93.57,93.57,0,0,0-51.63-16.61c-7.74-.19-15.54-.66-23.16,1.39a32.46,32.46,0,0,0-13.16,2.9h0c-5,1.1-10,2.44-14.12,5.71a.49.49,0,0,0-.49.18c-3.16.57-5.54,2.52-8,4.43-.75.53-1.5,1.06-2.26,1.58-1.94.58-3.18,2-4.37,3.53a43.19,43.19,0,0,0-11.52,11,21.79,21.79,0,0,0-4.44,5.27c-12.83,18.17-19.15,38.5-20.95,60.57a170.34,170.34,0,0,0,3.93,53.53,105.8,105.8,0,0,0,13,31.31c16.53,26.73,40.64,40.13,71.95,40.9a157.88,157.88,0,0,0,20-1.25c9.74-1,19.1-3.15,27.53-8.39,5.67-1.72,10-5.52,14.31-9.31l.44-.66,11.64-8h0c1.24-.69,3-.51,3.59-2.27l1.55,0a64,64,0,0,1,16.75-.84l.82.11a7.13,7.13,0,0,0,4.28,1.43c6.09,2.73,11.07,6.9,15.59,11.71,6.19,7.75,13.7,14.27,20.33,21.61,4.89,5.23,9.66,10.56,14.73,15.61,1.28,1.28,2.17,3.66,4.76,3.18l1-.1h0l-1,.1c-1.11,1.68,2,3.24.14,4.93l-.66.82h0a11.89,11.89,0,0,0-1.54,1.46,212.77,212.77,0,0,1-24.66,28.13L467,519.58l-.13.1a2.49,2.49,0,0,0-1.73,1.56l-1.25,1a100.79,100.79,0,0,0-10.95,7.6l-1,.68c0,2.13.13,4.12,3.3,3.17a.74.74,0,0,1,.08-.13.5.5,0,0,0-.05.13h0a.79.79,0,0,0-.06.22c-.07.62.25.28.47.21,2.13,3.17,4.46,1,6.79.12-2.44,1-4.88,3.26-7.32,0-3.06.47-3.19-1.56-3.18-3.72-11.71,6.61-23.61,12.78-36.4,17.13-22.33,7.59-45.34,10.92-68.83,11.52-38.28,1-75-5.28-109.09-23.57A192.92,192.92,0,0,1,200,509.36c-13.06-11.69-24-25.15-33.61-39.73-4-6.85-8-13.72-11.36-20.93-1.17-4.29-3.55-8-5.53-12a51.52,51.52,0,0,0,4.74,12.79,208.54,208.54,0,0,0,9.59,20.69c9,18.91,20.62,36.12,33.66,52.42-.11.66.06,1.11.84,1.09l5.83,6.9-.71,2.84,0,0v0l-1.36-.09h0c.24-1.64-.68-2.24-2.13-2.37-1.78-2.29-3.53-4.61-5.36-6.87A267.3,267.3,0,0,1,154.25,455c-2-4.94-4.23-9.79-5.79-14.85-2.41-7.84-4.33-15.82-6.46-23.74h0c-.74-3.31-1.5-6.6-2.22-9.91-.43-2-.45-4-2.11-5.65-8.8-8.95-19.21-14.27-31.92-14.36-14.62-.1-29.25,0-43.88,0a53.8,53.8,0,0,0-9.8.75C23.14,392.51,2.91,413.94.35,443.24c-1.52,17.4,2,34.4,7.69,50.8a133.59,133.59,0,0,0,19,36.2c10,13.46,21.62,25.24,35.87,34,16.52,10.21,33.38,19.88,50.25,29.51,4.18,2.38,8.1,5.33,12.76,6.83.36.83,1.16.87,1.88,1l.9.63h0a.54.54,0,0,0,.76.51c10,5.86,20,11.79,30.09,17.54,7.78,4.44,15.26,9.41,23.37,13.26a9.59,9.59,0,0,0,1.12.9q19.85,11.44,39.7,22.87c5.87,3.37,11.56,7.08,17.69,10a.53.53,0,0,0,.59.34c3.15-2.18,3.15-2.18,4.52,2.65a12.46,12.46,0,0,0,1.42,1.12,140.78,140.78,0,0,0,61.31,18.2c25.91,1.47,50.46-3.42,73.19-15.84,21.31-11.65,42.2-24.06,63.2-36.27,14.26-8.29,28.55-16.51,42.73-25,9.33-5.56,19-10.54,28.18-16.44,4.11-1.39,7.58-3.9,11.12-6.28a.53.53,0,0,0,.59-.3,18.2,18.2,0,0,0,5.93-3.41,12.2,12.2,0,0,0,6-3.57,6.24,6.24,0,0,0,3-1.26c4.22-2.55,8.38-5.22,12.73-7.54,10.28-5.46,20.18-11.5,29.06-19.05s17.08-15.62,23.08-25.72c.92-.69,2.22-1.13,1.77-2.72a2.28,2.28,0,0,0,1.21-1.67c3.81-3.36,5.73-7.92,7.81-12.38a.51.51,0,0,0,.32-.56h0a16.24,16.24,0,0,0,2.65-5.35l.18-.77c.76-1.08,1.66-2.09,1.58-3.54,2.44-4.06,3.68-8.58,5-13.07,2.65-8.86,5-17.77,5.24-27.09A68.36,68.36,0,0,0,635,448.53Q635,348,635,247.38ZM222.91,146.17c-.2-.09-.45-.28-.59-.23.14-.05.39.14.59.23Zm32.56-42.81-.29.28.29-.28.18.21Zm-16.16,23.9,0,0,0,0Zm-1.44,1.46-.06.05.06-.05h0Zm.73-.73,0,0,0,0,.31-.31Zm-3,2.24-.08.07Zm3.79-3.68a.94.94,0,0,1,.54-.49A.94.94,0,0,0,239.43,126.55ZM139.05,276c0,.15,0,.31,0,.46C139,276.31,139,276.15,139.05,276Zm1.43,4.18v0ZM183.76,632l.59-.44Zm20.38-96.23h0a.64.64,0,0,0-.2-.2A.64.64,0,0,1,204.14,535.74Zm.12.57a3.79,3.79,0,0,0,.28.73A3.79,3.79,0,0,1,204.26,536.31ZM532.44,584.5l-.62-.27.62.27ZM484.19,242.13h0c-.15-.65-.52-1.15-1.21-1.13C483.67,241,484,241.48,484.19,242.13Zm-15.32,8.41h0c-.09.21-.3.46-.24.6C468.57,251,468.78,250.75,468.87,250.54Zm-170,.65.58.26-.58-.26Zm-16.94,15.53c.14.06.17.38.25.58h0C282.1,267.1,282.07,266.78,281.93,266.72Zm.07,2.93a2,2,0,0,0-1,1.61A2,2,0,0,1,282,269.65ZM502.37,477.54c-.11,0-.21.1-.32.26C502.16,477.64,502.26,477.54,502.37,477.54ZM463.68,528.9c-.2-.08-.45-.28-.6-.23.15,0,.4.15.6.23Zm154.44-20.16a7,7,0,0,1-.57-1.5,7,7,0,0,0,.57,1.5,10.92,10.92,0,0,1,1,2.2A10.92,10.92,0,0,0,618.12,508.74Z"/><path class="cls-1" d="M99.67,104.71,101,104C100.42,104,99.83,104,99.67,104.71Z"/></g></g></svg>