<svg xmlns="http://www.w3.org/2000/svg" viewBox="0 0 203.77 221.4"><defs><style>.cls-1{fill:#7072b4;}</style></defs><title>Fichier 4</title><g id="Calque_2" data-name="Calque 2"><g id="Calque_1-2" data-name="Calque 1"><path class="cls-1" d="M203.76,79.38a58.11,58.11,0,0,0-.3-6.18A46.27,46.27,0,0,0,201,62.45a43.92,43.92,0,0,0-18.14-22.39q-5.84-3.6-11.79-7c-4-2.3-8-4.65-12-6.87-3.56-2-7-4.16-10.61-6h0a1.79,1.79,0,0,0-.25-.23c-4.68-2.72-9.33-5.49-14.05-8.14S124.94,6.19,120,4A41.22,41.22,0,0,0,106.85.44a6.49,6.49,0,0,0-3-.36A23,23,0,0,0,97,.45l-.71.07a19.3,19.3,0,0,0-4.71.88.69.69,0,0,0,.25,0,.69.69,0,0,1-.25,0,.24.24,0,0,0-.23,0,15.29,15.29,0,0,0-4.46,1.38h0a11.16,11.16,0,0,0-3.57,1.37,101.16,101.16,0,0,0-11,6.16c-.75,0-1.25.59-1.83.94A28.53,28.53,0,0,0,66,14.07c-.8,0-1.12,1-1.9,1.06h0a12.88,12.88,0,0,0-3.49,2h0l-.3.16a4.56,4.56,0,0,0-1.57.75q-9.61,5.54-19.21,11.09c-2.38,1.39-4.74,2.8-7.12,4.2L32,33.6l-.29.2a2.84,2.84,0,0,0-.44.15c-3.76,2.2-7.57,4.34-11.27,6.64A37.15,37.15,0,0,0,13.25,46a46.2,46.2,0,0,0-11,18,53.92,53.92,0,0,0-2,9.84c-.6,4.83-.11,9.5,2.39,13.69,3.79,6.31,9.41,9.82,16.91,9.93,4.61.07,9.23,0,13.85,0a14.18,14.18,0,0,0,9.11-3.13c1.41-1.12,2.77-2.34,2.58-4.42.71-2.71,1.43-5.42,2.14-8.13a.22.22,0,0,0,.16-.29c0-.22.07-.45.11-.67h0c.35-.23.37-.61.42-1l.1-.42a2.06,2.06,0,0,0,.45-.94,78.07,78.07,0,0,1,3.86-9.15,87.53,87.53,0,0,1,8.52-13.94c.71-.57,1.74-.88,1.63-2.09a.27.27,0,0,0,.06-.17c.5-.05.69.36,1,.64h0l-1.26,1.64c-.14,0-.23.08-.24.24-5.67,7.43-14.1,23.16-13.92,26,0,0,.09,0,.11,0A63.87,63.87,0,0,1,67.63,55.86c2.38-1.9,5-3.51,7.51-5.16A2.58,2.58,0,0,0,76.38,50l.23-.15,0,0,0-.06a3.42,3.42,0,0,0,1.57-.86l.64-.39a1.7,1.7,0,0,0,1.1-.3,66.67,66.67,0,0,1,12.45-4.59,82.68,82.68,0,0,1,25.79-2.44,66,66,0,0,1,8.22.93A77.46,77.46,0,0,1,134.13,44a66.08,66.08,0,0,1,13.57,5.7,54.7,54.7,0,0,1,14.39,11.84c.22.25.58.46.29.9a10.28,10.28,0,0,1-.89,1.42c-2.14,2.29-3.65,5.06-5.64,7.47-2.4,2.9-4.33,6.18-7,8.89a11.22,11.22,0,0,1-4.87,3c-1.67.52-3.33.25-5,.35-2.86-.44-5.18-2-7.48-3.61A29.94,29.94,0,0,0,115,74.69a26.12,26.12,0,0,0-7.43.44,10.26,10.26,0,0,0-4.22.94h0a10.7,10.7,0,0,0-4.53,1.83.17.17,0,0,0-.16.06,5.86,5.86,0,0,0-2.55,1.42l-.73.51A2.83,2.83,0,0,0,93.93,81a14,14,0,0,0-3.7,3.54,7.21,7.21,0,0,0-1.42,1.69,38.24,38.24,0,0,0-6.72,19.44,54.4,54.4,0,0,0,1.26,17.17,33.8,33.8,0,0,0,4.17,10c5.3,8.58,13,12.88,23.09,13.13a51.16,51.16,0,0,0,6.43-.41,20.09,20.09,0,0,0,8.83-2.69,12.63,12.63,0,0,0,4.59-3l.15-.21,3.73-2.57h0c.4-.22,1-.16,1.15-.72l.5,0a21,21,0,0,1,5.37-.27l.27,0a2.26,2.26,0,0,0,1.37.46,15.4,15.4,0,0,1,5,3.76c2,2.48,4.4,4.57,6.53,6.93,1.57,1.68,3.1,3.39,4.72,5,.42.41.7,1.18,1.53,1l.31,0h0l-.31,0c-.35.54.63,1,.05,1.58l-.21.26h0a3.63,3.63,0,0,0-.49.47,69.32,69.32,0,0,1-7.91,9l-2.34,2,0,0a.77.77,0,0,0-.56.5l-.4.31a31.53,31.53,0,0,0-3.52,2.44l-.31.22c0,.68,0,1.32,1.06,1a.05.05,0,0,1,0,0l0,0h0a.14.14,0,0,0,0,.07c0,.2.08.09.15.06.68,1,1.43.34,2.18,0-.79.32-1.57,1.05-2.35,0-1,.16-1-.5-1-1.19a69.92,69.92,0,0,1-11.68,5.5,74.07,74.07,0,0,1-22.09,3.69c-12.28.32-24.06-1.69-35-7.56a61.48,61.48,0,0,1-12.08-8.41A64.83,64.83,0,0,1,53.39,150.7c-1.29-2.2-2.56-4.4-3.64-6.72A21.13,21.13,0,0,0,48,140.15a16.35,16.35,0,0,0,1.53,4.1,66.56,66.56,0,0,0,3.07,6.64,86.81,86.81,0,0,0,10.8,16.82c0,.21,0,.36.27.35l1.87,2.22c-.07.3-.15.6-.22.91h0v0l-.44,0h0c.08-.52-.22-.72-.68-.76-.57-.73-1.13-1.48-1.72-2.2A85.66,85.66,0,0,1,49.5,146c-.64-1.58-1.36-3.14-1.86-4.77-.77-2.51-1.39-5.07-2.07-7.61h0c-.24-1.06-.49-2.12-.72-3.18a3.13,3.13,0,0,0-.67-1.82A14.1,14.1,0,0,0,33.93,124c-4.69,0-9.38,0-14.08,0a17.48,17.48,0,0,0-3.14.24C7.42,126,.93,132.83.11,142.23a39.43,39.43,0,0,0,2.47,16.3,42.38,42.38,0,0,0,6.11,11.62A41.74,41.74,0,0,0,20.2,181.08c5.3,3.27,10.71,6.38,16.12,9.46a21.85,21.85,0,0,0,4.1,2.2c.11.26.37.27.6.33l.29.21h0c0,.14.1.2.25.16,3.21,1.88,6.42,3.79,9.65,5.63,2.5,1.43,4.9,3,7.5,4.26.12.09.23.21.36.29L71.81,211c1.88,1.09,3.71,2.27,5.68,3.21a.16.16,0,0,0,.19.1c1-.69,1-.69,1.45.85a3,3,0,0,0,.45.36,45,45,0,0,0,19.67,5.84,42.84,42.84,0,0,0,23.49-5.08c6.84-3.74,13.54-7.72,20.28-11.64,4.58-2.66,9.16-5.29,13.71-8,3-1.79,6.11-3.39,9.05-5.28a15.24,15.24,0,0,0,3.56-2,.17.17,0,0,0,.19-.1,6,6,0,0,0,1.91-1.09,3.93,3.93,0,0,0,1.91-1.15,2,2,0,0,0,1-.4c1.36-.82,2.69-1.68,4.09-2.42a52.06,52.06,0,0,0,9.33-6.11,33.7,33.7,0,0,0,7.4-8.26c.3-.22.71-.36.57-.87a.75.75,0,0,0,.39-.54,11.23,11.23,0,0,0,2.5-4,.18.18,0,0,0,.11-.18h0a5.22,5.22,0,0,0,.85-1.72l.05-.24a1.76,1.76,0,0,0,.51-1.14,17.46,17.46,0,0,0,1.61-4.19,33.59,33.59,0,0,0,1.68-8.7,21.26,21.26,0,0,0,.38-4.29Q203.79,111.65,203.76,79.38ZM71.53,46.9c-.07,0-.14-.09-.19-.07s.12.05.19.07ZM82,33.17l-.1.09.1-.09.06.06Zm-5.19,7.67h0Zm-.46.47h0Zm.23-.24h0l.1-.1Zm-1,.72,0,0Zm1.22-1.18a.3.3,0,0,1,.17-.16A.3.3,0,0,0,76.83,40.61Zm-32.21,48s0,.1,0,.15S44.62,88.61,44.62,88.56Zm.46,1.35v0ZM59,202.79l.19-.14Zm6.54-30.87h0l-.07-.07Zm0,.18a1.55,1.55,0,0,0,.08.23A1.55,1.55,0,0,1,65.55,172.1Zm105.3,15.46-.19-.08.19.08ZM155.37,77.7h0c0-.21-.16-.37-.38-.36C155.21,77.33,155.33,77.49,155.37,77.7Zm-4.91,2.7h0c0,.06-.1.14-.08.19S150.43,80.46,150.46,80.4Zm-54.56.2.19.09-.19-.09Zm-5.43,5s0,.12.08.19h0C90.52,85.71,90.51,85.61,90.47,85.59Zm0,.94a.65.65,0,0,0-.31.52A.65.65,0,0,1,90.49,86.53Zm70.72,66.71s-.07,0-.11.08S161.17,153.24,161.21,153.24Zm-12.42,16.48c-.06,0-.14-.09-.19-.07s.13,0,.19.07Zm49.56-6.47a1.75,1.75,0,0,1-.18-.48,1.75,1.75,0,0,0,.18.48,3.69,3.69,0,0,1,.3.71A3.69,3.69,0,0,0,198.35,163.25Z"/><path class="cls-1" d="M32,33.6l.42-.23C32.22,33.38,32,33.36,32,33.6Z"/></g></g></svg>