<?xml version="1.0" encoding="utf-8"?>
<!-- Generator: Adobe Illustrator 24.0.0, SVG Export Plug-In . SVG Version: 6.00 Build 0)  -->
<svg version="1.1" id="Calque_1" xmlns="http://www.w3.org/2000/svg" xmlns:xlink="http://www.w3.org/1999/xlink" x="0px" y="0px"
	 viewBox="0 0 1000 1000" style="enable-background:new 0 0 1000 1000;" xml:space="preserve">
<style type="text/css">
	.st0{fill:#E7E6F4;}
	.st1{fill:url(#SVGID_1_);}
	.st2{fill:#FFFFFF;}
	.st3{fill:url(#SVGID_2_);}
	.st4{fill:url(#SVGID_3_);}
	.st5{fill:#5A783B;}
	.st6{fill:#FBBC3B;}
	.st7{fill:url(#SVGID_4_);}
	.st8{fill:url(#SVGID_5_);}
	.st9{fill:url(#SVGID_6_);}
	.st10{fill:#6163AA;}
	.st11{fill:url(#SVGID_7_);}
	.st12{fill:url(#SVGID_8_);}
	.st13{fill:#222B55;}
	.st14{fill:url(#SVGID_9_);}
	.st15{fill:url(#SVGID_10_);}
	.st16{fill:url(#SVGID_11_);}
	.st17{fill:url(#SVGID_12_);}
	.st18{fill:url(#SVGID_13_);}
	.st19{fill:none;stroke:#222B55;stroke-width:2;stroke-linecap:round;stroke-linejoin:round;stroke-miterlimit:10;}
	.st20{fill:url(#SVGID_14_);}
	.st21{fill:#F7B5A5;}
	.st22{fill:#E08D7F;}
	.st23{fill:#BB8036;}
	.st24{fill:#A06115;}
	.st25{fill:#86C4AF;}
	.st26{fill:url(#SVGID_15_);}
	.st27{fill:url(#SVGID_16_);}
	.st28{fill:none;stroke:#222B55;stroke-width:0.5;stroke-miterlimit:10;}
	.st29{fill:none;stroke:#222B55;stroke-width:0.5;stroke-miterlimit:10;stroke-dasharray:2.98,2.98;}
	.st30{fill:none;stroke:#222B55;stroke-width:0.5;stroke-miterlimit:10;stroke-dasharray:3.01,3.01;}
</style>
<rect class="st0" width="1000" height="1000"/>
<linearGradient id="SVGID_1_" gradientUnits="userSpaceOnUse" x1="355.0159" y1="294.1185" x2="355.0159" y2="575.5926" gradientTransform="matrix(1 0 0 -1 0 1002)">
	<stop  offset="0" style="stop-color:#FAFCFC"/>
	<stop  offset="1" style="stop-color:#A9D7C8"/>
</linearGradient>
<path class="st1" d="M268.65,534.21c20.35-28.46,8.64-31.86-4.6-42.26c-13.24-10.41-13.11-35.87,18.79-45.9S322,473.3,328.45,486.3
	c6.47,12.97,34.67-4.04,56.47,16.21c21.8,20.25,0.05,48.58-3.51,67.09c-3.57,18.51,13.24,30.07,39.24,34.16
	c26,4.09,23.89,20.44,16.54,37.88c-7.35,17.44-8.59,26.86,10.09,38.36c18.68,11.53-2.35,49.08-35.38,63.45
	c-33.03,14.36-84.02,10.11-107.86-18.51c-32.1-38.57,20.29-84.72-6.13-115.58C271.5,578.48,238.37,576.58,268.65,534.21z"/>
<path class="st2" d="M397.65,748.23c0.85-0.21,1.66-0.43,2.51-0.67c-2.62-20.01-6.98-40.77-12.68-61.68
	c-6.32-31.32,3.94-65,16.36-86.29c-0.74-0.27-1.43-0.54-2.14-0.83c-10.57,18.14-19.6,44.99-18.58,71.9
	c-8.64-28.67-19.66-57.38-32-84.63c-12.84-35.28,16.3-77.44,25.47-89.45c-0.69-0.35-1.35-0.67-2.03-0.99
	c-8.32,10.91-32.58,45.93-28.77,78.94c-23.54-49.57-51.26-93.35-77-121.84c-0.71,0.51-1.43,1.02-2.09,1.52
	c20.72,22.9,41.43,54.09,60.16,89.13c-14.9-14.52-36.67-20.01-50.26-22.07c-0.32,0.7-0.69,1.39-1.08,2.11
	c16.01,2.38,44.1,9.66,57.52,31.78c18.6,36.51,34.9,76.45,46.8,115.08c-8.32-11.05-22.7-22.18-42.96-33.17
	c-13.08-7.09-25.47-12.36-32.34-15.11c0.24,0.94,0.45,1.87,0.61,2.81c18.39,7.52,65.42,28.94,77.63,55.29
	c1.93,6.63,3.7,13.21,5.34,19.72c-19.21-34.64-66.35-56.47-82.76-63.24c-0.08,0.8-0.16,1.63-0.29,2.43
	c7.77,3.24,21.35,9.36,35.51,18.24c19.53,12.23,44.02,32.15,51.21,58.23C394.27,726.7,396.25,737.69,397.65,748.23z"/>
<linearGradient id="SVGID_2_" gradientUnits="userSpaceOnUse" x1="265.112" y1="265.902" x2="265.112" y2="547.3746" gradientTransform="matrix(1 0 0 -1 0 1002)">
	<stop  offset="0" style="stop-color:#FAFCFC"/>
	<stop  offset="1" style="stop-color:#A9D7C8"/>
</linearGradient>
<path class="st3" d="M305.54,635.96c7.13,12.97,11.12,27.1,12.82,40.53c0.74,6.77,1.14,13.27,0.87,19.53
	c-0.11,3.13-0.26,6.15-0.53,9.07c-0.32,2.94-0.69,5.78-1.11,8.48c-0.79,5.4-1.96,10.38-3.12,14.71c-1.14,4.33-2.38,8.11-3.54,11.21
	c-2.27,6.18-3.99,9.6-3.99,9.6s-3.28-2.17-8.38-5.99c-2.54-1.95-5.55-4.28-8.93-6.9c-3.36-2.65-6.95-5.67-10.89-8.88
	c-1.93-1.63-3.88-3.32-5.84-5.08c-2.01-1.74-4.04-3.56-6.05-5.43c-3.96-3.77-8.16-7.68-12-11.93c-7.95-8.37-15.3-17.63-21.09-28.19
	c-5.87-10.51-9.86-21.69-12.76-32.93c-1.56-5.54-2.67-11.21-3.78-16.59c-0.53-2.7-0.98-5.43-1.4-8.08c-0.48-2.62-0.87-5.19-1.24-7.7
	c-0.69-5.06-1.35-9.74-1.82-14.02c-0.42-4.28-0.82-8.11-1.16-11.32c-0.58-6.39-0.69-10.35-0.69-10.35s3.8,0.32,10.17,1.58
	c3.22,0.62,7.03,1.5,11.28,2.78c4.28,1.26,9.09,2.84,14.03,4.97c2.51,1.04,5.07,2.22,7.72,3.48c2.62,1.31,5.23,2.73,7.9,4.28
	c5.42,3.05,10.7,6.79,16.01,10.94C288.49,612.21,298.32,623.01,305.54,635.96z"/>
<path class="st2" d="M283.61,608.54l-1.64-1.53c-0.71,3.18-1.56,7.36-2.3,12.2c-0.79,4.87-1.56,10.43-1.98,16.29
	c-1,11.88-0.87,25.09,2.06,38.14c-5.52-11.37-11.68-22.41-18.26-33.17c-1.35-2.19-2.51-4.47-3.51-6.74
	c-1.06-2.25-1.93-4.57-2.67-6.9c-1.43-4.71-2.48-9.36-3.09-14.04c-0.58-4.68-0.9-9.23-0.98-13.54c-0.08-4.31,0.13-8.43,0.32-11.98
	c-0.61-0.29-1.24-0.56-1.85-0.83c-0.69,11.4-0.77,27.39,4.25,42.24c-12.31-18.8-26.37-36.41-41.64-52.86
	c-0.9-0.11-1.4-0.16-1.4-0.16s0.03,0.51,0.05,1.44c15.19,16.37,29.17,33.89,41.43,52.62c-11.71-10.43-26.74-14.18-37.34-15.06
	c0.11,0.62,0.21,1.23,0.29,1.84c3.38,0.29,7.08,0.94,11.02,1.93c3.94,0.99,8.11,2.35,12.13,4.33c4.04,1.95,8.11,4.36,11.71,7.52
	c1.82,1.55,3.57,3.24,5.23,5.08c1.61,1.87,3.09,3.93,4.44,6.1c6.55,10.7,12.68,21.72,18.18,33.04
	c-8.38-10.33-19.66-16.91-29.94-20.86c-5.23-1.95-10.2-3.29-14.61-4.17c-4.49-0.86-8.35-1.28-11.31-1.5l0.55,1.82
	c7.19,0.56,19.13,2.46,31.18,8.35c12.05,5.78,24.26,15.68,30.78,30.44c2.06,4.63,3.96,9.31,5.92,13.99
	c1.77,4.73,3.73,9.42,5.36,14.2c-9.04-13.96-22.86-22.68-34.56-27.47c-11.86-4.79-21.56-5.97-23.75-6.18l1.27,1.9
	c2.38,0.29,6.55,1.04,11.86,2.54c5.36,1.47,11.63,3.83,18.13,7.3c12.89,6.93,26.48,19.02,32,36.67c1.82,5.54,3.33,11.18,4.91,16.77
	c0.77,0.51,1.19,0.8,1.19,0.8s0.21-0.46,0.61-1.28c-1.59-5.64-3.09-11.29-4.94-16.85c-5.5-17.55-4.12-35.44-1.24-51.01
	c1.43-7.73,3.36-14.82,4.99-20.54c1.69-5.75,3.38-10.22,4.25-12.6l-1.11-2.57c-0.82,2.14-4.73,12.22-7.85,25.52
	c-3.2,13.4-5.89,29.85-4.02,46.38c-1.64-4.81-3.59-9.52-5.39-14.28c-1.96-4.68-3.88-9.42-5.95-14.04
	c-6.5-14.71-7.79-30.2-7.32-44.46C279.59,629.11,281.92,616.27,283.61,608.54z"/>
<linearGradient id="SVGID_3_" gradientUnits="userSpaceOnUse" x1="738.016" y1="294.1185" x2="738.016" y2="575.5926" gradientTransform="matrix(1 0 0 -1 0 1002)">
	<stop  offset="0" style="stop-color:#FAFCFC"/>
	<stop  offset="1" style="stop-color:#A9D7C8"/>
</linearGradient>
<path class="st4" d="M747.17,505.35c13.19-1.07,19.13-3.66,22.7-7.78c1.74-2.09,2.77-4.57,3.59-7.46c0.42-1.44,0.79-3,1.19-4.6
	c0.45-1.58,0.93-3.24,1.45-4.97c1.08-3.48,3.14-6.85,5.79-9.66c2.62-2.81,6.16-4.79,9.78-5.86c7.35-2.11,15.54,0.11,22.57,9.42
	c3.54,4.63,4.65,9.25,4.28,13.64c-0.19,2.19-0.74,4.33-1.59,6.42s-1.96,4.09-3.12,6.15c-2.38,4.06-5.47,7.84-8.35,11.23
	c-2.75,3.51-5.36,6.58-7,8.99c-3.36,4.76,0.34,10,4.02,16.48c3.78,6.55,7.48,14.31,6.02,25.04c-0.37,2.67-1.16,4.92-2.09,6.98
	c-0.9,2.09-2.06,3.88-3.46,5.46c-2.8,3.16-6.53,5.43-10.33,7.52c-3.86,2.03-8.11,3.69-12.13,5.38c-3.96,1.71-7.56,3.48-10.41,5.54
	c-11.55,8.27-9.01,24.61,2.69,38.92c5.84,7.19,7.11,12.65,5.13,17.28c-1.82,4.65-6.34,8.61-11.97,12.47
	c-10.75,7.7-15.22,13.99-7.8,28.25c1.72,3.53,1.9,7.2,0.29,10.81c-1.53,3.61-4.7,7.19-8.53,10.46c-7.85,6.5-19.9,12.09-32.26,12.44
	c-12.36,0.32-26.34-4.52-38.1-14.74c-11.63-10.11-20.45-25.71-21.96-44.14c-0.71-12.33,1.85-22.68,6.61-31.27
	c4.44-8.69,11.04-15.62,17.39-22.02c3.12-3.21,6.53-6.21,9.64-9.2c3.12-3.02,6.05-6.05,8.59-9.26c2.69-3.16,5.05-6.47,6.84-10.19
	c0.9-1.85,1.66-3.8,2.3-5.86c0.63-2.06,1.24-4.17,1.64-6.47c0.79-4.6,1.29-8.96,1.66-13.13c0.47-4.12,0.87-8.02,1.19-11.74
	c0.34-3.69,0.61-7.25,1.08-10.51c0.53-3.24,1.16-6.29,2.04-9.12c0.87-2.84,1.98-5.43,3.44-7.81c1.48-2.35,3.46-4.39,5.87-6.18
	C730.66,508.74,737.24,506.12,747.17,505.35z"/>
<path class="st2" d="M707.3,723.03l1.74,0.29c3.43-16.93,7.19-34.48,11.49-52.21c1.06-3.18,2.27-6.29,3.62-9.26
	c1.35-2.97,2.77-5.83,4.57-8.51c1.72-2.7,3.54-5.24,5.44-7.65c1.88-2.41,3.83-4.68,6-6.74c4.25-4.15,8.61-7.68,12.92-10.57
	c4.49-2.84,8.88-5.03,12.92-6.63c-0.24-0.51-0.47-1.02-0.71-1.53c-6.84,2.73-14.9,7.12-22.06,13.54
	c-7.48,6.31-14.16,14.66-19.34,24.48c6.39-24.34,14.4-48.71,23.49-72.04c1.69-3.53,3.73-6.77,6-9.71c2.4-2.86,5.13-5.38,7.93-7.62
	c5.52-4.52,12.05-7.57,18.18-9.71c3.09-1.07,6.05-1.93,8.98-2.51c2.96-0.59,5.76-0.99,8.32-1.26c5.13-0.53,9.3-0.53,11.89-0.45
	c-0.05-0.56-0.13-1.1-0.21-1.63c-4.68-0.13-14.53-0.05-25.63,2.97c-5.42,1.58-11.2,3.88-16.78,7.09
	c-5.34,3.34-10.54,7.62-14.8,12.97c8.67-21.27,18.26-41.43,27.9-59.78c9.62-18.38,19.21-34.93,27.24-49.43
	c-0.53-0.32-1.03-0.61-1.56-0.86c-6.39,11.8-13.87,24.29-21.11,38.01c-7.5,13.51-14.8,28.17-21.96,43.31
	c0.69-4.31,1.11-8.45,1.22-12.54c0.08-4.09-0.18-8.11-0.63-11.93c-0.79-7.57-2.25-14.34-3.67-19.42c-0.58,0.13-1.16,0.27-1.8,0.4
	c0.85,3,1.74,6.61,2.46,10.65c0.37,2.03,0.66,4.12,0.95,6.34c0.32,2.22,0.58,4.55,0.74,6.9c0.34,4.74,0.24,9.6-0.37,14.61
	c-0.5,5.06-1.58,10.16-3.62,15.22c-6.95,15.84-13.53,32.21-19.5,48.77c-5.76,16.64-10.83,33.41-15.35,49.91
	c-0.05-5.81-0.82-12.33-2.35-19.77c-0.63-3.66-1.43-7.57-2.43-11.72c-1.03-4.09-2.11-8.45-3.25-13.11
	c-1.45-5.94-3.12-11.61-4.47-16.5c-1.27-4.87-2.4-9.01-3.25-11.96c-0.4,0.8-0.82,1.58-1.27,2.35c2.11,7.92,6.21,22.18,9.78,36.89
	c1.85,7.41,3.28,14.87,4.47,22.1c0.53,3.58,0.85,7.09,0.92,10.46c0.21,3.4,0.16,6.63-0.21,9.68c-0.71,2.84-1.53,5.64-2.17,8.45
	c-0.64,2.81-1.27,5.62-1.9,8.4c0.16-4.23-0.32-8.51-0.5-12.76c-0.29-4.25-0.85-8.53-1.59-12.81c-0.77-4.28-1.35-8.48-2.25-12.65
	c-0.82-4.17-1.96-8.32-2.77-12.25c-0.9-3.96-1.85-7.78-2.85-11.45c-0.5-1.82-1-3.61-1.48-5.32c-0.45-1.71-0.87-3.34-1.27-4.95
	c-1.69-6.34-3.28-11.64-4.41-15.19c-0.45,0.54-0.93,1.1-1.4,1.66c2.14,6.77,5.5,18.67,8.96,32.34c0.55,2.35,1.11,4.81,1.69,7.36
	c0.64,2.57,1.24,5.22,1.8,7.92c0.55,2.7,1.06,5.46,1.51,8.27c0.42,2.78,1.03,5.67,1.4,8.53c0.82,5.75,1.14,11.56,1.4,17.39
	c0.16,5.81-0.42,11.58-1.19,17.31c-0.92,4.81-2.19,9.55-2.98,14.23C709.2,713.96,708.28,718.54,707.3,723.03z"/>
<path class="st5" d="M698.95,455.08c3.73-5.64,8.11-11.66,12.6-18.11c4.6-6.39,9.46-13.13,14.4-20.3c8.17-11.61,14.53-22.5,20-31.56
	c5.42-9.07,9.99-16.1,13.82-19.61c-3.83,3.51-11.36,7.2-20.21,13.45c-8.88,6.18-19.24,14.9-28.01,27.39
	c-5.31,7.65-9.57,15.51-12.95,23.14c-3.3,7.68-5.87,15.03-7.69,21.83c-2.77,9.95-4.25,18.48-5.71,24.9
	c-5.15,13.94-9.83,28.41-13.98,43.09c0.08-1.07,0.18-2.14,0.24-3.24c0.29-7.54-0.13-15.62-1.64-23.91
	c-2.56-13.59-8.27-24.56-13.69-32.69c-5.39-8.24-10.65-13.7-12.66-17.87c2.04,4.17,3.33,11.66,4.41,21.05
	c1.16,9.39,2.27,20.52,4.6,32.82c1.35,7.57,2.8,14.76,4.12,21.64c1.22,6.85,2.48,13.35,3.33,19.34c1.16,7.78,1.85,14.71,1.9,20.28
	c-2.93,13.19-5.5,26.35-7.66,39.35c0.16-1.95,0.29-4.01,0.34-6.21c0.19-5.03-0.13-10.57-1-16.48c-0.98-5.86-2.67-12.04-5.31-18.14
	c-4.44-9.95-11.23-17.04-17.25-21.96c-6-4.98-11.36-7.81-13.63-10.59c2.3,2.78,4.25,8.53,6.37,15.65
	c2.14,7.14,4.49,15.46,8.43,24.24c4.73,10.75,9.85,20.41,13.77,29.05c2.99,6.47,5.28,12.25,6.37,16.75
	c-1.19,7.89-2.25,15.67-3.15,23.32c-0.05,0.16-0.13,0.32-0.18,0.46c0.05-0.11,0.13-0.21,0.18-0.32
	c-2.54,21.43-3.99,41.73-4.39,59.89l2.51,0.05c0.42-19.55,2.09-41.57,5.02-64.79c2.75-3.56,6.63-7.65,11.25-11.98
	c3.49-3.37,7.53-6.79,11.63-10.49c4.17-3.64,8.56-7.44,13-11.56c7.29-6.63,13.05-13.43,18.13-19.15
	c5.02-5.75,9.38-10.16,12.76-11.77c-3.36,1.61-9.56,1.95-17.31,4.12c-7.72,2.09-17.1,5.97-25.42,13.56
	c-5.02,4.68-9.17,9.84-12.47,15.03c-3.25,5.24-5.79,10.41-7.61,15.27c-1.11,2.81-1.98,5.46-2.75,7.94
	c1.43-10.24,3.07-20.7,4.99-31.27c3.22-4.63,7.93-10.11,13.63-16.1c4.07-4.39,8.75-8.91,13.61-13.8c4.94-4.81,10.15-9.9,15.46-15.3
	c8.77-8.75,15.8-17.25,21.9-24.34c6.05-7.12,11.18-12.57,15.11-14.87c-3.94,2.3-11.26,3.88-20.19,7.57
	c-8.93,3.64-19.63,9.36-29.25,18.97c-5.81,5.91-10.67,12.25-14.64,18.54c-3.88,6.34-7.03,12.54-9.38,18.38
	c-1.93,4.6-3.41,8.86-4.7,12.68c4.15-21.53,9.3-43.33,15.54-64.55c2.85-4.04,7.45-8.91,13.11-14.07c3.67-3.45,7.9-6.93,12.23-10.65
	c4.41-3.67,9.06-7.49,13.82-11.58c7.82-6.61,14.11-13.32,19.71-18.91c5.52-5.64,10.33-9.9,13.93-11.37
	c-3.57,1.47-10.01,1.55-18.1,3.51c-8.06,1.87-17.94,5.54-26.9,13.11c-5.39,4.68-9.88,9.9-13.5,15.17
	c-3.36,5.06-6.05,10.06-8.06,14.82c3.12-9.42,6.47-18.64,10.04-27.63C693.85,462.79,696.28,459.04,698.95,455.08z"/>
<path class="st5" d="M667.5,446.63c2.51,11.02,5.63,21.13,7.72,30.07c2.14,8.88,3.3,16.48,2.59,21.02
	c0.69-4.52,3.94-11.42,6.24-20.94c1.19-4.73,2.01-10.08,2.3-15.89c0.21-5.81-0.24-12.04-1.66-18.35
	c-2.43-10.35-7.77-18.38-12.74-24.07c-4.94-5.81-9.64-9.36-11.39-12.38c1.74,3.05,2.61,8.88,3.33,16.05
	C664.68,429.3,665.36,437.64,667.5,446.63z"/>
<path class="st6" d="M550.87,478.68c-2.62-4.41-5.68-9.12-8.85-14.18c-3.22-5-6.66-10.3-10.12-15.89
	c-5.73-9.09-10.12-17.57-13.9-24.61c-3.75-7.06-6.95-12.57-9.7-15.35c2.75,2.78,8.3,5.89,14.77,10.94
	c6.47,5.03,13.95,12.01,20.11,21.77c3.7,5.99,6.63,12.09,8.9,18c2.19,5.94,3.86,11.58,4.97,16.8c1.72,7.62,2.51,14.12,3.36,19.02
	c3.36,10.73,6.34,21.83,8.9,33.12c-0.03-0.8-0.05-1.61-0.05-2.43c0.05-5.7,0.69-11.8,2.14-18c2.46-10.16,7.19-18.22,11.6-24.15
	c4.39-6.02,8.56-9.92,10.25-13c-1.69,3.08-2.96,8.67-4.15,15.73c-1.24,7.06-2.48,15.41-4.73,24.61c-1.32,5.67-2.67,11.05-3.94,16.18
	c-1.19,5.14-2.38,10-3.25,14.5c-1.19,5.83-1.96,11.05-2.22,15.25c1.72,10.08,3.14,20.12,4.28,30.01c-0.05-1.5-0.05-3.05-0.03-4.71
	c0.05-3.8,0.5-8,1.4-12.41c0.95-4.39,2.46-8.99,4.7-13.48c3.75-7.33,9.14-12.44,13.87-15.92c4.73-3.53,8.88-5.46,10.7-7.46
	c-1.85,2.01-3.54,6.26-5.39,11.58c-1.9,5.3-3.99,11.5-7.29,17.97c-3.96,7.94-8.24,15.03-11.52,21.4c-2.51,4.76-4.47,9.04-5.44,12.41
	c0.61,5.99,1.11,11.93,1.51,17.73c0.05,0.11,0.08,0.24,0.13,0.35c-0.03-0.08-0.08-0.16-0.13-0.27c1.11,16.29,1.43,31.67,1.03,45.42
	l-1.9-0.05c0.42-14.79,0-31.48-1.32-49.14c-1.93-2.78-4.73-6.05-8.06-9.5c-2.51-2.67-5.42-5.43-8.38-8.37
	c-3.01-2.92-6.18-5.96-9.38-9.23c-5.26-5.3-9.33-10.65-12.97-15.17c-3.57-4.52-6.71-8.05-9.2-9.39c2.46,1.34,7.16,1.85,12.92,3.8
	c5.76,1.87,12.68,5.19,18.68,11.24c3.62,3.72,6.55,7.78,8.85,11.85c2.25,4.09,3.96,8.08,5.18,11.85c0.71,2.17,1.3,4.2,1.77,6.13
	c-0.69-7.81-1.53-15.76-2.56-23.81c-2.27-3.61-5.6-7.94-9.7-12.71c-2.91-3.45-6.29-7.09-9.75-10.97c-3.54-3.85-7.29-7.86-11.1-12.17
	c-6.29-6.95-11.28-13.67-15.62-19.23c-4.28-5.62-7.95-9.92-10.86-11.82c2.88,1.9,8.35,3.37,14.96,6.5
	c6.61,3.08,14.48,7.84,21.38,15.46c4.17,4.68,7.61,9.68,10.36,14.58c2.69,4.95,4.84,9.76,6.39,14.23c1.27,3.53,2.25,6.82,3.07,9.76
	c-2.3-16.42-5.39-33.09-9.27-49.35c-2.01-3.18-5.28-7.01-9.38-11.13c-2.64-2.73-5.71-5.54-8.85-8.51c-3.2-2.94-6.58-5.99-9.99-9.31
	c-5.65-5.3-10.15-10.62-14.16-15.06c-3.96-4.47-7.42-7.89-10.09-9.12c2.64,1.26,7.5,1.55,13.55,3.34
	c6.02,1.71,13.34,4.89,19.82,10.97c3.91,3.74,7.08,7.86,9.62,11.98c2.35,3.96,4.17,7.84,5.52,11.5c-2.01-7.25-4.2-14.34-6.55-21.27
	C554.44,484.7,552.75,481.78,550.87,478.68z"/>
<path class="st6" d="M574.97,473.51c-2.33,8.24-5.05,15.73-6.98,22.42c-1.96,6.63-3.12,12.33-2.75,15.78
	c-0.34-3.45-2.54-8.77-3.91-16.05c-0.71-3.64-1.14-7.7-1.14-12.09c0.05-4.39,0.63-9.07,1.96-13.8c2.25-7.73,6.55-13.56,10.54-17.71
	c3.96-4.17,7.66-6.69,9.06-8.91c-1.43,2.22-2.33,6.61-3.12,11.98C577.77,460.54,576.93,466.83,574.97,473.51z"/>
<linearGradient id="SVGID_4_" gradientUnits="userSpaceOnUse" x1="319.0681" y1="263.751" x2="312.2134" y2="381.7296" gradientTransform="matrix(1 0 0 -1 0 1002)">
	<stop  offset="0" style="stop-color:#FAFCFC"/>
	<stop  offset="1" style="stop-color:#5A783B"/>
</linearGradient>
<path class="st7" d="M304.14,593.99c-3.43-3.56-7.37-7.28-11.47-11.26c-4.15-3.96-8.56-8.13-13.05-12.6
	c-7.42-7.22-13.42-14.15-18.58-19.9c-5.1-5.78-9.33-10.19-12.55-12.2c3.2,1.98,9.12,3.61,16.3,6.87c7.19,3.24,15.8,8.08,23.78,15.84
	c4.84,4.76,8.93,9.84,12.39,14.85c3.38,5.06,6.21,9.98,8.43,14.63c3.33,6.77,5.52,12.68,7.42,17.09
	c5.58,9.31,10.86,19.05,15.8,29.02c-0.21-0.75-0.4-1.5-0.61-2.27c-1.22-5.38-1.98-11.24-2.03-17.39
	c0.03-10.11,2.67-18.75,5.47-25.36c2.77-6.63,5.81-11.29,6.71-14.55c-0.9,3.29-0.82,8.83-0.37,15.7c0.42,6.9,1.11,15.03,1.08,24.21
	c0.03,5.62-0.03,10.99-0.05,16.1c0.05,5.08,0,9.92,0.21,14.34c0.18,5.75,0.63,10.81,1.35,14.82c3.86,9.07,7.48,18.16,10.75,27.2
	c-0.37-1.39-0.74-2.84-1.08-4.41c-0.79-3.58-1.32-7.62-1.48-11.96c-0.08-4.36,0.29-9.02,1.4-13.75c1.88-7.76,5.79-13.78,9.46-18.14
	c3.65-4.41,7.11-7.17,8.38-9.47c-1.27,2.33-1.93,6.72-2.48,12.12c-0.58,5.4-1.16,11.72-2.8,18.54c-1.96,8.37-4.36,16-6,22.74
	c-1.29,5.06-2.17,9.52-2.33,12.89c1.9,5.51,3.7,10.94,5.39,16.32c0.08,0.11,0.13,0.21,0.21,0.32c-0.05-0.08-0.11-0.13-0.16-0.21
	c4.68,15.03,8.45,29.4,11.15,42.4l-1.8,0.38c-2.91-13.96-7.06-29.56-12.26-45.82c-2.43-2.17-5.79-4.57-9.7-7.06
	c-2.96-1.92-6.32-3.85-9.75-5.94c-3.49-2.03-7.13-4.17-10.86-6.53c-6.13-3.77-11.15-7.86-15.56-11.26
	c-4.39-3.42-8.11-6.02-10.73-6.72c2.62,0.7,7.13,0.08,12.97,0.59c5.81,0.45,13.08,1.95,20.06,6.26c4.23,2.67,7.9,5.81,10.97,9.07
	c3.04,3.32,5.55,6.69,7.5,9.92c1.16,1.87,2.14,3.66,3.04,5.32c-2.38-7.17-4.97-14.45-7.77-21.75c-2.93-2.89-7.05-6.18-11.94-9.71
	c-3.51-2.59-7.48-5.22-11.63-8.05c-4.17-2.78-8.61-5.72-13.16-8.88c-7.48-5.08-13.66-10.22-18.97-14.47
	c-5.28-4.28-9.7-7.49-12.84-8.61c3.14,1.12,8.59,1.23,15.51,2.67c6.9,1.39,15.35,4.04,23.54,9.6c4.97,3.45,9.3,7.33,13,11.31
	c3.65,4.04,6.71,8.05,9.2,11.9c1.98,3.02,3.65,5.89,5.07,8.45c-5.84-14.87-12.47-29.83-19.77-44.22c-2.59-2.51-6.55-5.38-11.28-8.29
	c-3.09-1.98-6.61-3.88-10.2-5.96c-3.67-2.03-7.5-4.12-11.47-6.42c-6.5-3.66-11.92-7.62-16.67-10.89c-4.73-3.29-8.75-5.7-11.52-6.26
	c2.75,0.56,7.4-0.27,13.48,0.03c6.05,0.24,13.63,1.52,21.06,5.72c4.49,2.62,8.43,5.75,11.73,9.04c3.09,3.18,5.68,6.39,7.77,9.55
	c-3.51-6.34-7.16-12.49-10.91-18.46C308.84,598.83,306.59,596.48,304.14,593.99z"/>
<linearGradient id="SVGID_5_" gradientUnits="userSpaceOnUse" x1="328.6769" y1="264.309" x2="321.8224" y2="382.2876" gradientTransform="matrix(1 0 0 -1 0 1002)">
	<stop  offset="0" style="stop-color:#FAFCFC"/>
	<stop  offset="1" style="stop-color:#5A783B"/>
</linearGradient>
<path class="st8" d="M325.59,583.61c-0.34,8.27-1.22,15.94-1.51,22.63c-0.34,6.69-0.16,12.28,0.95,15.43
	c-1.11-3.16-4.36-7.68-7.27-14.18c-1.51-3.24-2.8-6.98-3.78-11.1c-0.92-4.12-1.45-8.67-1.27-13.4c0.37-7.76,3.12-14.26,5.92-19.05
	c2.77-4.84,5.68-8.02,6.53-10.46c-0.85,2.43-0.69,6.74-0.24,11.98C325.3,570.8,325.94,576.87,325.59,583.61z"/>
<linearGradient id="SVGID_6_" gradientUnits="userSpaceOnUse" x1="590.5643" y1="530.0152" x2="590.5643" y2="426.219" gradientTransform="matrix(1 0 0 -1 0 1002)">
	<stop  offset="0" style="stop-color:#384B9A"/>
	<stop  offset="1" style="stop-color:#222B55"/>
</linearGradient>
<path class="st9" d="M629.03,506.9l-36.6-37.05c-1.03-1.04-2.69-1.04-3.75,0l-36.6,37.05c-1.66,1.68-0.48,4.57,1.88,4.57h4.6
	c4.49,0,8.14,3.69,8.14,8.24v61.87c0,1.47,1.19,2.67,2.64,2.67h42.41c1.45,0,2.64-1.2,2.64-2.67v-61.87c0-4.55,3.65-8.24,8.14-8.24
	h4.6C629.54,511.47,630.7,508.58,629.03,506.9z"/>
<path class="st10" d="M715.49,589.31H606.52c-2.11,0-3.99-1.28-4.81-3.24l-4.09-9.87c-1.32-3.21-4.41-5.27-7.85-5.27h-45.34
	c-3.44,0-6.5,2.09-7.85,5.27l-3.73,9.01c-1.11,2.68-1.69,5.56-1.69,8.48v8.08v122.67c0,6.87,5.5,12.44,12.29,12.44h171.99
	c6.79,0,12.29-5.56,12.29-12.44V601.78C727.8,594.9,722.28,589.31,715.49,589.31z"/>
<linearGradient id="SVGID_7_" gradientUnits="userSpaceOnUse" x1="629.4827" y1="400.6668" x2="629.4827" y2="267.6621" gradientTransform="matrix(1 0 0 -1 0 1002)">
	<stop  offset="0" style="stop-color:#6163AA"/>
	<stop  offset="1" style="stop-color:#3E62AB"/>
</linearGradient>
<path class="st11" d="M715.49,745.18H543.5c-6.79,0-12.31-5.56-12.31-12.44v-122.7c0-6.87,5.5-12.46,12.31-12.46h171.99
	c6.79,0,12.29,5.56,12.29,12.46v122.67C727.8,739.62,722.28,745.18,715.49,745.18z"/>
<linearGradient id="SVGID_8_" gradientUnits="userSpaceOnUse" x1="567.3195" y1="404.803" x2="581.8194" y2="-43.9651" gradientTransform="matrix(1 0 0 -1 0 1002)">
	<stop  offset="0" style="stop-color:#FAFCFC"/>
	<stop  offset="1" style="stop-color:#7C9AD0"/>
</linearGradient>
<path class="st12" d="M670.02,621.38H470.73v140.78h199.28V621.38z"/>
<path class="st10" d="M660.82,631.87H479.96v119.78h180.87V631.87z"/>
<path class="st13" d="M479.96,673.09c20.69,0,81.17,78.56,114.23,78.56H479.96V673.09z"/>
<path class="st10" d="M520.33,751.65c25.31,0,98.82-92.93,140.49-93.6v93.6H520.33z"/>
<path class="st6" d="M550.9,683.68c7.87,0,14.24-6.46,14.24-14.42c0-7.96-6.38-14.42-14.24-14.42c-7.86,0-14.24,6.46-14.24,14.42
	C536.66,677.23,543.04,683.68,550.9,683.68z"/>
<linearGradient id="SVGID_9_" gradientUnits="userSpaceOnUse" x1="385.1976" y1="951.3967" x2="402.2741" y2="422.883" gradientTransform="matrix(1 0 0 -1 0 1002)">
	<stop  offset="0" style="stop-color:#FAFCFC"/>
	<stop  offset="1" style="stop-color:#7C9AD0"/>
</linearGradient>
<path class="st14" d="M389.48,269.87c47.27,0,85.58-38.79,85.58-86.64s-38.32-86.64-85.58-86.64s-85.58,38.79-85.58,86.64
	S342.22,269.87,389.48,269.87z"/>
<linearGradient id="SVGID_10_" gradientUnits="userSpaceOnUse" x1="650.8984" y1="871.9024" x2="667.9735" y2="343.3874" gradientTransform="matrix(1 0 0 -1 0 1002)">
	<stop  offset="0" style="stop-color:#FAFCFC"/>
	<stop  offset="1" style="stop-color:#7C9AD0"/>
</linearGradient>
<path class="st15" d="M655.96,373.36c47.27,0,85.58-38.79,85.58-86.64c0-47.85-38.32-86.64-85.58-86.64
	c-47.27,0-85.58,38.79-85.58,86.64C570.38,334.57,608.69,373.36,655.96,373.36z"/>
<linearGradient id="SVGID_11_" gradientUnits="userSpaceOnUse" x1="307.1029" y1="820.3274" x2="323.5405" y2="311.5822" gradientTransform="matrix(1 0 0 -1 0 1002)">
	<stop  offset="0" style="stop-color:#FAFCFC"/>
	<stop  offset="1" style="stop-color:#7C9AD0"/>
</linearGradient>
<path class="st16" d="M310.87,381.82c45.5,0,82.39-37.34,82.39-83.4s-36.89-83.4-82.39-83.4c-45.5,0-82.39,37.34-82.39,83.4
	S265.37,381.82,310.87,381.82z"/>
<linearGradient id="SVGID_12_" gradientUnits="userSpaceOnUse" x1="517.9775" y1="930.0546" x2="517.9775" y2="34.4435" gradientTransform="matrix(1 0 0 -1 0 1002)">
	<stop  offset="0" style="stop-color:#FAFCFC"/>
	<stop  offset="1" style="stop-color:#7C9AD0"/>
</linearGradient>
<path class="st17" d="M517.98,421.35c82.64,0,149.63-67.82,149.63-151.48c0-83.66-66.99-151.48-149.63-151.48
	s-149.63,67.82-149.63,151.48C368.34,353.53,435.34,421.35,517.98,421.35z"/>
<linearGradient id="SVGID_13_" gradientUnits="userSpaceOnUse" x1="364.619" y1="657.6412" x2="364.619" y2="515.479" gradientTransform="matrix(1 0 0 -1 0 1002)">
	<stop  offset="0" style="stop-color:#6163AA"/>
	<stop  offset="1" style="stop-color:#7273B4"/>
</linearGradient>
<path class="st18" d="M417.31,392.17l-50.12-50.74c-1.43-1.45-3.7-1.45-5.13,0l-50.12,50.74c-2.27,2.3-0.66,6.26,2.56,6.26h6.32
	c6.16,0,11.15,5.06,11.15,11.29v84.72c0,2.03,1.61,3.66,3.62,3.66h58.08c2.01,0,3.62-1.63,3.62-3.66v-84.72
	c0-6.23,4.99-11.29,11.15-11.29h6.31C417.97,398.43,419.58,394.5,417.31,392.17z"/>
<path class="st19" d="M628.95,432.35c0,6.37-5.2,11.56-11.63,11.56c-6.42,0-11.63-5.16-11.63-11.56c0-6.37,5.2-11.56,11.63-11.56
	C623.75,420.82,628.95,425.98,628.95,432.35z"/>
<path class="st19" d="M781.89,335.46c0.05-0.05,0.13-0.13,0.18-0.19c2.64-2.7,6.84-2.7,9.49,0c0.05,0.05,0.13,0.13,0.19,0.19
	c2.75,2.73,2.75,7.06,0,9.79c-0.05,0.05-0.13,0.13-0.19,0.19c-2.64,2.7-6.84,2.7-9.49,0c-0.05-0.05-0.13-0.13-0.18-0.19
	C779.14,342.52,779.14,338.22,781.89,335.46z"/>
<path class="st19" d="M697.18,168.22c9.3,0,16.86-7.49,16.86-16.75c0,9.23,7.56,16.75,16.86,16.75c-9.3,0-16.86,7.49-16.86,16.74
	C714.04,175.71,706.48,168.22,697.18,168.22z"/>
<path class="st19" d="M253.83,183.2c4.86,0,8.77-3.91,8.77-8.72c0,4.81,3.94,8.72,8.77,8.72c-4.86,0-8.77,3.91-8.77,8.72
	C262.63,187.11,258.69,183.2,253.83,183.2z"/>
<linearGradient id="SVGID_14_" gradientUnits="userSpaceOnUse" x1="452.9969" y1="824.5681" x2="466.2644" y2="413.9394" gradientTransform="matrix(1 0 0 -1 0 1002)">
	<stop  offset="0" style="stop-color:#FAFCFC"/>
	<stop  offset="1" style="stop-color:#7C9AD0"/>
</linearGradient>
<path class="st20" d="M546.96,199.55H364.62v128.8h182.34V199.55z"/>
<path class="st10" d="M538.56,209.15H373.05v109.59h165.51V209.15z"/>
<path class="st10" d="M538.56,223.38c-35.75,1.98-74.04,63.82-98.27,63.82c-17.02,0-43.81-44.19-67.25-48.5v80.09h165.51V223.38z"/>
<path class="st6" d="M453.32,243.39c0,7.28-5.84,13.19-13.03,13.19c-7.19,0-13.03-5.91-13.03-13.19c0-7.28,5.84-13.19,13.03-13.19
	C447.48,230.18,453.32,236.09,453.32,243.39z"/>
<path class="st10" d="M513.99,678.04c-7.08-28.94-5.07-65.03-4.47-88.7c1.06-41.7-7.24-79.63-7.24-79.63l-77.45,5.59
	c-6.42,40.34-10.81,34.75-10.54,71.93c0.26,37.18,4.73,60.03,2.09,80.46c-2.62,20.46,4.99,72.52,1.32,90.57h17.04
	c0,0,8.14-27.63,7.87-44.88c-0.26-17.25-2.88-26.83-1.06-46.49c1.85-19.66,20.87-88.17,20.87-88.17s12.97,78.88,16.65,87.9
	c3.67,9.04,7.61,15.14,9.7,22.84c2.09,7.7,9.49,56.09,10.28,68.32h15.25C514.33,757.78,521.07,706.98,513.99,678.04z"/>
<path class="st13" d="M403.25,762.81c-2.62,0.8-3.91,4.36-3.91,6.87h35.41c0,0,2.88-3.98,0-11.42H417.7
	C417.7,758.26,405.87,762,403.25,762.81z"/>
<path class="st13" d="M529.34,763.66c-1.51-0.78-15.04-5.88-15.04-5.88h-15.25c0,0-4.26,2.86-2.67,11.9h36.99
	C533.41,769.66,532.75,765.43,529.34,763.66z"/>
<path class="st21" d="M447.35,368.28v21.43h26.26v-24.82L447.35,368.28z"/>
<path class="st22" d="M447.35,368.28v11.69c6.1-0.16,22.64,0.43,22.64,9.74h3.62v-24.85L447.35,368.28z"/>
<path class="st22" d="M443.94,356.89c-4.23-2.06-0.9,16.1,3.41,11.4L443.94,356.89z"/>
<path class="st13" d="M450.26,336.16c-4.6,0.16-7.08,6.71-7.08,13.03c0,10.35,5.37,29.13,14.88,29.13c2.33,0,10.89,0.03,13,0.03
	c6.82,0,14.8-11.8,14.8-26.96c0-15.51-8.14-23.06-22.57-23.06C457.68,328.37,452.56,330.57,450.26,336.16z"/>
<path class="st21" d="M392.36,353.12c-4.09-8.56-14.56-42.13-16.86-53.07c0,0,1.93-12.92,0.92-13.94c-1-1.02-8.35-13.72-10.86-12.79
	c-2.51,0.94-1.9,2.86-1.9,2.86s-4.73-0.64-6,2.86c-1.27,3.51-1.22,13.29,0,15.97c2.35,5.19,2.11,7.81,5.63,8.59
	c0.16,0.03,3.75,36.54,7.69,56.5c5.13,14.39,12.82,34.08,18.84,42.8c1.32-13.16,9.49-27.37,14.35-34.8
	C398.6,362.58,394.13,356.81,392.36,353.12z"/>
<path class="st23" d="M428.59,383.69c-7.72-1.23-17.04-8.21-24.44-15.57c-4.86,7.44-13.05,21.64-14.35,34.8
	c12.15,17.6,23.78,25.68,25.6,32.61L428.59,383.69z"/>
<path class="st24" d="M418.13,424.83c-9.88-6.37-28.33-21.88-28.33-21.88c12.15,17.6,23.78,25.68,25.6,32.61L418.13,424.83z"/>
<path class="st23" d="M514.57,362.93c-3.67,5.72-6.98,11.32-8.27,13.24c-2.03,3.05-6.58,3.42-10.86,4.33l14.06,51.81
	c0.45-11.02,5.6-13.05,13.5-30.52c3.51-7.76,5.89-13.46,8.19-18.86C528.79,371.76,522.23,364.48,514.57,362.93z"/>
<path class="st24" d="M504.77,414.93l4.73,17.41c0.45-11.02,5.6-13.05,13.5-30.52c3.51-7.76,5.89-13.45,8.19-18.86
	C525.32,396.05,516.6,405.52,504.77,414.93z"/>
<path class="st21" d="M553.99,286.22c-2.04-2.7-4.36-5.4-5.07-7.84c-0.71-2.43-1.88-2.89-1.88-2.89l-3.38,4.41
	c0,0,0.08-2.17-1.24-3.69c-1.35-1.52-3.12-0.64-3.3,2.43c-0.18,3.05-3.46,5.94-4.7,8.75c-1.24,2.78,3.3,17.01,2.75,19.1
	c-0.53,2.06-10.33,39.45-16.01,46.89c-2.11,2.76-4.41,6.18-6.61,9.58c7.66,1.55,14.22,8.83,16.65,20.03
	c2.88-6.74,5.68-13.03,10.49-22.33c5.02-28.19,9.01-57.86,9.01-57.86C556.29,294.59,556.03,288.92,553.99,286.22z"/>
<path class="st13" d="M478.42,658.22c-1.45-14.77-13.08-85.92-12.66-89.16c0.42-3.24-3.3,9.63-3.3,9.63s12.97,78.88,16.65,87.9
	c3.67,9.04,7.61,15.14,9.7,22.84c2.09,7.7,9.49,56.09,10.28,68.32c-1.51-18.86-1.14-43.74-5.79-63.82
	C488.62,673.87,479.88,672.98,478.42,658.22z"/>
<path class="st23" d="M421.38,534.07c0.24-32.66-5.89-74.55-5.97-98.3c-0.08-18.99,13.21-52.08,13.21-52.08
	c12.55,2.01,15.25,6.02,23.83,6.02s16.54,0,21.16,0s11.26-6.42,21.83-9.18c0,0,13.69,35.2,14.06,51.81
	c0.4,16.61-6.42,71.15-3.46,99.61C506.04,531.99,421.27,549.59,421.38,534.07z"/>
<path class="st24" d="M482.04,391.42c3.15-3.56,5.42-7.92,8.67-9.34c-7.87,3.1-13.21,7.62-17.1,7.62c-1.03,0-2.27,0-3.62,0
	c0,3.72,3.07,5.99,6.18,5.56C478.37,394.98,480.62,393.05,482.04,391.42z"/>
<path class="st24" d="M447.59,392.41c4.07,0.67,5.81-2.38,8.24-2.68c-1.14,0-2.27,0-3.41,0c-6.71,0-9.86-2.43-16.88-4.47
	C440.61,386.47,443.54,391.74,447.59,392.41z"/>
<path class="st25" d="M435.11,385.11c-0.37-0.08-0.32-0.05,0.4,0.11C435.38,385.19,435.25,385.16,435.11,385.11z"/>
<linearGradient id="SVGID_15_" gradientUnits="userSpaceOnUse" x1="531.6117" y1="930.0543" x2="531.6117" y2="34.4449" gradientTransform="matrix(1 0 0 -1 0 1002)">
	<stop  offset="0" style="stop-color:#FAFCFC"/>
	<stop  offset="1" style="stop-color:#7C9AD0"/>
</linearGradient>
<path class="st26" d="M531.61,266.9c28.31,0,51.26-23.23,51.26-51.89s-22.95-51.89-51.26-51.89c-28.31,0-51.26,23.23-51.26,51.89
	S503.3,266.9,531.61,266.9z"/>
<linearGradient id="SVGID_16_" gradientUnits="userSpaceOnUse" x1="411.7578" y1="930.0543" x2="411.7578" y2="34.4434" gradientTransform="matrix(1 0 0 -1 0 1002)">
	<stop  offset="0" style="stop-color:#FAFCFC"/>
	<stop  offset="1" style="stop-color:#7C9AD0"/>
</linearGradient>
<path class="st27" d="M411.76,280.01c43.6,0,78.95-35.78,78.95-79.93s-35.35-79.93-78.95-79.93c-43.6,0-78.95,35.78-78.95,79.93
	S368.15,280.01,411.76,280.01z"/>
<path class="st28" d="M760.36,439.44c1.11-0.75,2.19-1.53,3.25-2.3"/>
<path class="st29" d="M769.84,432.29c35.57-29.53,54.75-78.19,49.97-124.71c-1.32-12.87-4.47-25.92-11.84-36.48
	c-7.37-10.59-19.55-18.35-32.32-17.74c-12.76,0.62-25.1,11.24-25.42,24.15c-0.32,12.92,14.08,24.61,25.87,19.58
	c4.76-2.03,8.32-6.1,11.44-10.24c34.96-46.49,25.63-120.75-19.71-156.91c-43.25-34.48-112.16-28.6-150.06,11.37"/>
<path class="st28" d="M615.11,144.31c-0.87,0.99-1.72,2.01-2.56,3.05"/>
<path class="st28" d="M286.06,279.58c-1.19,0.56-2.38,1.15-3.59,1.71"/>
<path class="st30" d="M275.28,284.77c-18.39,9.04-36.38,19.05-51.15,32.79c-17.65,16.42-30.31,39.27-28.4,62.57
	c1.93,23.3,21.56,45.53,46.06,46.28c9.09,0.27,20.48-5.3,19-13.86c-0.9-5.24-6.71-8.69-12.29-8.77c-5.58-0.08-10.89,2.41-15.64,5.22
	c-23.25,13.78-40.48,39.35-37.02,65.08c3.12,23.19,26.9,42.93,50.55,40.61"/>
<path class="st28" d="M250.31,514.09c1.29-0.27,2.56-0.59,3.83-1.02"/>
</svg>
