<?xml version="1.0" encoding="utf-8"?>
<!-- Generator: Adobe Illustrator 24.0.0, SVG Export Plug-In . SVG Version: 6.00 Build 0)  -->
<svg version="1.1" xmlns="http://www.w3.org/2000/svg" xmlns:xlink="http://www.w3.org/1999/xlink" x="0px" y="0px"
	 viewBox="0 0 500 500" style="enable-background:new 0 0 500 500;" xml:space="preserve">
<style type="text/css">
	.st0{fill:#E7E6F4;}
	.st1{fill:#8C78FA;}
	.st2{fill:#FFFFFF;}
	.st3{fill:#322D52;}
	.st4{fill:#DF6942;}
	.st5{fill:#80493C;}
	.st6{fill:#2C2E38;}
	.st7{fill:none;stroke:#000000;stroke-width:0.5425;stroke-linecap:round;stroke-miterlimit:10;}
	.st8{fill:#7B6FED;}
	.st9{fill:#4A15A8;}
	.st10{opacity:0.4;fill:#271A45;}
	.st11{fill:#381284;}
	.st12{fill:none;stroke:#FFFFFF;stroke-width:0.5425;stroke-linecap:round;stroke-linejoin:round;stroke-miterlimit:10;}
	.st13{fill:none;stroke:#482D87;stroke-width:0.5425;stroke-linecap:round;stroke-linejoin:round;stroke-miterlimit:10;}
	.st14{fill:none;stroke:#5D3729;stroke-width:0.5425;stroke-linecap:round;stroke-miterlimit:10;}
	.st15{fill:#DF6942;stroke:#5D3729;stroke-width:0.5425;stroke-linecap:round;stroke-miterlimit:10;}
	.st16{fill:none;stroke:#CBC9BC;stroke-width:0.5425;stroke-linecap:round;stroke-linejoin:round;stroke-miterlimit:10;}
	.st17{fill:#EBAF29;}
</style>
<g id="BACKGROUND">
	<rect x="0" class="st0" width="500" height="500"/>
</g>
<g id="OBJECTS">
	<g>
		<g>
			<path class="st1" d="M155.73,285.55c1.79,0,2.84-2.02,1.83-3.49l-10.31-14.94l-10.86-15.75c-0.89-1.29-2.79-1.28-3.67,0.01
				l-10.78,15.8l-10.23,14.99c-1.01,1.48,0.05,3.48,1.84,3.48l8.47-0.02c1.23,0,2.23,0.99,2.23,2.22l0.12,47.86
				c0,1.23,1,2.22,2.23,2.22l16.35-0.04c1.23,0,2.22-1,2.22-2.23l-0.12-47.86c0-1.23,0.99-2.23,2.22-2.23L155.73,285.55z"/>
			<path class="st1" d="M212.74,162.04c1.79,0,2.84-2.02,1.83-3.49l-10.31-14.94l-10.86-15.75c-0.89-1.29-2.79-1.28-3.67,0.01
				l-10.78,15.8l-10.23,14.99c-1.01,1.48,0.05,3.48,1.84,3.48l8.47-0.02c1.23,0,2.23,0.99,2.23,2.22l0.12,47.86
				c0,1.23,1,2.22,2.23,2.22l16.35-0.04c1.23,0,2.22-1,2.22-2.23l-0.12-47.86c0-1.23,0.99-2.23,2.22-2.23L212.74,162.04z"/>
			<path class="st1" d="M371.2,232.43c1.79,0,2.84-2.02,1.83-3.49l-10.31-14.94l-10.86-15.75c-0.89-1.29-2.79-1.28-3.67,0.01
				l-10.78,15.8l-10.23,14.99c-1.01,1.48,0.05,3.48,1.84,3.48l8.47-0.02c1.23,0,2.23,0.99,2.23,2.22l0.13,47.86
				c0,1.23,1,2.22,2.23,2.22l16.35-0.04c1.23,0,2.22-1,2.22-2.23l-0.12-47.86c0-1.23,0.99-2.23,2.22-2.23L371.2,232.43z"/>
			<path class="st1" d="M277.13,109.87c1.18,0,1.87-1.33,1.2-2.3l-6.78-9.83l-7.15-10.36c-0.58-0.85-1.84-0.84-2.42,0.01l-7.1,10.4
				l-6.73,9.87c-0.66,0.97,0.03,2.29,1.21,2.29l5.57-0.01c0.81,0,1.47,0.65,1.47,1.46l0.08,31.5c0,0.81,0.66,1.46,1.47,1.46
				l10.76-0.03c0.81,0,1.46-0.66,1.46-1.47l-0.08-31.5c0-0.81,0.65-1.47,1.46-1.47L277.13,109.87z"/>
		</g>
		<g>
			<path class="st2" d="M325.56,296.06h36.07c0.22,0,0.38-0.2,0.33-0.41c-0.44-1.82-2.73-8.97-11.07-5.43
				c-0.2,0.09-0.44-0.03-0.47-0.24c-0.26-1.89-1.84-8.99-11.25-8.04c-7.77,0.78-9.27,8-9.09,9.56c0.02,0.18-0.1,0.33-0.28,0.35
				c-0.85,0.12-3.14,0.71-4.55,3.73C325.15,295.79,325.32,296.06,325.56,296.06z"/>
			<path class="st2" d="M112.05,145.42h78.39c0.14,0,0.25-0.13,0.21-0.27c-0.39-1.27-2.47-6.48-9.94-3.39
				c-0.13,0.05-0.27-0.02-0.29-0.15c-0.31-2.03-2.86-15.01-16.54-8.14c-0.11,0.05-0.24,0.02-0.29-0.1c-0.59-1.43-4.58-10-14.53-9.27
				c-9.67,0.7-10.88,9.39-11.03,11.29c-0.01,0.16-0.18,0.25-0.32,0.16c-1.43-0.9-7.78-4.17-14.01,4.02
				c-0.06,0.07-0.15,0.11-0.24,0.07c-1.14-0.45-8.79-3.11-11.61,5.5C111.8,145.28,111.91,145.42,112.05,145.42z"/>
			<path class="st2" d="M376.6,212.9c1.61-0.89,4.94-1.55,4.64-5.99c-0.05-0.6,0.92-0.65,1.2-0.14c0.93,1.71,1.87,4.89,5.81,5.61
				c0.51,0.09,0.61,0.97,0.1,1.11c-3.51,1.08-3.96,3.16-4.83,5.71c-0.18,0.56-0.92,0.65-1.2,0.14c-0.98-1.8-1.04-4.34-5.67-5.24
				C376.14,214.01,376.09,213.18,376.6,212.9z"/>
			<path class="st2" d="M285.85,85.05c1.61-0.89,4.94-1.55,4.64-5.99c-0.05-0.6,0.92-0.65,1.2-0.14c0.93,1.71,1.87,4.89,5.81,5.61
				c0.51,0.09,0.61,0.97,0.1,1.11c-3.51,1.08-3.96,3.16-4.83,5.71c-0.18,0.56-0.92,0.65-1.2,0.14c-0.98-1.8-1.04-4.34-5.67-5.24
				C285.4,86.16,285.34,85.33,285.85,85.05z"/>
			<path class="st2" d="M181.42,331.3c1.61-0.89,4.94-1.55,4.64-5.99c-0.05-0.6,0.92-0.65,1.2-0.14c0.93,1.71,1.87,4.89,5.81,5.61
				c0.51,0.09,0.61,0.97,0.1,1.11c-3.51,1.08-3.96,3.16-4.83,5.71c-0.18,0.56-0.92,0.65-1.2,0.14c-0.98-1.8-1.04-4.34-5.67-5.24
				C180.96,332.42,180.91,331.58,181.42,331.3z"/>
			<path class="st2" d="M115.54,186.93c1.26-0.69,3.86-1.21,3.63-4.68c-0.04-0.47,0.72-0.51,0.94-0.11
				c0.73,1.33,1.46,3.82,4.54,4.39c0.4,0.07,0.47,0.76,0.08,0.87c-2.74,0.84-3.1,2.47-3.77,4.46c-0.14,0.43-0.72,0.51-0.94,0.11
				c-0.77-1.41-0.81-3.39-4.43-4.1C115.19,187.8,115.15,187.15,115.54,186.93z"/>
		</g>
	</g>
	<g>
		<g>
			<path class="st3" d="M288.89,144.02c0.68,24.88,16.96,17.36,16.96,17.36c4.55,0.19,15.97-3.37,18.26-9.41
				c0.94-2.47,1.96-4.48,1.77-7.57c-0.07-1.07,0.26-2.85,0.79-4.29c0.85-2.26,0.47-5.94-2.55-8.34c-2.44-1.93-2.03-4.94-6.71-6.65
				c-2.22-0.81-4.37-0.79-6.46-1.9c-1.66-0.88-5.04,0.73-8.8,1.3c-3.99,0.59-8.21,4.81-10.11,8.53
				C290.18,136.67,288.79,140.26,288.89,144.02z"/>
		</g>
		<g id="upper_hand_00000013151897006010689590000005135863175390496649_">
			<path class="st2" d="M317.28,196.05c4.28-2.67,8.11-5.13,11.49-7.43c9.69-6.6,18.97-12.47,20.35-17.55
				c0.71-2.6-3.19-4.55-4.92-7.2c-0.82-1.25-1.85-2.21-3.2-2.8c-3.09-1.35,3.46-4.59-4.31-1.08c-2.67,1.2-17.01,6.59-20.43,8.52
				c-17.77,10.03-24.15,13.54-24.14,19.99C292.11,194.96,298.45,207.82,317.28,196.05z"/>
		</g>
		<path class="st2" d="M334.16,170.88c1.58,3.2,4.87,5.35,8.54,4.73c1.8-0.31,2.86,0.49,4.68-1.35c1.73-1.74,4.55-5.12,5.92-7.19
			c9.63-14.54,11.96-21.02,11.88-24.34c-0.04-1.36-2.39-3.03-5.39-5c-2.47-1.63-5.44-2.63-6.53-1.45
			c-1.22,1.31-8.16,10.67-13.28,17.71c-0.08,0.11-0.16,0.21-0.24,0.32c-0.01,0.01-0.02,0.03-0.03,0.04
			c-0.24,0.34-0.47,0.66-0.71,0.98c-1.81,2.49-3.29,4.57-4.05,5.7C332.69,164.34,332.75,168.02,334.16,170.88z"/>
		<path class="st4" d="M308.55,181.6c0,0,0.42,0.13-4.71,0.07c-8.36-0.08-13.87-7.39-13.87-7.39c2.65-10.4,4.56-24,4.56-24
			s13.91-13.26,15.94,7.22l1.7,5.39l-3.69,16.22L308.55,181.6z"/>
		<path class="st5" d="M310.63,169.6c-5.38-0.22-10.94-3.62-13.47-10.76l15.77,1.52L310.63,169.6z"/>
		<g>
			<path class="st4" d="M309.05,167.84c-7.17-0.8-12.97-2.45-14.81-12.78c-2.05-11.52,2.46-4.5,8.79-15.04
				c2.18-3.64,5.67-7.21,11.04-7.57c0.72-0.05,9.25,5.2,8.97,16.38c-0.04,1.55-1.55,8.49-3.02,11.53
				C317.43,165.76,314.36,168.43,309.05,167.84z"/>
		</g>
		<path class="st4" d="M297.05,149.35c0.7-3.86-4.09-8.23-7.07-3.68c-2.58,3.94,1.43,6.72,5.25,7.26L297.05,149.35z"/>
		<path d="M308.95,145.55c0.42-0.09,0.81,0.34,0.87,0.95c0.06,0.61-0.24,1.18-0.66,1.27c-0.42,0.09-0.81-0.34-0.87-0.95
			C308.24,146.2,308.53,145.64,308.95,145.55z"/>
		<g>
			<path class="st6" d="M310.82,144.36c-0.15,0.34-1.26,0.02-2.52-0.09c-1.31,0-2.44,0.15-2.54-0.18c-0.12-0.13,0.19-0.46,0.65-0.7
				c0.46-0.24,1.19-0.41,1.96-0.41c0.82,0.02,1.52,0.33,1.89,0.59C310.7,143.94,310.89,144.19,310.82,144.36z"/>
		</g>
		<path class="st7" d="M314.31,148.69c0,0,2.17,4.35,1.91,4.98c-0.09,0.35-0.91,0.51-1.55,0.56"/>
		<path d="M319.97,146.51c-0.39-0.19-0.87,0.13-1.08,0.71c-0.21,0.58-0.06,1.2,0.33,1.39c0.39,0.19,0.87-0.13,1.08-0.71
			C320.51,147.32,320.36,146.7,319.97,146.51z"/>
		<g>
			<path class="st6" d="M316.38,144.64c0.08,0.36,1.23,0.25,2.49,0.36c1.28,0.23,2.37,0.59,2.53,0.28c0.15-0.11-0.1-0.48-0.5-0.8
				c-0.4-0.32-1.08-0.62-1.84-0.76c-0.81-0.13-1.56,0.05-1.97,0.24C316.58,144.25,316.34,144.45,316.38,144.64z"/>
		</g>
		<path class="st2" d="M314.62,157.69c-1.53-0.09-2.71-0.77-3.33-1.22c-0.23-0.17-0.55-0.01-0.56,0.27
			c-0.04,0.96-0.07,2.24,1.14,2.87c1.22,0.64,2.24-0.49,3.01-1.33C315.07,158.07,314.92,157.71,314.62,157.69z"/>
		<path class="st8" d="M226.53,279.95c0,0-0.55-40.79-36.93-39.84c-29.79,0.78,76.88-79.77,106.92-66.71
			C326.56,186.47,226.53,279.95,226.53,279.95z"/>
		<path class="st4" d="M176.9,284.4l-11.99,2.73l3.25,20.46l17.9-5.39C186.07,302.21,184.46,288.71,176.9,284.4z"/>
		<path class="st9" d="M255.17,229.99c0,0-4.78,6.32-5.36,17.97l-18.65,24.7l-59.24,10.4l4.21,27.24c0,0,54.94-2.66,67.71-11.18
			c12.77-8.52,45.59-46.21,46.75-57.91C291.75,229.52,255.17,229.99,255.17,229.99z"/>
		<path class="st10" d="M197.51,278.81c0,0,7.74,7.61,23.44,6.24c15.7-1.37,62.82-36.03,62.82-36.03l-49.17,22.1L197.51,278.81z"/>
		<path class="st11" d="M167.36,285.94c-0.09-0.71-0.68-1.22-1.33-1.16c-6.82,0.68-16.19,0.33-15.67,4.4
			c0.45,3.54,4.97,39.1,5.17,40.67c0.2,1.57,4.81,0.55,5.32-3.9c0.48-4.18,5.99-15.04,8.8-17.51c0.32-0.28,0.48-0.72,0.42-1.17
			L167.36,285.94z"/>
		<line class="st12" x1="178.32" y1="287.41" x2="180.95" y2="304.22"/>
		<path class="st4" d="M165.85,234.63l-11.78-3.51l-7.23,19.42l18.24,4.11C165.08,254.65,170.31,242.1,165.85,234.63z"/>
		<path class="st11" d="M156.79,231.28c0.27-0.67,0.01-1.4-0.59-1.66c-6.27-2.75-14.26-7.67-15.81-3.87
			c-1.35,3.3-14.89,36.5-15.49,37.96c-0.6,1.46,3.92,2.84,6.55-0.78c2.47-3.4,12.61-10.15,16.27-10.93
			c0.42-0.09,0.77-0.39,0.94-0.82L156.79,231.28z"/>
		<path class="st9" d="M262.26,222.62c0,0-7.27,3.16-13.5,13.02l-28.39,12.34l-59.5-17.41l-7.7,24.11c0,0,49.93,23.72,65.24,22.58
			c15.31-1.14,65.42-26.42,72.18-36.04C297.35,231.6,262.26,222.62,262.26,222.62z"/>
		<g>
			<g>
				<g>
					<path class="st2" d="M290.44,241.58c0.74-0.11,2.42,0.94,3.57-2.41c0.27-0.77,0.31-1.56,1.47-4.12
						c2.53-5.65,6.65-14.49,9.8-21.44l0-0.01c1.65-3.65,3.04-6.79,3.77-8.65c0.22-0.55,0.43-1.12,0.64-1.72
						c1.58-4.55,2.73-10.35,2.03-15.71c-0.38-2.92-1.31-5.71-3.02-8.09c-2.66-3.71-7.23-6.75-12.8-7.78
						c-6.95-1.29-11.95,0.5-17.61,5.52c-4.22,3.75-7.46,9.63-10.72,16.57c-7.83,16.67-11.88,29.38-12.54,31.42
						c-0.88,2.68-0.45,2.64,0.35,3.33C255.87,228.9,289.94,241.65,290.44,241.58z"/>
				</g>
			</g>
		</g>
		<line class="st12" x1="164.3" y1="235.84" x2="159.03" y2="252.3"/>
		<line class="st12" x1="171.49" y1="237.72" x2="221.89" y2="253.91"/>
		<path class="st13" d="M240.1,280.25c0,0,22.34-6.59,36.55-15.99"/>
		<path class="st1" d="M293.83,171.35c0,0-22.71-8.16-59.17,11.29c-35.03,18.69-80.64,33.78-89.77,35.41
			c-11.84,2.11-1.9,11.84,24.11,9.52c7.71-0.69,7.46,7.97,12.69,10.78c4.34,2.34,16.13,6.65,41.66-16.04
			C248.87,199.63,263.19,173.07,293.83,171.35z"/>
		<path class="st4" d="M355.23,137.6c2.61-7.23,3.75-9.79,5.17-11.36c1.43-1.57,5.44-3.14,5.44-3.14s1.79-6.37,3.9-6.12
			c2.11,0.25-1.58,8.7-1.58,8.7l1.69,8.41c0,0-0.82,1.18-1.46,3.12c-0.83,2.53-2.35,3.81-3.77,5.06c-2.36,2.09-6.05,1.75-7.91-0.8
			C355.84,140.26,355.21,138.94,355.23,137.6z"/>
		<path class="st14" d="M360.4,126.23c1.43-1.57,5.44-3.14,5.44-3.14s1.79-6.37,3.9-6.12c2.11,0.25-1.58,8.7-1.58,8.7l1.69,8.41"/>
		<path class="st15" d="M372.03,130.84c-1.72-1.42-4.82,3.59-3.04,5.01C370.26,136.87,373.66,132.19,372.03,130.84z"/>
		<path class="st14" d="M365.84,123.09c1.41-0.52,1.53,1.83,0.3,2.72c-1.24,0.89-2.02,1.04-2.21,1.61
			c-0.19,0.56-0.57,2.33-0.57,2.33s1.31,3.5-0.73,6.85"/>
		<path class="st15" d="M370.78,127.92c-1.72-1.42-5.55,4.82-3.77,6.24C368.28,135.18,372.41,129.27,370.78,127.92z"/>
		<path class="st15" d="M369.3,125.84c-1.72-1.42-5.55,4.82-3.77,6.24C366.8,133.1,370.93,127.19,369.3,125.84z"/>
		<path class="st8" d="M167.09,227.72c0.63-0.04,1.25-0.09,1.9-0.15c2.71-0.24,4.44,0.67,5.77,2.08
			c28.48-6.37,54.19-28.25,54.19-28.25C208.54,214.81,183.71,225.32,167.09,227.72z"/>
		<path class="st16" d="M283.46,232.59"/>
		<path class="st17" d="M324.91,212.33c15.24,4.56,19.85,12.27,21.09,15.22c0.29,0.69,0.35,1.45,0.16,2.17l-2,7.66
			c-0.49,1.89-2.48,2.96-4.33,2.34l-13.14-4.42c-1.04-0.35-1.83-1.21-2.13-2.27c-0.74-2.6-3.05-7.78-10.12-12.22
			c-16.05-10.08-6.04-35.16-6.04-35.16S308.32,207.37,324.91,212.33z"/>
		<path class="st17" d="M307.76,178.06c-0.39-0.4-1.05-0.07-0.98,0.47c0.36,2.6,1.07,7.28,1.55,7.54c0.58,0.31,1.69-3.82,2-5
			c0.05-0.19-0.01-0.4-0.15-0.54L307.76,178.06z"/>
		<path class="st2" d="M301.6,181.97c-3.61-5.35-16.08-12.45-25.08,7.85c-2.05,4.61-3.84,8.8-5.35,12.6
			c-3.42,8.61-6.87,16.69-7.33,22.16c-0.01,0.06-0.03,0.11-0.04,0.16c-0.46,2.41-0.9,6.79-0.87,9.27
			c0.17,17.44,3.17,30.02,5.1,32.72c0.79,1.11,2.04,1.16,5.63,1.11c2.96-0.04,6.04-0.39,6.28-1.98c0.27-1.77,1.07-19.79,1.36-28.48
			c0.01-0.13,0.01-0.27,0.02-0.4c0-0.02,0-0.03,0-0.05c0.01-0.42,0.02-0.81,0.04-1.21c0.09-2.72,0.15-5.03,0.16-6.46
			c2.72-4.07,9.75-14.1,11.29-17.2C301.9,193.8,305.23,187.31,301.6,181.97z"/>
		<path class="st16" d="M281.31,237.38c0.01-0.13,0.01-0.27,0.02-0.4c0-0.02,0-0.03,0-0.05c0.01-0.42,0.02-0.81,0.04-1.21
			c0.09-2.72,0.15-5.03,0.16-6.46c6.17-10.67,8.59-16.29,10.17-19.36c7.53-14.61,11.7-21.05,9.91-27.92
			c-1.63-6.24-16.08-12.45-25.08,7.85c-2.05,4.61-3.84,8.8-5.35,12.6c-3.42,8.61-6.87,16.69-7.33,22.16
			c-0.01,0.06-0.03,0.11-0.04,0.16c-0.46,2.41-0.9,6.79-0.87,9.27c0.01,1.09,0.03,2.16,0.06,3.21"/>
		<polygon class="st2" points="238.79,299.02 238.37,301.35 244.73,315.89 286.6,322.9 296.98,311.59 297.34,309.6 274.16,293.9 		
			"/>
		<g>
			<g>
				<path class="st1" d="M268.78,313.96l-4.76-0.85c-1.16-0.21-1.93-1.31-1.72-2.47l1.3-7.31c0.21-1.16,1.31-1.93,2.47-1.72
					l4.76,0.85c1.16,0.21,1.93,1.31,1.72,2.47l-1.3,7.31C271.04,313.4,269.94,314.17,268.78,313.96z"/>
			</g>
			<path class="st1" d="M269.7,315.74l-7.11-1.27c-1.57-0.28-2.63-1.79-2.35-3.36l0.77-4.35l-19.23-3.42
				c-1.39-0.25-2.56-0.99-3.4-1.99l-3.03,17.03c-0.44,2.46,1.2,4.8,3.66,5.24l49.68,8.84c2.46,0.44,4.8-1.2,5.24-3.66l3.06-17.22
				c-1.18,0.76-2.64,1.1-4.14,0.84l-19-3.38l-0.77,4.35C272.78,314.97,271.27,316.02,269.7,315.74z"/>
			<path class="st1" d="M296.38,289.17l-12.84-2.29l0.1-0.55c0.79-4.42-2.17-8.65-6.59-9.44l-7.97-1.42
				c-4.42-0.79-8.65,2.17-9.44,6.59l-0.1,0.55l-12.84-2.29c-2.46-0.44-4.8,1.2-5.24,3.66l-2.68,15.04c0.88,1.08,2.24,1.97,3.37,2.17
				l19.23,3.42l0.51-2.88c0.28-1.57,1.79-2.63,3.36-2.35l7.11,1.27c1.57,0.28,2.63,1.79,2.35,3.36l-0.51,2.88l19,3.38
				c1.14,0.2,2.84-0.06,4.12-0.69l2.7-15.18C300.48,291.96,298.84,289.61,296.38,289.17z M261.69,283l0.1-0.55
				c0.58-3.24,3.68-5.4,6.91-4.82l7.97,1.42c3.24,0.58,5.4,3.68,4.82,6.91l-0.1,0.55L261.69,283z"/>
		</g>
		<g>
			<path class="st4" d="M273.47,263.5c2.28-0.11,4.42,1.15,5.42,3.2c1.35,2.77,3.24,5.58,3.88,7.44c0.91,2.66,0.78,4.62-2.99,5.36
				c0,0-0.64,3.37-1.81,4.46c-1.17,1.08-3.27-0.4-3.44-1.31c-0.17-0.91-1.77-0.1-2.65-0.55c-0.89-0.44-1.71-1.77-2.34-1.8
				s-3.18,0.1-3.57-2.3c-0.26-1.59,1.61-7.35,2.91-11.06C269.56,264.96,271.38,263.6,273.47,263.5L273.47,263.5z"/>
			<path class="st14" d="M282.77,274.14c0.91,2.66,0.78,4.62-2.99,5.36c0,0-0.64,3.37-1.81,4.46c-1.17,1.08-3.27-0.4-3.44-1.31
				c-0.17-0.91-1.77-0.1-2.65-0.55c-0.89-0.44-1.71-1.77-2.34-1.8s-3.18,0.1-3.57-2.3"/>
			<line class="st14" x1="279.78" y1="279.5" x2="280.32" y2="275.23"/>
		</g>
	</g>
</g>
</svg>
