<svg width="1062" height="1117" viewBox="0 0 1062 1117" fill="none" xmlns="http://www.w3.org/2000/svg">
<g clip-path="url(#clip0_4_4)">
<rect width="1062" height="1117" fill="#F8F8F8"/>
<path opacity="0.0845424" d="M874.617 452.229C885.035 439.281 904.759 436.643 918.673 446.336C932.449 455.932 935.365 474.017 925.314 486.94L925.006 487.33L842.468 589.914C831.955 602.98 812.43 606.293 797.656 597.597L797.21 597.33L745.249 565.686L692.861 636.683C683.121 649.883 663.821 653.335 649.533 644.52L649.101 644.249C634.915 635.186 631.205 617.228 640.679 603.933L640.97 603.531L709.621 510.495C719.849 496.636 740.002 492.816 755.221 501.765L755.681 502.04L808.607 534.272L874.617 452.229Z" fill="#7367F0"/>
<path opacity="0.0845424" d="M604.449 285.76C607.09 282.187 612.351 281.278 616.2 283.73C619.998 286.15 621.001 290.938 618.489 294.497L618.386 294.639L597.817 322.46C594.801 326.381 588.966 327.325 584.705 324.613L584.553 324.515L572.74 316.685L559.936 335.569C557.482 339.189 552.367 340.309 548.436 338.118L548.281 338.03C544.382 335.752 543.175 331.004 545.535 327.354L545.63 327.211L562.61 302.167C565.407 298.041 571.278 296.802 575.722 299.399L575.954 299.539L576.182 299.685L588.244 307.68L604.449 285.76Z" fill="#7367F0"/>
<path opacity="0.070266" fill-rule="evenodd" clip-rule="evenodd" d="M829.44 416.091C830.821 416.091 831.94 414.971 831.94 413.591V394.912H852.201C853.582 394.912 854.701 393.793 854.701 392.412V383.289C854.701 381.909 853.582 380.789 852.201 380.789H831.94V361.974C831.94 360.593 830.821 359.474 829.44 359.474H819.115C817.735 359.474 816.615 360.593 816.615 361.974V380.789H796.354C794.974 380.789 793.854 381.909 793.854 383.289V392.412C793.854 393.793 794.974 394.912 796.354 394.912H816.615V413.591C816.615 414.971 817.735 416.091 819.115 416.091H829.44Z" fill="#00CFE8"/>
<path opacity="0.0739397" fill-rule="evenodd" clip-rule="evenodd" d="M228.4 303.038C284.601 303.038 330.16 345.431 330.16 397.725C330.16 450.019 284.601 492.412 228.4 492.412C172.199 492.412 126.639 450.019 126.639 397.725C126.639 345.431 172.199 303.038 228.4 303.038ZM228.4 349.893C200.009 349.893 176.995 371.308 176.995 397.725C176.995 424.142 200.009 445.557 228.4 445.557C256.79 445.557 279.805 424.142 279.805 397.725C279.805 371.308 256.79 349.893 228.4 349.893Z" fill="#00CFE8"/>
<path fill-rule="evenodd" clip-rule="evenodd" d="M193.955 386.265C193.955 377.428 201.119 370.265 209.955 370.265H735.759C744.595 370.265 751.759 377.428 751.759 386.265V598.582C751.759 607.419 744.595 614.582 735.759 614.582H209.955C201.119 614.582 193.955 607.419 193.955 598.582V386.265Z" fill="#E7FCFF"/>
<path opacity="0.383371" fill-rule="evenodd" clip-rule="evenodd" d="M202.343 386.265C202.343 377.428 209.507 370.265 218.343 370.265H735.759C744.595 370.265 751.759 377.428 751.759 386.265V598.582C751.759 607.419 744.595 614.582 735.759 614.582H218.343C209.507 614.582 202.343 607.419 202.343 598.582V386.265Z" fill="#00CFE8"/>
<path fill-rule="evenodd" clip-rule="evenodd" d="M210.731 388.083C210.731 382.56 215.208 378.083 220.731 378.083H733.371C738.894 378.083 743.371 382.56 743.371 388.083V596.764C743.371 602.287 738.894 606.764 733.371 606.764H220.731C215.208 606.764 210.731 602.287 210.731 596.764L210.731 388.083Z" fill="#E7FCFF"/>
<path fill-rule="evenodd" clip-rule="evenodd" d="M431.965 592.241C431.965 588.928 434.652 586.241 437.965 586.241H516.137C519.45 586.241 522.137 588.928 522.137 592.241V606.764H431.965V592.241Z" fill="#D4EFFF"/>
<path d="M440.353 592.241C440.353 588.928 443.04 586.241 446.353 586.241H524.525C527.838 586.241 530.525 588.928 530.525 592.241V614.582H440.353V592.241Z" fill="#91D6FF"/>
<g filter="url(#filter0_dd_4_4)">
<path fill-rule="evenodd" clip-rule="evenodd" d="M226.459 393.244C226.459 390.268 228.871 387.856 231.848 387.856H371.929C374.905 387.856 377.318 390.268 377.318 393.244V435.656C377.318 438.632 374.905 441.045 371.929 441.045H231.848C228.871 441.045 226.459 438.632 226.459 435.656V393.244Z" fill="white"/>
</g>
<path opacity="0.454078" fill-rule="evenodd" clip-rule="evenodd" d="M271.095 419.453C271.095 418.581 271.802 417.873 272.675 417.873H301.156C302.028 417.873 302.736 418.581 302.736 419.453C302.736 420.326 302.028 421.033 301.156 421.033H272.675C271.802 421.033 271.095 420.326 271.095 419.453Z" fill="#C7C1FF"/>
<path fill-rule="evenodd" clip-rule="evenodd" d="M271.095 410.501C271.095 409.628 271.802 408.921 272.675 408.921H289.856C290.728 408.921 291.435 409.628 291.435 410.501C291.435 411.373 290.728 412.081 289.856 412.081H272.675C271.802 412.081 271.095 411.373 271.095 410.501Z" fill="#8478FF"/>
<path fill-rule="evenodd" clip-rule="evenodd" d="M354.162 406.757C356.572 403.805 361.094 403.233 364.262 405.48C364.99 405.997 365.606 406.638 366.077 407.37C366.32 407.747 366.189 408.236 365.784 408.463C365.38 408.689 364.855 408.566 364.612 408.189C364.253 407.631 363.783 407.142 363.227 406.747C360.86 405.068 357.501 405.453 355.636 407.586L355.522 407.722L352.873 410.966C348.734 416.035 341.733 418.269 335.144 416.65L334.862 416.578L332.731 416.017C332.593 415.981 332.455 415.949 332.316 415.92C328.419 415.12 324.563 417.366 323.609 420.955L323.564 421.132L323.125 422.992C322.969 423.65 322.667 424.27 322.239 424.813C320.544 426.96 317.303 427.42 315 425.841C314.62 425.58 314.538 425.082 314.818 424.728C315.097 424.373 315.632 424.297 316.012 424.558C317.556 425.616 319.727 425.308 320.863 423.869C321.114 423.551 321.3 423.193 321.412 422.813L321.456 422.649L321.896 420.79C322.971 416.239 327.801 413.362 332.683 414.365L332.94 414.421L333.195 414.485L335.326 415.045C341.23 416.598 347.546 414.682 351.34 410.21L351.513 410.002L354.162 406.757Z" fill="#8478FF"/>
<path fill-rule="evenodd" clip-rule="evenodd" d="M346.463 405.795C348.207 402.179 352.767 400.565 356.647 402.191C357.426 402.518 358.142 402.963 358.764 403.509C360.23 404.793 361.587 406.823 362.859 409.603C363.044 410.007 362.842 410.475 362.408 410.647C361.975 410.82 361.473 410.632 361.287 410.227C360.1 407.633 358.861 405.779 357.594 404.669C357.109 404.244 356.553 403.898 355.946 403.643C352.982 402.401 349.507 403.589 348.097 406.296L348.021 406.448L347.471 407.587C347.343 407.853 347.196 408.11 347.031 408.357C345.001 411.393 340.714 412.321 337.456 410.429C337.068 410.204 336.643 410.04 336.197 409.945C334.029 409.482 331.869 410.706 331.297 412.692L331.26 412.832L330.309 416.702C330.023 417.868 329.415 418.944 328.545 419.824C325.834 422.569 321.282 422.79 318.281 420.358L318.121 420.225L314.248 416.901C313.901 416.604 313.879 416.1 314.199 415.776C314.497 415.474 314.987 415.436 315.334 415.675L315.406 415.73L319.279 419.054C321.582 421.03 325.168 420.892 327.288 418.745C327.905 418.121 328.35 417.368 328.588 416.552L328.644 416.346L329.595 412.476C330.313 409.551 333.44 407.723 336.579 408.393C337.13 408.511 337.66 408.703 338.152 408.962L338.36 409.078C340.817 410.505 344.05 409.805 345.581 407.515C345.664 407.39 345.741 407.263 345.812 407.132L345.913 406.934L346.463 405.795Z" fill="#C7C1FF"/>
<ellipse cx="251.602" cy="414.977" rx="11.5828" ry="10.7959" fill="#8478FF"/>
<g filter="url(#filter1_dd_4_4)">
<path fill-rule="evenodd" clip-rule="evenodd" d="M226.459 453.446C226.459 450.685 228.697 448.446 231.459 448.446H409.141C411.902 448.446 414.141 450.685 414.141 453.446V591.014C414.141 593.776 411.902 596.014 409.141 596.014H231.459C228.697 596.014 226.459 593.775 226.459 591.014V453.446Z" fill="white"/>
</g>
<mask id="mask0_4_4" style="mask-type:luminance" maskUnits="userSpaceOnUse" x="226" y="448" width="189" height="149">
<path fill-rule="evenodd" clip-rule="evenodd" d="M226.459 453.446C226.459 450.685 228.697 448.446 231.459 448.446H409.141C411.902 448.446 414.141 450.685 414.141 453.446V591.014C414.141 593.776 411.902 596.014 409.141 596.014H231.459C228.697 596.014 226.459 593.775 226.459 591.014V453.446Z" fill="white"/>
</mask>
<g mask="url(#mask0_4_4)">
<g filter="url(#filter2_d_4_4)">
<path d="M251.623 561.81C251.623 561.81 273.935 555.837 283.773 543.647C293.611 531.457 296.928 519.641 313.848 519.641C330.768 519.641 332.938 537.738 351.229 537.738C369.52 537.738 370.521 514.66 376.6 505.496C382.679 496.333 393.171 496.333 393.171 496.333" stroke="#8EEAF6" stroke-width="4.004" stroke-linecap="round"/>
</g>
<path opacity="0.414737" fill-rule="evenodd" clip-rule="evenodd" d="M251.623 560.55C251.623 560.55 273.935 554.603 283.773 542.466C293.611 530.328 296.928 518.563 313.848 518.563C330.768 518.563 332.938 536.582 351.229 536.582C369.52 536.582 370.521 513.603 376.6 504.479C382.679 495.355 393.171 495.355 393.171 495.355V572.411C393.171 574.112 391.792 575.491 390.091 575.491H254.703C253.002 575.491 251.623 574.112 251.623 572.411V560.55Z" fill="#CEF9FF"/>
<rect x="241.138" y="463.105" width="58.7162" height="5.86362" rx="2.93181" fill="#8EEAF6"/>
<path fill-rule="evenodd" clip-rule="evenodd" d="M241.138 480.696C241.138 479.077 242.45 477.764 244.07 477.764H265.467C267.086 477.764 268.399 479.077 268.399 480.696C268.399 482.315 267.086 483.628 265.467 483.628H244.07C242.45 483.628 241.138 482.315 241.138 480.696Z" fill="#8EEAF6" fill-opacity="0.401934"/>
<ellipse cx="377.967" cy="466.526" rx="3.66976" ry="3.42044" fill="#8EEAF6" fill-opacity="0.451705"/>
<ellipse cx="388.453" cy="466.526" rx="3.66976" ry="3.42044" fill="#8EEAF6" fill-opacity="0.451705"/>
<ellipse cx="398.938" cy="466.526" rx="3.66976" ry="3.42044" fill="#8EEAF6" fill-opacity="0.451705"/>
</g>
<g filter="url(#filter3_d_4_4)">
<path fill-rule="evenodd" clip-rule="evenodd" d="M443.499 409.022C443.499 404.888 446.85 401.537 450.983 401.537H702.827C706.96 401.537 710.311 404.888 710.311 409.022V565.207C710.311 569.341 706.96 572.692 702.827 572.692H450.983C446.85 572.692 443.499 569.341 443.499 565.207V409.022Z" fill="white"/>
</g>
<path fill-rule="evenodd" clip-rule="evenodd" d="M488.622 489.309V550.523H478.812V489.309H488.622Z" fill="#E7E4FF"/>
<path fill-rule="evenodd" clip-rule="evenodd" d="M488.622 503.937V550.523H478.812V503.937H488.622Z" fill="#C7C1FF"/>
<path fill-rule="evenodd" clip-rule="evenodd" d="M488.622 533.194V550.523H478.812V533.194H488.622Z" fill="#8478FF"/>
<path fill-rule="evenodd" clip-rule="evenodd" d="M512.164 474.68V550.523H502.355V474.68H512.164Z" fill="#E7E4FF"/>
<path fill-rule="evenodd" clip-rule="evenodd" d="M512.164 496.623V550.523H502.355V496.623H512.164Z" fill="#C7C1FF"/>
<path fill-rule="evenodd" clip-rule="evenodd" d="M512.164 533.194V550.523H502.355V533.194H512.164Z" fill="#8478FF"/>
<path fill-rule="evenodd" clip-rule="evenodd" d="M535.706 485.652V550.523H525.897V485.652H535.706Z" fill="#E7E4FF"/>
<path fill-rule="evenodd" clip-rule="evenodd" d="M535.706 507.594V550.523H525.897V507.594H535.706Z" fill="#C7C1FF"/>
<path fill-rule="evenodd" clip-rule="evenodd" d="M535.706 536.852V550.523H525.897V536.852H535.706Z" fill="#8478FF"/>
<path fill-rule="evenodd" clip-rule="evenodd" d="M559.248 467.366V550.523H549.439V467.366H559.248Z" fill="#E7E4FF"/>
<path fill-rule="evenodd" clip-rule="evenodd" d="M559.248 489.309V550.523H549.439V489.309H559.248Z" fill="#C7C1FF"/>
<path fill-rule="evenodd" clip-rule="evenodd" d="M559.248 518.566V550.523H549.439V518.566H559.248Z" fill="#8478FF"/>
<path fill-rule="evenodd" clip-rule="evenodd" d="M582.791 452.737V550.523H572.981V452.737H582.791Z" fill="#E7E4FF"/>
<path fill-rule="evenodd" clip-rule="evenodd" d="M582.791 481.994V550.523H572.981V481.994H582.791Z" fill="#C7C1FF"/>
<path fill-rule="evenodd" clip-rule="evenodd" d="M582.791 525.88V550.523H572.981V525.88H582.791Z" fill="#8478FF"/>
<path fill-rule="evenodd" clip-rule="evenodd" d="M606.333 474.68V550.523H596.524V474.68H606.333Z" fill="#E7E4FF"/>
<path fill-rule="evenodd" clip-rule="evenodd" d="M606.333 496.623V550.523H596.524V496.623H606.333Z" fill="#C7C1FF"/>
<path fill-rule="evenodd" clip-rule="evenodd" d="M606.333 530.269V550.523H596.524V530.269H606.333Z" fill="#8478FF"/>
<path fill-rule="evenodd" clip-rule="evenodd" d="M629.875 481.994V550.523H620.066V481.994H629.875Z" fill="#E7E4FF"/>
<path fill-rule="evenodd" clip-rule="evenodd" d="M629.875 496.623V550.523H620.066V496.623H629.875Z" fill="#C7C1FF"/>
<path fill-rule="evenodd" clip-rule="evenodd" d="M629.875 525.149V550.523H620.066V525.149H629.875Z" fill="#8478FF"/>
<path fill-rule="evenodd" clip-rule="evenodd" d="M653.417 467.366V550.523H643.608V467.366H653.417Z" fill="#E7E4FF"/>
<path fill-rule="evenodd" clip-rule="evenodd" d="M653.417 496.623V550.523H643.608V496.623H653.417Z" fill="#C7C1FF"/>
<path fill-rule="evenodd" clip-rule="evenodd" d="M653.417 532.463V550.523H643.608V532.463H653.417Z" fill="#8478FF"/>
<path fill-rule="evenodd" clip-rule="evenodd" d="M676.96 481.994V550.523H667.15V481.994H676.96Z" fill="#E7E4FF"/>
<path fill-rule="evenodd" clip-rule="evenodd" d="M676.96 496.623V550.523H667.15V496.623H676.96Z" fill="#C7C1FF"/>
<path fill-rule="evenodd" clip-rule="evenodd" d="M676.96 532.463V550.523H667.15V532.463H676.96Z" fill="#8478FF"/>
<path opacity="0.57573" fill-rule="evenodd" clip-rule="evenodd" d="M475.673 432.989C475.673 431.777 476.656 430.795 477.868 430.795H556.662C557.874 430.795 558.856 431.777 558.856 432.989C558.856 434.201 557.874 435.183 556.662 435.183H477.868C476.656 435.183 475.673 434.201 475.673 432.989Z" fill="#8C81FF"/>
<rect x="475.673" y="418.36" width="43.9455" height="4.38857" rx="2.19428" fill="#8478FF"/>
<path fill-rule="evenodd" clip-rule="evenodd" d="M746.554 747.647L759.266 841.152L752.602 841.07L739.89 748.523L746.554 747.647Z" fill="#BFE7FF"/>
<path fill-rule="evenodd" clip-rule="evenodd" d="M659.823 762.345C654.428 762.345 650.054 757.972 650.054 752.577C650.054 747.181 654.428 742.808 659.823 742.808H703.685C709.377 742.808 714.145 738.498 714.717 732.834L721.509 665.601C722.081 659.938 726.849 655.628 732.541 655.628H761.317C767.801 655.628 772.901 661.166 772.368 667.628L765.39 752.169C764.916 757.92 760.11 762.345 754.34 762.345H659.823Z" fill="#91D6FF"/>
<path fill-rule="evenodd" clip-rule="evenodd" d="M761.733 655.649C761.84 656.437 761.864 657.25 761.796 658.078L754.824 742.321C754.348 748.071 749.543 752.494 743.773 752.494H650.056C650.055 752.431 650.054 752.367 650.054 752.303C650.054 746.922 654.416 742.56 659.797 742.56H703.533C709.224 742.56 713.99 738.252 714.564 732.59L721.351 665.598C721.925 659.936 726.692 655.628 732.383 655.628H761.035C761.27 655.628 761.502 655.635 761.733 655.649Z" fill="#BFE7FF"/>
<path fill-rule="evenodd" clip-rule="evenodd" d="M732.374 639.524C745.925 636.585 746.818 619.258 736.515 613.248C747.14 592.501 722.57 571.902 705.741 584.606C694.707 580.206 685.538 597.374 695.805 610.707C691.5 633.6 700.261 639.518 716.054 639.77L732.374 639.524Z" fill="#422851"/>
<path fill-rule="evenodd" clip-rule="evenodd" d="M732.206 635.386C732.206 635.386 725.614 633.945 725.385 623.883C725.157 613.822 725.317 610.387 725.317 610.387L710.798 610.143C710.798 610.143 710.639 621.357 710.637 625.412C710.631 636.306 702.483 635.386 702.483 635.386C702.483 635.386 704.176 644.219 717.333 644.908C727.605 645.447 732.206 635.386 732.206 635.386Z" fill="url(#paint0_linear_4_4)"/>
<path fill-rule="evenodd" clip-rule="evenodd" d="M728.702 605.363C735.179 605.13 734.123 613.963 727.394 613.951C727.394 613.951 723.486 626.498 709.918 626.498C698.898 626.498 698.182 611.874 698.082 608.956C697.974 605.846 697.96 595.626 697.96 595.626L728.954 595.613L728.702 605.363Z" fill="url(#paint1_linear_4_4)"/>
<path d="M712.534 618.069C712.534 618.069 709.302 620.618 705.559 618.231" stroke="#F77B7B" stroke-width="1.5" stroke-linecap="round"/>
<path d="M710.4 621.021C709.395 621.453 708.427 621.484 707.562 621.054" stroke="#F49494" stroke-linecap="round"/>
<path d="M728.042 610.113C727.975 608.697 728.439 607.571 729.99 607.345" stroke="#F77B7B" stroke-linecap="round"/>
<path fill-rule="evenodd" clip-rule="evenodd" d="M729.727 604.272C729.727 604.272 726.176 608.709 725.457 608.733C724.738 608.757 724.486 602.962 724.486 602.962C720.131 602.652 709.11 600.607 706.408 595.844C704.518 600.047 700.906 601.913 698.533 601.555L698.084 610.483L696.976 592.533H730.595L729.727 604.272Z" fill="#422851"/>
<path fill-rule="evenodd" clip-rule="evenodd" d="M665.865 812.816C665.865 812.816 671.676 823.748 666.912 827.193C662.141 830.639 649.54 837.097 649.54 837.097L682.926 835.142L675.504 811.298L665.865 812.816Z" fill="url(#paint2_linear_4_4)"/>
<path fill-rule="evenodd" clip-rule="evenodd" d="M679.696 823.22C678.049 823.399 679.808 828.566 676.241 828.959C672.681 829.352 670.95 824.456 666.91 826.008C662.87 827.56 648.136 835.584 647.556 838.865C646.968 842.144 652.458 843.109 659.987 842.369C667.515 841.628 668.903 839.133 674.555 840.138C680.199 841.142 684.428 839.541 684.242 835.699C684.055 831.858 681.344 823.041 679.696 823.22Z" fill="#222D4E"/>
<path fill-rule="evenodd" clip-rule="evenodd" d="M665.068 826.804L665.796 827.822C666.151 828.317 665.984 829.011 665.444 829.292L655.382 834.523C655.105 834.667 654.776 834.673 654.493 834.539L652.868 833.771C655.296 832.133 657.282 830.902 659.476 829.693C661.161 828.765 663.026 827.809 665.068 826.804Z" fill="white" fill-opacity="0.540975"/>
<path fill-rule="evenodd" clip-rule="evenodd" d="M716.157 716.457C706.05 716.878 649.795 728.468 639.575 730.437C629.354 732.406 620.713 743.061 628.507 755.399C637.26 769.249 659.846 808.583 665.33 817.45C668.044 821.839 681.736 819.378 678.52 812.012C672.524 798.28 669.74 763.785 654.453 751.207C654.453 751.207 705.861 759.542 728.067 749.995C744.206 743.055 740.555 715.441 716.157 716.457Z" fill="url(#paint3_linear_4_4)"/>
<path fill-rule="evenodd" clip-rule="evenodd" d="M644.542 660.781C644.542 660.781 644.656 653.12 641.78 649.116C638.903 645.113 638.789 640.86 636.611 640.999C634.434 641.138 636.59 651.023 636.59 651.023C636.59 651.023 633.827 650.04 631.843 648.797C629.858 647.553 623.841 641.423 622.435 642.509C620.05 644.36 623.891 654.801 625.982 656.889C628.081 658.977 639.545 665.843 639.545 665.843L644.542 660.781Z" fill="url(#paint4_linear_4_4)"/>
<path fill-rule="evenodd" clip-rule="evenodd" d="M706.655 656.19C701.953 666.349 693.344 685.01 689.795 690.578C685.348 697.55 678.334 700.622 670.122 695.449C661.494 690.013 637.735 668.811 637.038 664.009C636.348 659.206 642.163 653.444 647.425 656.427C652.687 659.411 674.551 676.36 674.551 676.36C674.551 676.36 683.374 655.29 690.473 643.084C696.62 632.524 713.812 640.747 706.655 656.19Z" fill="#6A5EE3"/>
<path fill-rule="evenodd" clip-rule="evenodd" d="M674.459 676.371C674.459 676.371 672.09 683.859 671.536 683.425C670.981 682.992 671.959 674.414 671.959 674.414L674.459 676.371Z" fill="black" fill-opacity="0.302803"/>
<path fill-rule="evenodd" clip-rule="evenodd" d="M753.643 643.95C753.643 643.95 742.313 679.292 741.977 685.982C741.641 692.672 751.244 712.335 749.609 717.305C745.839 728.79 697.712 733.736 695.874 718.286C695.016 711.08 696.801 704.613 694.744 696.123C692.695 687.633 684.459 675.016 689.131 663.155C693.802 651.293 692.551 640.319 695.892 638.245C699.233 636.17 707.044 633.968 707.044 633.968C710.842 639.174 723.664 639.099 729.783 633.6C729.783 633.6 744.983 636.347 753.643 643.95Z" fill="#7367F0"/>
<path fill-rule="evenodd" clip-rule="evenodd" d="M743.489 649.674C735.937 660.839 735.96 680.279 731.903 682.825C727.847 685.37 712.06 682.872 712.06 684.888C712.06 686.904 733.877 705.382 730.295 714.215C728.42 718.84 728.929 722.978 731.821 726.628L732.766 726.436C741.362 724.627 748.273 721.377 749.609 717.305C751.244 712.335 740.534 692.672 740.869 685.982C741.154 680.303 750.16 653.978 752.875 646.151C750.664 642.517 747.536 643.692 743.489 649.674Z" fill="black" fill-opacity="0.199355"/>
<path fill-rule="evenodd" clip-rule="evenodd" d="M730.611 679.296C730.611 679.296 721.067 671.427 718.146 670.514C715.224 669.601 698.114 668.504 698.222 670.568C698.345 672.778 707.535 672.651 708.487 673.739C709.439 674.825 709.656 682.258 713.255 683.093C716.847 683.927 727.617 685.366 727.617 685.366L730.611 679.296Z" fill="url(#paint5_linear_4_4)"/>
<path fill-rule="evenodd" clip-rule="evenodd" d="M756 645.981C766.055 659.2 774.639 679.336 777.934 687.186C781.229 695.036 777.905 706.877 763.416 704.552C748.953 702.234 725.94 689.636 723.394 685.961C720.848 682.286 724.716 675.599 729.587 676.475C734.1 677.285 756.485 686.151 756.485 686.151C756.485 686.151 742.084 662.373 738.567 655.998C732.693 645.353 747.144 634.334 756 645.981Z" fill="#6A5EE3"/>
<path fill-rule="evenodd" clip-rule="evenodd" d="M756.257 685.988C756.257 685.988 763.799 689.479 762.88 688.015C761.96 686.551 753.378 681.408 753.378 681.408L756.257 685.988Z" fill="black" fill-opacity="0.302803"/>
<path fill-rule="evenodd" clip-rule="evenodd" d="M386.654 808.992C386.654 808.992 386.503 818.001 392.442 821.202C398.38 824.402 407.581 830.349 407.581 830.349L372.58 831.454L373.578 808.911L386.654 808.992Z" fill="#F8CFCF"/>
<path fill-rule="evenodd" clip-rule="evenodd" d="M371.357 818.92L370.788 833.536H378.918L379.475 831.653C379.475 831.653 382.536 831.537 384.305 832.35C386.174 833.21 386.426 833.627 386.426 833.627L412.213 833.678C412.213 833.678 413.485 828.954 405.625 825.537C397.764 822.119 392.04 817.268 390.953 816.772C389.858 816.272 387.649 815.989 386.093 817.165C384.537 818.339 383.306 821.428 379.78 821.525C375.242 821.65 372.635 816.448 371.357 818.92Z" fill="#4B4B4B"/>
<path d="M393.396 818.357L390.723 820.765" stroke="white" stroke-width="2" stroke-linecap="round"/>
<path d="M397.294 820.182L394.621 822.59" stroke="white" stroke-width="2" stroke-linecap="round"/>
<path d="M401.193 822.007L398.519 824.415" stroke="white" stroke-width="2" stroke-linecap="round"/>
<path fill-rule="evenodd" clip-rule="evenodd" d="M361.036 614.35C361.036 614.35 370.76 714.031 371.062 720.961C371.364 727.89 367.939 739.849 368.005 752.81C368.072 765.772 369.257 811.454 369.257 811.454L390.707 811.877C390.707 811.877 399.722 729.326 399.82 716.947C399.916 704.568 400.743 615.542 400.743 615.542L361.036 614.35Z" fill="#383838"/>
<path opacity="0.283552" fill-rule="evenodd" clip-rule="evenodd" d="M376.497 724.064L376.521 724.31C376.844 728.536 374.025 742.439 368.064 766.019L368.005 752.81C367.94 740.08 371.243 728.318 371.075 721.337L371.062 720.961C370.96 718.626 369.788 705.757 368.279 689.719L368.983 692.068C373.119 705.981 375.624 716.646 376.497 724.064Z" fill="white" fill-opacity="0.192499"/>
<path fill-rule="evenodd" clip-rule="evenodd" d="M334.905 807.722L330.768 831.053L346.018 830.982L346.5 807.356L334.905 807.722Z" fill="#F8CFCF"/>
<path fill-rule="evenodd" clip-rule="evenodd" d="M333.045 817.857C331.684 818.132 330.69 819.304 330.641 820.692L330.516 824.211C328.361 826.436 327.342 832.858 327.232 833.586C327.225 833.632 327.221 833.677 327.226 833.724C327.553 836.874 349.706 836.835 351.805 833.875C351.902 833.738 351.91 833.571 351.88 833.407C351.643 832.075 350.404 825.734 348.026 824.001L348.012 820.527C348.007 819.155 347.071 817.962 345.739 817.629L343.251 817.007C341.022 813.98 337.984 814.087 335.381 817.386L333.045 817.857Z" fill="#4B4B4B"/>
<path d="M336.247 819.907H342.42" stroke="white" stroke-width="2" stroke-linecap="round"/>
<path d="M336.247 822.643H342.42" stroke="white" stroke-width="2" stroke-linecap="round"/>
<path d="M337.228 825.378H341.439" stroke="white" stroke-width="2" stroke-linecap="round"/>
<path fill-rule="evenodd" clip-rule="evenodd" d="M342.596 615.658C342.596 615.658 335.782 683.988 335.874 697.073C335.967 710.158 337.971 715.905 335.119 725.292C332.266 734.679 329.833 809.604 329.833 809.604L350.929 811.753C350.929 811.753 364.407 731.579 365.873 720.464C367.338 709.348 385.452 614.715 385.452 614.715L342.596 615.658Z" fill="#2E2E2E"/>
<path opacity="0.283552" fill-rule="evenodd" clip-rule="evenodd" d="M348.294 662.034L347.007 666.371C343.239 679.171 339.761 692.706 340.672 712.041L340.716 712.924C340.94 717.112 338.078 741.42 332.13 785.847L331.565 788.97C330.981 792.154 330.462 794.872 330.007 797.122L330.136 793.187C330.895 771.469 332.934 732.478 335.119 725.292C337.971 715.905 335.967 710.158 335.874 697.073C335.81 687.913 339.129 651.684 341.126 630.771L342.596 615.658L351.501 615.462L351.523 617.79C351.68 639.274 350.603 654.022 348.294 662.034Z" fill="white" fill-opacity="0.192499"/>
<path fill-rule="evenodd" clip-rule="evenodd" d="M446.389 531.16C446.389 531.16 444.628 522.123 445.261 520.292C445.802 518.711 450.915 516.43 450.915 516.43C450.915 516.43 459.807 503.496 461.753 504.813C463.336 505.88 457.122 515.416 457.122 515.416C457.122 515.416 462.788 520.89 462.709 523.337C462.63 525.784 453.461 533.444 453.461 533.444L446.389 531.16Z" fill="#F8CFCF"/>
<path fill-rule="evenodd" clip-rule="evenodd" d="M451.106 516.3C451.106 516.3 455.044 515.807 455.671 516.935C456.205 517.897 452.933 520.624 452.933 521.391C452.933 522.157 452.98 527.96 453.243 528.013C453.506 528.065 457.188 518.544 456.403 516.53C455.756 514.876 451.106 516.3 451.106 516.3Z" fill="#F28585"/>
<path fill-rule="evenodd" clip-rule="evenodd" d="M399.412 542.659C389.097 534.362 373.608 549.32 390.879 563.226C397.468 568.531 418.166 581.764 423.239 584.674C431.317 589.306 437.954 585.126 440.682 577.838C442.996 571.659 456.836 538.583 455.075 533.725C453.926 530.557 447.763 527.474 444.669 529.967C440.147 533.611 426.317 565.574 426.317 565.574C426.317 565.574 411.14 552.093 399.412 542.659Z" fill="#877BFF"/>
<path fill-rule="evenodd" clip-rule="evenodd" d="M426.317 565.574C426.317 565.574 430.847 570.689 431.174 569.908C431.501 569.127 427.582 562.553 427.582 562.553L426.317 565.574Z" fill="black" fill-opacity="0.159856"/>
<path d="M443.467 532.016C447.066 530.465 450.997 532.383 453.164 535.46" stroke="#5386BF" stroke-linecap="round"/>
<path fill-rule="evenodd" clip-rule="evenodd" d="M355.194 533.09C355.194 533.09 361.124 531.819 361.33 522.95C361.535 514.081 361.391 511.054 361.391 511.054L375.45 510.839C375.45 510.839 375.592 520.723 375.594 524.298C375.6 532.082 381.933 534.184 381.933 534.184C381.933 534.184 381.406 542.695 369.57 543.302C360.329 543.777 355.194 533.09 355.194 533.09Z" fill="#F8C5C5"/>
<path fill-rule="evenodd" clip-rule="evenodd" d="M387.975 501.493L387.661 509.875C390.318 507.025 392.112 503.492 392.644 498.96L387.975 501.493Z" fill="url(#paint6_linear_4_4)"/>
<path fill-rule="evenodd" clip-rule="evenodd" d="M360.1 506.571C354.273 506.365 355.223 514.151 361.277 514.141C361.277 514.141 367.782 526.08 377.996 526.111C382.915 526.126 384.522 522.126 385.997 519.318C387.471 516.51 388.554 512.31 388.644 509.738C388.741 506.996 388.753 497.988 388.753 497.988L359.873 497.976L360.1 506.571Z" fill="#F8CFCF"/>
<path fill-rule="evenodd" clip-rule="evenodd" d="M388.753 502.121H368.442C368.229 505.471 367.01 508.253 363.915 510.305C364.002 515.212 365.801 518.785 368.92 521.29C371.635 514.187 388.246 516.131 387.038 520.765C384.5 530.501 360.71 530.722 362.153 508.313C361.204 507.132 357.81 506.912 356.693 508.093C354.785 503.197 355.599 496.271 361.117 495.269C356.786 484.837 415.687 482.63 388.753 502.121Z" fill="#424242"/>
<path d="M375.739 520.335C375.739 520.335 378.385 522.109 381.869 520.169" stroke="#CC6969" stroke-linecap="round"/>
<path d="M361.009 511.016C361.069 509.767 360.651 508.775 359.256 508.576" stroke="#DE6767" stroke-linecap="round"/>
<path fill-rule="evenodd" clip-rule="evenodd" d="M357.801 531.609L374.579 541.741L382.144 533.561C382.144 533.561 398.081 538.153 401.037 543.522C405.304 551.269 399.683 613.338 402.133 617.084C407.355 625.065 400.412 630.544 377.428 632.557C354.444 634.57 334.054 632.922 337.754 622.271C341.455 611.619 327.174 542.104 339.764 538.275C343.698 537.078 357.801 531.609 357.801 531.609Z" fill="#7367F0"/>
<path fill-rule="evenodd" clip-rule="evenodd" d="M346.479 550.773C347.495 552.443 346.971 558.228 344.908 568.128C343.15 576.562 345.16 585.287 350.467 592.325L350.766 592.715C352.56 595.021 354.215 598.057 355.729 601.824C359.444 611.061 350.877 618.762 357.442 633.214L356.648 633.179C343.766 632.559 335.251 629.473 337.754 622.271C340.788 613.537 331.735 565.233 335.315 546.007C341.513 547.139 345.234 548.727 346.479 550.773Z" fill="black" fill-opacity="0.159856"/>
<path fill-rule="evenodd" clip-rule="evenodd" d="M357.801 531.609L372.808 540.706C370.608 543.082 369.429 545.847 368.983 548.891C363.216 544.699 357.221 538.841 355.363 532.542L357.801 531.609Z" fill="#5E54C7"/>
<path fill-rule="evenodd" clip-rule="evenodd" d="M375.765 540.469C378.302 542.064 380.327 544.888 381.974 548.099C383.95 544.409 384.707 539.536 384.707 534.339L382.228 533.428L375.765 540.469Z" fill="#5E54C7"/>
<path fill-rule="evenodd" clip-rule="evenodd" d="M372.808 540.705L373.031 540.82C373.926 541.285 375.016 541.145 375.765 540.469C381.423 559.748 385.402 580.968 386.605 602.535L380.7 611.65L373.794 603.119C374.693 580.705 374.687 558.851 372.808 540.705Z" fill="#CBC6FF"/>
<path d="M387.799 589.421C387.956 588.033 389.236 587.035 390.62 587.224L404.828 589.157C406.14 589.336 407.06 590.519 406.911 591.835L404.438 613.741C404.282 615.13 403.001 616.127 401.617 615.939L387.409 614.005C386.098 613.827 385.177 612.644 385.326 611.328L387.799 589.421Z" fill="#6182EC"/>
<path fill-rule="evenodd" clip-rule="evenodd" d="M389.428 588.97C389.59 587.538 390.943 586.531 392.359 586.79L406.959 589.456L417.067 589.298C418.54 589.275 419.687 590.536 419.522 591.998L417.052 613.876C416.911 615.121 415.857 616.077 414.602 616.096L403.933 616.263L388.93 613.523C387.671 613.293 386.813 612.137 386.957 610.863L389.428 588.97Z" fill="#96EFFA"/>
<path d="M392.006 594.1C392.111 593.177 392.977 592.525 393.891 592.681L400.799 593.858C401.626 593.998 402.193 594.754 402.099 595.588L401.807 598.178C401.703 599.1 400.836 599.752 399.922 599.597L393.014 598.42C392.188 598.279 391.62 597.523 391.714 596.689L392.006 594.1Z" fill="#74CFDB"/>
<path d="M405.87 590.153C405.919 589.714 406.316 589.393 406.756 589.436L407.505 589.509C407.945 589.552 408.261 589.943 408.212 590.382L405.375 615.512C405.325 615.951 404.929 616.272 404.489 616.229L403.739 616.156C403.3 616.113 402.983 615.722 403.033 615.283L405.87 590.153Z" fill="#EAEFFF"/>
<path d="M406.651 590.229C406.7 589.79 407.097 589.469 407.536 589.512L408.286 589.586C408.726 589.629 409.042 590.019 408.993 590.459L406.156 615.589C406.106 616.028 405.709 616.349 405.27 616.306L404.52 616.232C404.08 616.189 403.764 615.799 403.814 615.36L406.651 590.229Z" fill="#7AD2DD"/>
<path fill-rule="evenodd" clip-rule="evenodd" d="M373.133 599.264C373.133 599.264 378.228 598.317 380.313 596.802C382.398 595.288 388.713 594.218 388.713 594.218L386.693 598.153C386.693 598.153 402.17 596.809 402.536 598.222C402.903 599.634 398.427 601.17 398.427 601.17C398.427 601.17 396.219 604.984 394.082 607.195C392.06 609.288 382.014 609.038 378.492 607.733C375.449 606.605 372.14 607.169 372.14 607.169L373.133 599.264Z" fill="#F8CFCF"/>
<path fill-rule="evenodd" clip-rule="evenodd" d="M332.154 544.268C337.689 533.204 356.639 540.658 351.863 552.51C347.237 563.992 336.029 590.8 336.029 590.8C336.029 590.8 371.546 594.971 374.315 596.916C378.009 599.511 375.726 606.917 372.586 608.235C369.93 609.35 350.198 610.002 330.893 608.595C321.342 607.898 314.279 604.102 313.294 594.243C312.604 587.339 326.823 554.926 332.154 544.268Z" fill="#877BFF"/>
<path fill-rule="evenodd" clip-rule="evenodd" d="M336.042 590.793C336.042 590.793 333.09 595.984 333.934 596.09C334.778 596.196 339.067 591.173 339.067 591.173L336.042 590.793Z" fill="black" fill-opacity="0.159856"/>
<path d="M371.815 596.352C372.91 599.588 372.14 603.382 370.621 606.063" stroke="#5386BF" stroke-linecap="round"/>
<path fill-rule="evenodd" clip-rule="evenodd" d="M221.468 740.888C230.651 737.049 241.597 741.244 245.861 750.237L248.68 756.183C239.497 760.022 228.551 755.826 224.288 746.834L221.468 740.888Z" fill="#02D3AF"/>
<path fill-rule="evenodd" clip-rule="evenodd" d="M234.589 744.979C243.753 751.05 249.695 757.816 252.434 765.275C255.186 772.77 256.313 785.335 255.801 802.944C255.793 803.217 256.022 803.444 256.313 803.451C256.603 803.459 256.845 803.244 256.853 802.971C257.368 785.252 256.231 772.588 253.428 764.953C250.612 757.281 244.528 750.355 235.195 744.172C234.958 744.014 234.63 744.067 234.462 744.29C234.295 744.513 234.352 744.821 234.589 744.979Z" fill="#02B596"/>
<path fill-rule="evenodd" clip-rule="evenodd" d="M299.369 736.723C290.333 732.766 279.403 736.738 275.015 745.574L271.802 752.044C280.839 756.001 291.768 752.029 296.156 743.194L299.369 736.723Z" fill="#02D3AF"/>
<path d="M227.172 720.243C235.885 718.518 244.552 724.141 246.529 732.8L247.802 738.377C239.089 740.102 230.422 734.479 228.445 725.82L227.172 720.243Z" fill="#02D3AF"/>
<path fill-rule="evenodd" clip-rule="evenodd" d="M233.58 725.483C240.295 729.848 244.839 734.555 247.221 739.598L247.368 739.915L247.515 740.249C249.957 745.892 253.999 760.672 259.619 784.532C259.682 784.798 259.963 784.967 260.247 784.909C260.53 784.851 260.71 784.588 260.647 784.322L259.951 781.379L259.137 777.972C254.059 756.83 250.414 743.923 248.183 739.2C245.714 733.974 241.041 729.133 234.177 724.672C233.938 724.516 233.61 724.572 233.445 724.796C233.28 725.02 233.341 725.327 233.58 725.483Z" fill="#02B596"/>
<path fill-rule="evenodd" clip-rule="evenodd" d="M286.189 715.252C276.585 715.095 268.653 722.754 268.475 732.358L268.349 739.136C277.952 739.294 285.884 731.635 286.063 722.031L286.189 715.252Z" fill="#02D3AF"/>
<path fill-rule="evenodd" clip-rule="evenodd" d="M279.886 718.46C273.709 726.901 269.195 735.047 266.347 742.902C263.503 750.742 260.668 762.85 257.834 779.236C257.788 779.505 257.983 779.759 258.269 779.802C258.556 779.846 258.826 779.663 258.873 779.394L259.221 777.402L259.46 776.059C262.089 761.407 264.718 750.458 267.342 743.22C270.158 735.456 274.627 727.389 280.753 719.02C280.918 718.795 280.857 718.488 280.618 718.333C280.378 718.179 280.051 718.235 279.886 718.46Z" fill="#02B596"/>
<path fill-rule="evenodd" clip-rule="evenodd" d="M266.505 712.932C266.505 712.932 261.495 726.219 259.281 745.793C257.066 765.366 258.358 784.939 258.358 784.939L260.803 785.146C260.803 785.146 259.49 762.301 261.067 745.879C262.644 729.457 267.727 713.035 267.727 713.035L266.505 712.932Z" fill="#02B596"/>
<ellipse cx="8.0376" cy="11.5704" rx="8.0376" ry="11.5704" transform="matrix(0.9741 0.226119 -0.258683 0.965962 264.22 693.355)" fill="#C2FFF4"/>
<ellipse cx="5.59132" cy="7.54338" rx="5.59132" ry="7.54338" transform="matrix(0.9741 0.226119 -0.258683 0.965962 265.723 698.494)" fill="#02D3AF"/>
<path fill-rule="evenodd" clip-rule="evenodd" d="M268.528 713.644L273.035 700.547C273.303 699.768 272.848 698.933 272.019 698.681C271.19 698.429 270.3 698.857 270.032 699.635L265.525 712.733C265.257 713.512 265.712 714.347 266.541 714.599C267.37 714.85 268.26 714.423 268.528 713.644Z" fill="url(#paint7_linear_4_4)"/>
<path fill-rule="evenodd" clip-rule="evenodd" d="M242.117 699.766C242.117 699.766 248.591 712.493 252.991 731.743C257.391 750.994 258.303 770.585 258.303 770.585L255.895 771.029C255.895 771.029 254.636 748.182 251.224 732.003C247.812 715.825 240.913 699.987 240.913 699.987L242.117 699.766Z" fill="#02B596"/>
<ellipse cx="8.006" cy="11.6218" rx="8.006" ry="11.6218" transform="matrix(-0.947099 0.32094 0.3641 0.93136 242.191 680.073)" fill="#C2FFF4"/>
<ellipse cx="5.56934" cy="7.57687" rx="5.56934" ry="7.57687" transform="matrix(-0.947099 0.32094 0.3641 0.93136 241.274 685.331)" fill="#02D3AF"/>
<path fill-rule="evenodd" clip-rule="evenodd" d="M240.185 700.671L234.232 688.084C233.878 687.335 234.237 686.46 235.033 686.129C235.83 685.798 236.762 686.137 237.116 686.885L243.07 699.472C243.424 700.221 243.065 701.096 242.268 701.427C241.472 701.758 240.539 701.419 240.185 700.671Z" fill="url(#paint8_linear_4_4)"/>
<path fill-rule="evenodd" clip-rule="evenodd" d="M294.404 738.821C281.932 743.365 273.235 748.616 268.318 754.594C263.401 760.572 260.152 769.842 258.549 782.407C258.515 782.678 258.721 782.924 259.009 782.956C259.298 782.989 259.559 782.795 259.594 782.524C261.176 770.121 264.368 761.012 269.15 755.198C273.932 749.386 282.475 744.227 294.785 739.742C295.056 739.644 295.19 739.357 295.085 739.103C294.98 738.849 294.675 738.723 294.404 738.821Z" fill="#02B596"/>
<path fill-rule="evenodd" clip-rule="evenodd" d="M260.978 775.276C255.056 755.628 231.67 761.377 231.67 761.377C231.67 761.377 249.179 766.705 258.108 775.276H260.978Z" fill="#02B596"/>
<path fill-rule="evenodd" clip-rule="evenodd" d="M260.917 772.257C266.839 752.609 286.578 755.483 286.578 755.483C286.578 755.483 274.59 764.657 263.787 772.257H260.917Z" fill="#02B596"/>
<path fill-rule="evenodd" clip-rule="evenodd" d="M260.874 776.163C255.58 758.732 267.929 743.728 267.929 743.728C267.929 743.728 267.303 764.371 263.011 774.89L260.874 776.163Z" fill="#02B596"/>
<path fill-rule="evenodd" clip-rule="evenodd" d="M255.694 772.257C253.353 765.959 251.025 757.163 249.28 748.635C257.904 751.864 260.674 764.729 257.904 772.257H255.694Z" fill="#02D3AF"/>
<path fill-rule="evenodd" clip-rule="evenodd" d="M238.857 768.146C238.746 766.964 239.677 765.942 240.865 765.942H275.375C276.562 765.942 277.493 766.964 277.382 768.146L270.807 838.193C270.71 839.229 269.84 840.021 268.8 840.021H247.439C246.399 840.021 245.529 839.229 245.432 838.193L238.857 768.146Z" fill="#7569EC"/>
<mask id="mask1_4_4" style="mask-type:luminance" maskUnits="userSpaceOnUse" x="238" y="765" width="40" height="76">
<path fill-rule="evenodd" clip-rule="evenodd" d="M238.857 768.146C238.746 766.964 239.677 765.942 240.865 765.942H275.375C276.562 765.942 277.493 766.964 277.382 768.146L270.807 838.193C270.71 839.229 269.84 840.021 268.8 840.021H247.439C246.399 840.021 245.529 839.229 245.432 838.193L238.857 768.146Z" fill="white"/>
</mask>
<g mask="url(#mask1_4_4)">
<path fill-rule="evenodd" clip-rule="evenodd" d="M233.739 761.317H248.119C239.208 792.813 266.033 814.467 248.119 845.963H233.739V761.317Z" fill="#8175FF"/>
</g>
<path fill-rule="evenodd" clip-rule="evenodd" d="M880.645 747.647L867.933 841.152L874.598 841.07L887.309 748.523L880.645 747.647Z" fill="#91D6FF"/>
<path fill-rule="evenodd" clip-rule="evenodd" d="M843.654 747.647L830.942 841.152L837.606 841.07L850.318 748.523L843.654 747.647Z" fill="#91D6FF"/>
<path fill-rule="evenodd" clip-rule="evenodd" d="M924.8 747.647L937.512 841.152L930.847 841.07L918.135 748.523L924.8 747.647Z" fill="#BFE7FF"/>
<path fill-rule="evenodd" clip-rule="evenodd" d="M838.068 762.345C832.673 762.345 828.3 757.972 828.3 752.577C828.3 747.181 832.673 742.808 838.068 742.808H881.93C887.623 742.808 892.39 738.498 892.962 732.834L899.755 665.601C900.327 659.938 905.094 655.628 910.786 655.628H939.563C946.046 655.628 951.146 661.166 950.613 667.628L943.636 752.169C943.161 757.92 938.356 762.345 932.586 762.345H838.068Z" fill="#91D6FF"/>
<path fill-rule="evenodd" clip-rule="evenodd" d="M939.978 655.649C940.086 656.437 940.11 657.25 940.041 658.078L933.069 742.321C932.593 748.071 927.788 752.494 922.019 752.494H828.301C828.3 752.431 828.3 752.367 828.3 752.303C828.3 746.922 832.662 742.56 838.043 742.56H881.778C887.469 742.56 892.236 738.252 892.81 732.59L899.597 665.598C900.171 659.936 904.937 655.628 910.628 655.628H939.281C939.515 655.628 939.748 655.635 939.978 655.649Z" fill="#BFE7FF"/>
<path fill-rule="evenodd" clip-rule="evenodd" d="M841.056 811.288C841.056 811.288 846.884 822.247 842.107 825.7C837.322 829.154 824.684 835.626 824.684 835.626L858.166 833.667L850.724 809.768L841.056 811.288Z" fill="url(#paint9_linear_4_4)"/>
<path fill-rule="evenodd" clip-rule="evenodd" d="M854.849 821.204C853.796 821.673 855.528 826.076 851.821 825.766C848.115 825.458 845.788 820.906 843.055 821.202C840.321 821.497 838.586 826.08 833.382 829.272C828.179 832.465 820.464 836.273 820.981 839.483C821.498 842.692 833.638 843.552 839.789 842.489C845.94 841.428 848.811 839.126 852.801 839.309C856.791 839.492 859.299 839.038 860.55 836.652C861.8 834.267 856.065 820.664 854.849 821.204Z" fill="#EEDFE8"/>
<path fill-rule="evenodd" clip-rule="evenodd" d="M854.553 835.854L854.212 835.836C849.267 835.448 845.874 838.344 841.167 839.16C836.459 839.977 824.044 840.26 822.062 837.518C821.968 837.388 821.88 837.255 821.8 837.12C821.134 837.883 820.82 838.698 820.981 839.649C821.498 842.703 833.639 843.522 839.79 842.51C845.942 841.5 848.813 839.309 852.804 839.484L853.513 839.508C857.094 839.599 859.378 839.088 860.553 836.955C860.839 836.436 860.775 835.318 860.488 833.906C858.819 834.969 856.712 835.916 854.553 835.854Z" fill="#EC7AA5"/>
<path fill-rule="evenodd" clip-rule="evenodd" d="M891.493 714.706C881.357 715.127 824.94 726.745 814.69 728.718C804.441 730.692 795.775 741.372 803.591 753.739C812.37 767.621 835.02 807.047 840.519 815.934C843.241 820.333 856.973 817.867 853.748 810.483C847.735 796.72 844.942 762.144 829.612 749.537C829.612 749.537 881.168 757.891 903.437 748.322C919.623 741.366 915.961 713.687 891.493 714.706Z" fill="#413C75"/>
<path fill-rule="evenodd" clip-rule="evenodd" d="M820.783 655.797C820.783 655.797 820.898 650.187 818.013 646.174C815.128 642.161 815.013 637.898 812.83 638.038C810.646 638.177 812.808 648.085 812.808 648.085C812.808 648.085 810.038 647.1 808.048 645.854C806.057 644.607 800.023 638.462 798.612 639.551C796.221 641.407 800.073 651.872 802.17 653.964C804.275 656.057 814.661 661.905 814.661 661.905L845.249 690.595L849.822 675.364L820.783 655.797Z" fill="url(#paint10_linear_4_4)"/>
<path fill-rule="evenodd" clip-rule="evenodd" d="M881.964 653.264C877.248 663.447 868.615 682.151 865.055 687.732C860.595 694.721 853.561 697.8 845.326 692.614C843.603 691.53 838.655 687.735 838.655 687.735C839.387 681.093 842.053 675.541 846.647 671.078L849.767 673.481C849.767 673.481 858.616 652.362 865.735 640.127C871.9 629.543 889.141 637.785 881.964 653.264Z" fill="#EA5455"/>
<path fill-rule="evenodd" clip-rule="evenodd" d="M849.676 673.492C849.676 673.492 847.299 680.997 846.743 680.563C846.188 680.128 847.168 671.53 847.168 671.53L849.676 673.492Z" fill="black" fill-opacity="0.159856"/>
<path fill-rule="evenodd" clip-rule="evenodd" d="M902.342 613.741V622.751L909.449 617.424C909.449 617.424 911.633 608.792 913.409 602.38C914.523 598.36 917.238 584.753 906.311 585.391C897.36 570.7 871.292 579.793 871.085 597.74C870.835 619.326 871.039 627.73 871.039 627.73C885.78 628.518 894.077 626.533 902.342 613.741Z" fill="#422851"/>
<path fill-rule="evenodd" clip-rule="evenodd" d="M909.602 630.895C909.602 630.895 902.992 629.451 902.762 619.366C902.533 609.281 902.694 605.838 902.694 605.838L888.133 605.594C888.133 605.594 887.974 616.833 887.972 620.899C887.965 630.783 880.158 631.594 880.158 631.594C880.158 631.594 881.492 639.749 894.687 640.44C904.989 640.98 909.602 630.895 909.602 630.895Z" fill="url(#paint11_linear_4_4)"/>
<path fill-rule="evenodd" clip-rule="evenodd" d="M906.088 600.803C912.584 600.568 911.525 609.422 904.777 609.41C904.777 609.41 900.857 621.987 887.25 621.987C876.199 621.987 875.48 607.328 875.38 604.404C875.272 601.286 875.259 591.043 875.259 591.043L906.341 591.029L906.088 600.803Z" fill="url(#paint12_linear_4_4)"/>
<path fill-rule="evenodd" clip-rule="evenodd" d="M906.591 600.744C903.899 601.158 904.226 602.817 903.494 602.672C899.777 601.936 884.731 602.907 882.793 595.204C880.383 600.016 879.794 601.199 874.486 602.491V588.389L908.058 585.391C908.058 585.391 907.537 600.598 906.591 600.744Z" fill="#422851"/>
<path d="M889.874 613.538C889.874 613.538 886.632 616.093 882.879 613.7" stroke="#F77B7B" stroke-width="1.5" stroke-linecap="round"/>
<path d="M887.734 616.497C886.726 616.93 885.755 616.961 884.888 616.529" stroke="#F49494" stroke-linecap="round"/>
<path d="M905.426 605.564C905.359 604.144 905.825 603.016 907.381 602.789" stroke="#F77B7B" stroke-linecap="round"/>
<path fill-rule="evenodd" clip-rule="evenodd" d="M908.126 629.864C899.829 634.595 890.239 636.329 881.31 631.192C866.74 657.939 863.109 689.853 866.614 725.126C887.86 732.957 905.716 731.417 920.918 722.466L908.126 629.864Z" fill="#FFE4F4"/>
<path fill-rule="evenodd" clip-rule="evenodd" d="M804.738 811.728C804.738 811.728 804.913 824.626 793.498 829.449C782.09 834.27 773.962 833.98 774.997 837.708C776.031 841.435 805.725 841.285 808.498 838.369C810.862 835.889 816.001 812.795 817.416 814.561L804.738 811.728Z" fill="url(#paint13_linear_4_4)"/>
<path fill-rule="evenodd" clip-rule="evenodd" d="M813.029 829.943C811.28 828.771 809.809 835.53 805.057 833.65C800.305 831.771 804.052 825.559 801.062 824.414C798.071 823.268 792.297 829.428 784.627 830.925C776.958 832.421 770.731 833.731 768.961 836.51C767.437 838.899 768.961 839.663 768.961 839.663C768.961 839.663 776.344 843.095 780.932 843.851C787.597 844.949 806.859 845.679 808.97 843.678C810.266 842.451 813.904 830.53 813.029 829.943Z" fill="#EEDFE8"/>
<path fill-rule="evenodd" clip-rule="evenodd" d="M768.545 836.791C767.099 838.987 769.381 840.129 769.654 840.255L770.754 840.692C772.843 841.5 777.555 843.234 781.038 843.853C787.423 844.99 807.196 845.663 809.323 843.709C809.697 843.366 810.158 842.112 810.605 840.481L809.249 840.619C802.719 841.263 788.143 842.429 780.95 840.851C774.565 839.45 771.07 837.147 769.476 835.802C769.089 836.112 768.776 836.44 768.545 836.791Z" fill="#EC7AA5"/>
<path fill-rule="evenodd" clip-rule="evenodd" d="M923.253 710.719C923.253 710.719 937.99 739.694 917.28 749.643C897.253 759.265 837.296 747.885 837.296 747.885C837.296 747.885 838.368 755.916 837.296 763.078C834.498 781.785 821.19 812.952 818.375 816.868C814.481 822.283 802.62 818.199 802.397 813.69C802.174 809.18 811.338 751.589 812.732 740.607C814.118 729.624 818.496 728.029 831.281 725.026C834.218 724.337 868.951 716.3 872.133 716.534C899.473 718.547 923.253 710.719 923.253 710.719Z" fill="#524D87"/>
<path fill-rule="evenodd" clip-rule="evenodd" d="M907.099 746.653C887.271 748.722 834.777 744.458 832.668 746.395C830.655 748.245 830.991 780.427 826.476 799.053L827.163 797.294C831.409 786.313 835.818 772.958 837.296 763.078C838.368 755.916 837.296 747.885 837.296 747.885L839.714 748.321C851.111 750.314 899.656 758.111 917.28 749.643C926.83 745.055 930.727 737.433 928.971 726.777C925.948 738.822 918.657 745.447 907.099 746.653Z" fill="white" fill-opacity="0.056108"/>
<path fill-rule="evenodd" clip-rule="evenodd" d="M907.763 629.885C894.023 671.79 885.783 731.2 928.695 720.864C905.9 681.789 936.888 664.203 929.864 644.008C927.463 637.104 907.942 629.344 907.763 629.885Z" fill="#EA5455"/>
<path fill-rule="evenodd" clip-rule="evenodd" d="M923.26 647.286C907.731 649.468 920.532 674.712 915.406 678.515C910.28 682.318 901.358 682.728 900.396 685.051C898.462 689.721 907.809 701.508 928.436 720.414L928.695 720.864C908.838 686.827 929.792 669.094 930.882 651.74C928.581 648.38 926.04 646.896 923.26 647.286Z" fill="black" fill-opacity="0.159856"/>
<path fill-rule="evenodd" clip-rule="evenodd" d="M882.038 630.898C876.794 643.142 874.274 652.749 871.922 670.721C869.961 685.689 870.943 716.576 870.943 716.576L864.463 717.762C864.463 717.762 859.831 670.043 861.38 663.898C863.979 653.588 865.74 647.564 869.171 638.138C871.062 632.965 882.038 630.898 882.038 630.898Z" fill="#EA5455"/>
<path fill-rule="evenodd" clip-rule="evenodd" d="M904.877 677.458C904.877 677.458 896.417 669.571 893.487 668.656C890.558 667.741 874.509 666.641 874.617 668.709C874.74 670.925 885.068 670.798 886.023 671.888C886.978 672.977 888.305 681.461 891.915 682.298C895.518 683.134 902.986 685.61 902.986 685.61L936.228 701.602L932.687 685.612L904.877 677.458Z" fill="url(#paint14_linear_4_4)"/>
<path fill-rule="evenodd" clip-rule="evenodd" d="M930.34 644.066C940.423 657.315 949.032 677.498 952.337 685.366C955.641 693.235 952.308 705.103 937.777 702.773C936.047 702.496 933.232 701.476 933.232 701.476C927.889 694.657 926.952 688.803 928.946 683.591L930.826 684.329C930.826 684.329 916.383 660.495 912.857 654.106C906.966 643.436 921.458 632.392 930.34 644.066Z" fill="#EA5455"/>
<path fill-rule="evenodd" clip-rule="evenodd" d="M930.826 684.329C930.826 684.329 938.161 687.665 937.239 686.198C936.316 684.73 928.031 679.696 928.031 679.696L930.826 684.329Z" fill="black" fill-opacity="0.159856"/>
<path fill-rule="evenodd" clip-rule="evenodd" d="M777.554 640.16C777.202 638.845 777.991 637.53 779.317 637.223L805.9 631.052C807.226 630.744 808.586 631.56 808.938 632.875L818.454 668.411C818.806 669.726 818.017 671.041 816.691 671.348L790.108 677.519C788.783 677.827 787.423 677.011 787.071 675.696L777.554 640.16Z" fill="url(#paint15_linear_4_4)"/>
<path fill-rule="evenodd" clip-rule="evenodd" d="M778.571 640.73C778.219 639.415 779.008 638.1 780.334 637.792L806.917 631.622C808.243 631.314 809.603 632.13 809.955 633.445L819.471 668.981C819.823 670.295 819.034 671.61 817.708 671.918L791.125 678.089C789.8 678.396 788.44 677.58 788.088 676.266L778.571 640.73Z" fill="#518DF8"/>
<path d="M779.685 641.05C779.369 639.867 780.079 638.683 781.272 638.406L806.252 632.608C807.445 632.331 808.669 633.065 808.985 634.248L817.589 666.377C817.906 667.56 817.196 668.743 816.003 669.02L791.023 674.819C789.83 675.096 788.606 674.361 788.289 673.178L779.685 641.05Z" fill="white"/>
<path fill-rule="evenodd" clip-rule="evenodd" d="M552.334 691.786H565.016V841.629H552.334L552.334 691.786Z" fill="#E9E9E9"/>
<path fill-rule="evenodd" clip-rule="evenodd" d="M428.105 696.712L528.294 696.712V724.542H444.799V841.629H428.105V696.712Z" fill="#D3D3D3"/>
<path fill-rule="evenodd" clip-rule="evenodd" d="M427.457 696.712H436.344V841.629H427.457L427.457 696.712Z" fill="#DBDBDB"/>
<path fill-rule="evenodd" clip-rule="evenodd" d="M863.63 696.712H881.404V841.629H863.63V696.712Z" fill="#E9E9E9"/>
<path fill-rule="evenodd" clip-rule="evenodd" d="M863.63 691.786H874.739V841.629H863.63L863.63 691.786Z" fill="#DBDBDB"/>
<path fill-rule="evenodd" clip-rule="evenodd" d="M716.524 696.712H870.936V724.178H737.306V841.629H716.524V696.712Z" fill="#D3D3D3"/>
<path fill-rule="evenodd" clip-rule="evenodd" d="M440.563 691.786L717.049 691.786V733.395H440.563L440.563 691.786Z" fill="#DBDBDB"/>
<path fill-rule="evenodd" clip-rule="evenodd" d="M710.708 696.712H723.391V733.395H710.708V696.712Z" fill="#E9E9E9"/>
<path fill-rule="evenodd" clip-rule="evenodd" d="M716.563 696.712H726.561V841.629H716.563V696.712Z" fill="#DBDBDB"/>
<path fill-rule="evenodd" clip-rule="evenodd" d="M718.156 699.175C718.156 695.094 721.464 691.786 725.545 691.786L887.856 691.786C891.937 691.786 895.244 695.094 895.244 699.175C895.244 703.255 891.937 706.563 887.856 706.563H725.545C721.464 706.563 718.156 703.255 718.156 699.175Z" fill="#E9E9E9"/>
<path fill-rule="evenodd" clip-rule="evenodd" d="M437.392 694.742H713.879V709.518H437.392V694.742Z" fill="#E9E9E9"/>
<path fill-rule="evenodd" clip-rule="evenodd" d="M414.141 699.175C414.141 695.094 417.449 691.786 421.529 691.786H729.742C733.822 691.786 737.13 695.094 737.13 699.175C737.13 703.255 733.822 706.563 729.742 706.563H421.529C417.449 706.563 414.141 703.255 414.141 699.175Z" fill="#DBDBDB"/>
<path fill-rule="evenodd" clip-rule="evenodd" d="M463.667 804.841L454.894 831.362L473.298 831.984C473.298 831.984 471.22 822.911 474.187 814.407C476.566 807.58 478.509 804.172 478.509 804.172L463.667 804.841Z" fill="#92691F"/>
<path fill-rule="evenodd" clip-rule="evenodd" d="M472.816 824.695C472.816 824.695 479.841 830.756 486.595 833.002C493.35 835.248 495.936 835.272 496.418 836.117L496.505 836.278C497.895 838.949 497.052 842.496 481.654 842.693C477.911 842.74 474.02 840.716 463.691 838.575L462.945 842.318C457.164 842.247 453.791 841.399 452.826 839.773C451.371 837.341 453.843 825.35 455.549 825.123C457.255 824.896 457.592 829.772 462.172 829.879C466.759 829.986 472.816 824.695 472.816 824.695Z" fill="#391B0B"/>
<path fill-rule="evenodd" clip-rule="evenodd" d="M486.415 832.941C486.206 833.11 485.953 833.289 485.656 833.459C484.636 834.042 483.1 834.505 481.033 834.065C479.984 833.842 478.811 833.216 477.654 832.424C476.493 831.629 475.328 830.651 474.292 829.705C473.256 828.758 472.346 827.838 471.695 827.155C471.37 826.814 471.109 826.531 470.929 826.334C470.896 826.298 470.866 826.265 470.839 826.235C470.98 826.133 471.116 826.034 471.245 825.938C471.262 825.957 471.28 825.977 471.299 825.997C471.476 826.192 471.734 826.472 472.057 826.81C472.702 827.487 473.604 828.399 474.629 829.336C475.655 830.274 476.802 831.234 477.937 832.011C479.077 832.792 480.185 833.374 481.137 833.576C483.072 833.988 484.483 833.553 485.408 833.025C485.571 832.932 485.719 832.836 485.853 832.74C486.04 832.81 486.227 832.877 486.415 832.941Z" fill="#81411E"/>
<path fill-rule="evenodd" clip-rule="evenodd" d="M421.724 721.823C421.724 721.823 494.812 727.264 504.882 727.555C514.952 727.845 522.646 741.227 514.848 753.579C506.089 767.445 482.293 807.365 477.641 816.595C473.706 824.398 455.823 821.2 459.042 809.28C462.883 795.014 470.044 763.007 485.339 750.415C485.339 750.415 448.139 762.972 427.186 750.794C415.232 743.846 421.724 721.823 421.724 721.823Z" fill="#7A3636"/>
<path fill-rule="evenodd" clip-rule="evenodd" d="M514.848 753.579L513.709 755.398C509.276 762.53 502.119 774.58 495.285 786.317L495.645 785.241C500.929 769.584 509.14 751.139 512.651 745.512C513.881 743.539 515.556 741.528 517.677 739.48C518.576 743.777 517.892 748.756 514.848 753.579Z" fill="white" fill-opacity="0.192499"/>
<path fill-rule="evenodd" clip-rule="evenodd" d="M543.205 805.15C543.205 805.15 548.091 825.378 554.45 827.543C556.899 828.376 535.686 830.756 535.686 830.756L530.36 811.349L543.205 805.15Z" fill="#92691F"/>
<path fill-rule="evenodd" clip-rule="evenodd" d="M532.622 823.923L532.267 841L539.579 841.051L539.654 837.212C539.654 837.212 545.353 840.394 549.212 841.513C554.402 843.022 574.907 842.231 577.224 839.932C579.541 837.623 579.591 833.948 574.834 833.496C570.078 833.045 562.213 831.7 558.827 829.288C554.732 826.38 553.174 821.767 551.984 821.763C550.162 821.757 550.021 827.184 540.78 827.261C537.262 827.29 532.622 823.923 532.622 823.923Z" fill="#391B0B"/>
<path fill-rule="evenodd" clip-rule="evenodd" d="M550.092 823.286C550.092 823.286 554.807 830.137 557.611 831.129C560.414 832.111 562.674 831.009 562.674 831.009C562.674 831.009 557.84 829.215 555.972 826.085C551.743 818.996 550.897 822.603 550.092 823.286Z" fill="#81411E"/>
<path fill-rule="evenodd" clip-rule="evenodd" d="M427.771 727.32C427.771 727.32 427.669 749.06 443.359 754.525C459.048 759.989 510.137 757.933 510.137 757.933C510.137 757.933 526.35 813.471 530.235 818.88C534.12 824.29 552.54 824.849 551.544 812.391C550.54 799.932 543.351 753.678 541.961 742.708C540.578 731.738 536.21 729.112 523.454 727.146C518.972 726.455 520.874 725.348 492.054 724.092C485.863 723.822 475.478 725.98 465.934 726.957C456.39 727.934 427.771 727.32 427.771 727.32Z" fill="#7A3636"/>
<path fill-rule="evenodd" clip-rule="evenodd" d="M478.763 727.789L478.764 725.264L480.041 725.086C484.687 724.444 488.911 723.955 492.054 724.092L495.367 724.242C520.732 725.436 519.151 726.483 523.454 727.146L524.283 727.277C536.129 729.187 540.415 731.856 541.865 741.997L542.271 745.049C544.192 759.107 550.601 800.68 551.544 812.391C551.619 813.328 551.584 814.192 551.453 814.986L547.719 797.478C542.216 771.523 539.133 756.143 538.468 751.339L538.329 750.341C537.086 741.816 533.833 731.238 523.337 731.928L522.43 731.999C515.04 732.522 501.025 731.202 480.385 728.039L478.763 727.789Z" fill="white" fill-opacity="0.192499"/>
<ellipse cx="4.18009" cy="6.86704" rx="4.18009" ry="6.86704" transform="matrix(0.97767 0.210145 -0.240682 0.970604 551.139 737.032)" fill="white" fill-opacity="0.192499"/>
<path fill-rule="evenodd" clip-rule="evenodd" d="M439.089 698.451C439.089 698.451 456.186 702.136 456.013 703.582C455.843 705.036 448.316 705.26 448.316 705.26C448.316 705.26 462.231 713.626 461.123 715.258C460.015 716.89 450.944 718.729 447.178 717.412C443.412 716.096 433.65 706.516 433.65 706.516L439.089 698.451Z" fill="url(#paint16_linear_4_4)"/>
<path fill-rule="evenodd" clip-rule="evenodd" d="M439.244 651.29C433.517 657.87 413.99 677.97 413.99 677.97C413.99 677.97 433.517 690.919 438.434 693.658C446.498 698.147 438.298 710.057 432.385 708.734C424.371 706.937 404.145 693.945 394.641 688.688C385.137 683.43 388.773 674.942 395.805 667.196C401.206 661.246 412.949 649.057 421.211 638.356C429.431 627.71 450.357 638.521 439.244 651.29Z" fill="#EA5455"/>
<path fill-rule="evenodd" clip-rule="evenodd" d="M413.99 677.97C413.99 677.97 408.493 682.902 409.064 683.284C409.636 683.665 416.26 679.487 416.26 679.487L413.99 677.97Z" fill="black" fill-opacity="0.159856"/>
<path fill-rule="evenodd" clip-rule="evenodd" d="M473.339 602.98C478.141 603.47 477.801 611.339 471.955 611.75C470.76 619.336 466.499 622.95 461.304 623.368L461.592 634.842L438.613 634.829C438.613 634.829 445.084 626.724 444.762 615.627C444.439 604.53 444.978 594.106 444.978 594.106L474.741 594.604L473.339 602.98Z" fill="url(#paint17_linear_4_4)"/>
<path fill-rule="evenodd" clip-rule="evenodd" d="M463.939 581.578C481.643 585.738 474.339 603.312 474.339 603.312C468.99 602.633 463.842 608.676 461.89 614.603C456.246 620.004 448.935 619.995 444.074 616.848C444.074 616.848 437.385 597.588 439.573 591.174C441.761 584.761 447.803 577.786 463.939 581.578Z" fill="#2C272E"/>
<path fill-rule="evenodd" clip-rule="evenodd" d="M422.087 637.401C420.497 639.921 419.359 650.069 422.087 690.273C423.499 711.092 417.49 731.61 419.043 740.643C420.596 749.675 431.269 750.754 431.269 750.754L437.493 731.901L440.422 750.754C440.422 750.754 484.561 746.912 488.429 737.556C492.305 728.181 487.438 706.14 486.28 685.386C485.117 664.55 485.99 643.162 483.85 639.921C479.581 633.45 468.592 630.428 461.772 629.461C453.118 628.232 441.945 628.186 435.303 630.146C428.661 632.106 423.676 634.882 422.087 637.401Z" fill="#EA5455"/>
<path fill-rule="evenodd" clip-rule="evenodd" d="M466.999 651.718C470.482 675.645 475.14 692.435 480.972 702.086C483.384 706.076 485.834 707.722 488.322 707.021L487.731 701.719C487.142 696.353 486.583 690.826 486.28 685.386C486.068 681.593 485.924 677.782 485.817 674.065L466.999 651.718Z" fill="black" fill-opacity="0.159856"/>
<path fill-rule="evenodd" clip-rule="evenodd" d="M435.303 630.146C434.9 630.265 434.511 630.388 434.134 630.516C443.67 634.388 459.417 633.87 467.977 630.717C465.747 630.131 463.609 629.721 461.772 629.461C453.118 628.232 441.945 628.186 435.303 630.146Z" fill="#E5AA41"/>
<path fill-rule="evenodd" clip-rule="evenodd" d="M552.278 672.442C552.278 672.442 566.48 663.615 568.99 661.842C571.492 660.077 574.632 646.689 572.686 644.811C571.746 643.902 564.641 650.017 563.373 650.836C562.114 651.648 555.671 655.261 555.671 655.261C555.671 655.261 557.495 645.014 555.925 644.188C554.764 643.587 552.442 646.224 552.131 649.011C551.82 651.798 548.591 655.434 548.174 659.664C547.986 661.512 546.032 665.042 546.032 665.042L552.278 672.442Z" fill="url(#paint18_linear_4_4)"/>
<path fill-rule="evenodd" clip-rule="evenodd" d="M467.696 655.514C473.138 666.043 482.381 681.435 487.457 690.46C493.465 701.14 500.623 705.665 515.061 697.74C527.153 691.103 544.59 680.429 553.599 674.627C561.982 669.229 552.072 655.902 544.152 660.404C533.645 666.37 506.776 678.193 506.776 678.193C506.776 678.193 492.949 654.677 487.208 643.387C479.904 629.037 457.164 635.139 467.696 655.514Z" fill="#EA5455"/>
<path fill-rule="evenodd" clip-rule="evenodd" d="M506.776 678.193C506.776 678.193 509.304 686.484 509.901 686.156C510.498 685.828 509.482 677.004 509.482 677.004L506.776 678.193Z" fill="black" fill-opacity="0.159856"/>
<path fill-rule="evenodd" clip-rule="evenodd" d="M450.758 759.374L438.047 843.107L444.711 843.025L457.423 760.25L450.758 759.374Z" fill="#BFE7FF"/>
<path fill-rule="evenodd" clip-rule="evenodd" d="M493.152 759.374L505.864 843.107L499.199 843.025L486.488 760.25L493.152 759.374Z" fill="#91D6FF"/>
<path fill-rule="evenodd" clip-rule="evenodd" d="M412.006 759.374L399.294 843.107L405.959 843.025L418.67 760.25L412.006 759.374Z" fill="#BFE7FF"/>
<path fill-rule="evenodd" clip-rule="evenodd" d="M498.737 764.3C504.133 764.3 508.506 759.926 508.506 754.531C508.506 749.136 504.133 744.762 498.737 744.762H454.875C449.183 744.762 444.416 740.452 443.843 734.789L437.051 667.556C436.479 661.892 431.712 657.582 426.019 657.582H397.243C390.76 657.582 385.659 663.121 386.193 669.582L393.17 754.124C393.644 759.874 398.45 764.3 404.22 764.3H498.737Z" fill="#BFE7FF"/>
<path fill-rule="evenodd" clip-rule="evenodd" d="M431.264 658.816L438.337 744.276C438.813 750.025 443.618 754.449 449.387 754.449H508.504C508.506 754.385 508.506 754.322 508.506 754.258C508.506 748.877 504.144 744.515 498.763 744.515H455.028C449.337 744.515 444.57 740.206 443.996 734.544L437.209 667.552C436.819 663.708 434.497 660.488 431.264 658.816Z" fill="#91D6FF"/>
<path fill-rule="evenodd" clip-rule="evenodd" d="M746.49 690.387C746.49 689.974 746.155 689.64 745.743 689.64H652.112C651.7 689.64 651.366 689.974 651.366 690.387V691.572C651.366 691.985 651.7 692.319 652.112 692.319H745.743C746.155 692.319 746.49 691.985 746.49 691.572V690.387Z" fill="url(#paint19_linear_4_4)"/>
<path fill-rule="evenodd" clip-rule="evenodd" d="M746.498 690.387C746.498 689.974 746.164 689.64 745.752 689.64H709.675C709.263 689.64 708.929 689.974 708.929 690.387V691.572C708.929 691.985 709.263 692.319 709.675 692.319H745.752C746.164 692.319 746.498 691.985 746.498 691.572V690.387Z" fill="#518DF8"/>
<path fill-rule="evenodd" clip-rule="evenodd" d="M753.293 652.877C753.591 650.714 751.91 648.787 749.727 648.787H686.931C685.133 648.787 683.61 650.114 683.365 651.896L678.72 685.666C678.422 687.829 680.103 689.757 682.286 689.757H745.082C746.88 689.757 748.403 688.429 748.648 686.647L753.293 652.877Z" fill="#518DF8"/>
<path fill-rule="evenodd" clip-rule="evenodd" d="M751.406 652.877C751.703 650.714 750.023 648.787 747.839 648.787H686.355C684.556 648.787 683.033 650.114 682.788 651.896L678.143 685.666C677.846 687.829 679.526 689.757 681.709 689.757H743.194C744.993 689.757 746.516 688.429 746.761 686.647L751.406 652.877Z" fill="url(#paint20_linear_4_4)"/>
<path d="M749.24 654.406C749.507 652.459 747.994 650.725 746.03 650.725H687.816C686.197 650.725 684.826 651.92 684.606 653.524L680.421 683.984C680.153 685.931 681.666 687.665 683.631 687.665H741.844C743.463 687.665 744.834 686.47 745.054 684.866L749.24 654.406Z" fill="white"/>
<path fill-rule="evenodd" clip-rule="evenodd" d="M597.257 700.421C597.257 700.421 612.366 703.703 612.213 704.991C612.063 706.285 605.411 706.484 605.411 706.484C605.411 706.484 617.708 713.934 616.729 715.387C615.75 716.84 607.733 718.478 604.406 717.305C601.077 716.133 592.451 707.603 592.451 707.603L568.248 695.501L576.338 685.568L597.257 700.421Z" fill="url(#paint21_linear_4_4)"/>
<path fill-rule="evenodd" clip-rule="evenodd" d="M597.394 658.427C592.333 664.287 575.077 682.185 575.077 682.185L578.484 684.564L567.405 697.075C567.405 697.075 560.331 693.04 557.978 691.728C549.579 687.046 552.792 679.488 559.006 672.591C563.78 667.293 574.157 656.439 581.458 646.911C588.722 637.43 607.215 647.057 597.394 658.427Z" fill="#FFB66F"/>
<path fill-rule="evenodd" clip-rule="evenodd" d="M575.077 682.185C575.077 682.185 570.219 686.576 570.724 686.916C571.229 687.256 577.083 683.535 577.083 683.535L575.077 682.185Z" fill="black" fill-opacity="0.159856"/>
<path fill-rule="evenodd" clip-rule="evenodd" d="M577.797 683.255L563.358 696.564L570.578 700.963L580.496 685.154L577.797 683.255Z" fill="#FFEDC2"/>
<path fill-rule="evenodd" clip-rule="evenodd" d="M623.908 802.827L616.097 826.251L629.226 826.8C629.226 826.8 627.375 818.787 630.017 811.276C632.135 805.246 633.865 802.236 633.865 802.236L623.908 802.827Z" fill="url(#paint22_linear_4_4)"/>
<path fill-rule="evenodd" clip-rule="evenodd" d="M629.333 819.94C629.333 819.94 629.059 825.904 631.296 827.789C633.532 829.673 645.396 836.63 646.39 838.031C647.384 839.434 645.925 841.145 645.925 841.145C645.925 841.145 633.813 842.914 628.099 840.184C623.973 838.213 621.026 836.603 621.026 836.603L619.76 839.633L613.146 838.748C613.146 838.748 611.108 833.94 611.983 831.549C612.859 829.157 617.379 817.985 617.379 817.985C617.379 817.985 629.333 819.94 629.333 819.94Z" fill="#391B0B"/>
<path fill-rule="evenodd" clip-rule="evenodd" d="M585.708 722.979C595.583 723.876 644.222 734.662 654.236 736.577C664.251 738.492 672.718 748.856 665.081 760.857C656.504 774.329 632.256 816.194 632.256 816.194C632.107 816.228 631.96 816.288 631.808 816.288C626.877 816.288 622.479 815.659 618.246 812.912C618.246 812.912 624.679 769.013 639.657 756.78C639.657 756.78 600.979 769.728 581.636 755.6C570.225 747.266 574.826 721.99 585.708 722.979Z" fill="#33373E"/>
<path fill-rule="evenodd" clip-rule="evenodd" d="M661.636 739.778L658.986 770.758C659.183 770.432 659.378 770.109 659.571 769.791L662.108 740.133C661.953 740.013 661.795 739.894 661.636 739.778Z" fill="white" fill-opacity="0.192499"/>
<path fill-rule="evenodd" clip-rule="evenodd" d="M696.627 800.976C696.627 800.976 700.933 818.837 706.538 820.748C708.696 821.484 693.223 823.586 693.223 823.586L688.53 806.45L696.627 800.976Z" fill="url(#paint23_linear_4_4)"/>
<path fill-rule="evenodd" clip-rule="evenodd" d="M691.251 818.662L695.338 841.024L702.421 839.981L701.546 834.451C701.546 834.451 704.652 839.268 708.117 839.061C711.592 838.852 728.968 836.413 728.968 836.413C728.968 836.413 729.359 831.057 721.366 829.833C714.718 828.817 703.381 816.868 703.381 816.868L691.251 818.662Z" fill="#391B0B"/>
<path fill-rule="evenodd" clip-rule="evenodd" d="M593.992 720.022C593.992 720.022 579.738 748.131 599.77 757.783C619.143 767.118 670.692 755.074 670.692 755.074C670.692 755.074 669.655 762.865 670.692 769.814C673.398 787.962 686.709 810.289 687.92 813.969C688.53 815.822 703.375 813.084 703.375 810.886C703.375 808.688 695.801 758.668 694.453 748.013C693.112 737.359 688.878 735.811 676.511 732.898C673.67 732.229 636.848 724.433 633.77 724.66C607.324 726.613 593.992 720.022 593.992 720.022Z" fill="#42474F"/>
<path fill-rule="evenodd" clip-rule="evenodd" d="M633.77 724.66C636.848 724.433 673.67 732.229 676.511 732.898L678.541 733.384C689.089 735.953 692.999 737.87 694.357 747.301L694.722 750.008C695.836 757.91 698.844 776.49 701.224 791.958C698.538 786.273 696.316 779.965 694.556 773.033C690.455 756.879 691.332 743.614 690.231 741.291C689.13 738.968 635.265 731.552 626.01 730.022C621.982 729.356 619.709 727.704 619.192 725.065C623.665 725.183 628.524 725.047 633.77 724.66Z" fill="white" fill-opacity="0.192499"/>
<path fill-rule="evenodd" clip-rule="evenodd" d="M626.761 612.155C631.04 612.591 630.736 619.604 625.527 619.97C624.463 626.73 620.666 629.951 616.037 630.324L616.293 640.549L595.817 640.537C595.817 640.537 601.583 633.314 601.296 623.425C601.009 613.536 601.489 604.246 601.489 604.246L628.01 604.69L626.761 612.155Z" fill="url(#paint24_linear_4_4)"/>
<path fill-rule="evenodd" clip-rule="evenodd" d="M627.692 612.68C622.708 610.843 619.026 618.753 615.213 624.251C611.4 629.749 601.52 628.814 600.158 624.251C595.003 614.255 590.56 600.666 596.576 599.551C597.423 585.105 637.986 588.515 627.692 612.68Z" fill="#9E5229"/>
<path fill-rule="evenodd" clip-rule="evenodd" d="M599.882 593.835L608.684 593.835H608.79L608.864 593.912C616.683 602.047 618.425 614.041 614.753 624.85C614.495 625.154 614.217 625.434 613.922 625.693C617.993 614.809 616.422 602.563 608.577 594.335H599.25C599.451 594.162 599.662 593.995 599.882 593.835Z" fill="black" fill-opacity="0.199355"/>
<ellipse cx="4.88875" cy="4.5571" rx="4.88875" ry="4.5571" transform="matrix(-1 0 0 1 610.171 589.528)" fill="#FB9934"/>
<path fill-rule="evenodd" clip-rule="evenodd" d="M631.767 642.276C636.3 648.467 643.855 669.479 644.283 674.206C644.766 679.659 638.478 688.345 638.375 696.238C638.283 704.133 643.065 723.893 641.628 726.114C640.203 728.334 592.865 741.172 590.198 740.117C587.531 739.062 578.325 727.685 580.429 723.062C582.544 718.438 591.282 707.95 590.282 701.65C589.293 695.351 583.553 672.099 580.702 664.185C577.863 656.271 578.81 647.962 584.109 644.557C586.731 642.872 593.727 638.085 606.187 638.106C618.646 638.128 631.415 641.796 631.767 642.276Z" fill="#FF9F43"/>
<path fill-rule="evenodd" clip-rule="evenodd" d="M641.929 669.131L620.206 654.599L620.213 657.254C620.293 673.644 621.401 682.326 639.839 709.186L639.412 706.449C638.811 702.475 638.346 698.754 638.375 696.238C638.44 691.258 640.967 685.963 642.702 681.363L641.929 669.131Z" fill="black" fill-opacity="0.159856"/>
<path fill-rule="evenodd" clip-rule="evenodd" d="M617.698 637.654C617.698 637.654 618.223 640.316 615.927 640.316C613.632 640.316 598.235 640.787 596.15 639.946C594.065 639.104 594.691 637.654 594.691 637.654H617.698Z" fill="#FFF6E1"/>
<path fill-rule="evenodd" clip-rule="evenodd" d="M694.437 674.193C694.437 674.193 706.975 666.402 709.191 664.838C711.4 663.28 714.171 651.465 712.454 649.807C711.623 649.005 705.351 654.402 704.232 655.125C703.121 655.841 697.433 659.03 697.433 659.03C697.433 659.03 699.042 649.986 697.657 649.257C696.632 648.726 694.582 651.054 694.307 653.513C694.033 655.973 691.182 659.182 690.814 662.915C690.648 664.546 689.999 666.659 689.999 666.659L655.211 680.569L658.851 695.692L694.437 674.193Z" fill="url(#paint25_linear_4_4)"/>
<path fill-rule="evenodd" clip-rule="evenodd" d="M619.767 659.253C624.571 668.545 632.731 682.129 637.213 690.094C642.516 699.52 648.835 703.513 661.582 696.519C663.074 695.701 666.3 693.876 666.3 693.876L658.409 677.564L654.267 679.268C654.267 679.268 642.06 658.514 636.992 648.55C630.544 635.886 610.469 641.271 619.767 659.253Z" fill="#FFB66F"/>
<path fill-rule="evenodd" clip-rule="evenodd" d="M654.267 679.268C654.267 679.268 656.499 686.585 657.026 686.296C657.553 686.007 656.656 678.219 656.656 678.219L654.267 679.268Z" fill="black" fill-opacity="0.159856"/>
<path fill-rule="evenodd" clip-rule="evenodd" d="M658.297 676.843L663.794 697.151L671.972 693.034L661.241 675.262L658.297 676.843Z" fill="#FFEDC2"/>
<path fill-rule="evenodd" clip-rule="evenodd" d="M605.806 590.717C605.806 590.717 601.197 585.225 595.876 586.666C590.554 588.107 585.74 596.938 588.026 605.24C590.3 613.542 588.425 618.277 585.666 623.873C578.255 638.924 603.914 648.481 603.914 648.481C603.914 648.481 601.912 637.328 605.806 630.593C609.816 623.657 612.094 614.763 612.094 609.32C612.094 599.856 605.806 590.717 605.806 590.717Z" fill="#9E5229"/>
<path fill-rule="evenodd" clip-rule="evenodd" d="M605.048 759.374L617.76 843.107L611.096 843.025L598.384 760.25L605.048 759.374Z" fill="#91D6FF"/>
<path fill-rule="evenodd" clip-rule="evenodd" d="M642.04 759.374L654.751 843.107L648.087 843.025L635.375 760.25L642.04 759.374Z" fill="#91D6FF"/>
<path fill-rule="evenodd" clip-rule="evenodd" d="M560.893 759.374L548.181 843.107L554.846 843.025L567.558 760.25L560.893 759.374Z" fill="#BFE7FF"/>
<path fill-rule="evenodd" clip-rule="evenodd" d="M647.625 764.3C653.02 764.3 657.394 759.926 657.394 754.531C657.394 749.136 653.02 744.762 647.625 744.762H603.763C598.071 744.762 593.303 740.452 592.731 734.789L585.939 667.556C585.366 661.892 580.599 657.582 574.907 657.582H546.13C539.647 657.582 534.547 663.121 535.08 669.582L542.057 754.124C542.532 759.874 547.338 764.3 553.108 764.3H647.625Z" fill="#BFE7FF"/>
<path fill-rule="evenodd" clip-rule="evenodd" d="M580.152 658.816L587.225 744.276C587.7 750.025 592.506 754.449 598.275 754.449H657.392C657.393 754.385 657.394 754.322 657.394 754.258C657.394 748.877 653.031 744.515 647.65 744.515H603.915C598.224 744.515 593.457 740.206 592.883 734.544L586.096 667.552C585.707 663.708 583.384 660.488 580.152 658.816Z" fill="#91D6FF"/>
</g>
<defs>
<filter id="filter0_dd_4_4" x="206.459" y="368.856" width="206.859" height="109.189" filterUnits="userSpaceOnUse" color-interpolation-filters="sRGB">
<feFlood flood-opacity="0" result="BackgroundImageFix"/>
<feColorMatrix in="SourceAlpha" type="matrix" values="0 0 0 0 0 0 0 0 0 0 0 0 0 0 0 0 0 0 127 0" result="hardAlpha"/>
<feOffset dx="8" dy="9"/>
<feGaussianBlur stdDeviation="14"/>
<feColorMatrix type="matrix" values="0 0 0 0 0.0755213 0 0 0 0 0.582569 0 0 0 0 0.878793 0 0 0 0.229458 0"/>
<feBlend mode="normal" in2="BackgroundImageFix" result="effect1_dropShadow_4_4"/>
<feColorMatrix in="SourceAlpha" type="matrix" values="0 0 0 0 0 0 0 0 0 0 0 0 0 0 0 0 0 0 127 0" result="hardAlpha"/>
<feOffset dy="2"/>
<feGaussianBlur stdDeviation="7.5"/>
<feColorMatrix type="matrix" values="0 0 0 0 0.503982 0 0 0 0 0.700178 0 0 0 0 1 0 0 0 0.233829 0"/>
<feBlend mode="normal" in2="effect1_dropShadow_4_4" result="effect2_dropShadow_4_4"/>
<feBlend mode="normal" in="SourceGraphic" in2="effect2_dropShadow_4_4" result="shape"/>
</filter>
<filter id="filter1_dd_4_4" x="206.459" y="429.446" width="243.682" height="203.568" filterUnits="userSpaceOnUse" color-interpolation-filters="sRGB">
<feFlood flood-opacity="0" result="BackgroundImageFix"/>
<feColorMatrix in="SourceAlpha" type="matrix" values="0 0 0 0 0 0 0 0 0 0 0 0 0 0 0 0 0 0 127 0" result="hardAlpha"/>
<feOffset dx="8" dy="9"/>
<feGaussianBlur stdDeviation="14"/>
<feColorMatrix type="matrix" values="0 0 0 0 0.0755213 0 0 0 0 0.582569 0 0 0 0 0.878793 0 0 0 0.229458 0"/>
<feBlend mode="normal" in2="BackgroundImageFix" result="effect1_dropShadow_4_4"/>
<feColorMatrix in="SourceAlpha" type="matrix" values="0 0 0 0 0 0 0 0 0 0 0 0 0 0 0 0 0 0 127 0" result="hardAlpha"/>
<feOffset dy="2"/>
<feGaussianBlur stdDeviation="7.5"/>
<feColorMatrix type="matrix" values="0 0 0 0 0.503982 0 0 0 0 0.700178 0 0 0 0 1 0 0 0 0.233829 0"/>
<feBlend mode="normal" in2="effect1_dropShadow_4_4" result="effect2_dropShadow_4_4"/>
<feBlend mode="normal" in="SourceGraphic" in2="effect2_dropShadow_4_4" result="shape"/>
</filter>
<filter id="filter2_d_4_4" x="234.62" y="492.331" width="175.552" height="99.4815" filterUnits="userSpaceOnUse" color-interpolation-filters="sRGB">
<feFlood flood-opacity="0" result="BackgroundImageFix"/>
<feColorMatrix in="SourceAlpha" type="matrix" values="0 0 0 0 0 0 0 0 0 0 0 0 0 0 0 0 0 0 127 0" result="hardAlpha"/>
<feOffset dy="13"/>
<feGaussianBlur stdDeviation="7.5"/>
<feColorMatrix type="matrix" values="0 0 0 0 0 0 0 0 0 0 0 0 0 0 0 0 0 0 0.144395 0"/>
<feBlend mode="normal" in2="BackgroundImageFix" result="effect1_dropShadow_4_4"/>
<feBlend mode="normal" in="SourceGraphic" in2="effect1_dropShadow_4_4" result="shape"/>
</filter>
<filter id="filter3_d_4_4" x="433.499" y="391.537" width="298.812" height="203.154" filterUnits="userSpaceOnUse" color-interpolation-filters="sRGB">
<feFlood flood-opacity="0" result="BackgroundImageFix"/>
<feColorMatrix in="SourceAlpha" type="matrix" values="0 0 0 0 0 0 0 0 0 0 0 0 0 0 0 0 0 0 127 0" result="hardAlpha"/>
<feOffset dx="6" dy="6"/>
<feGaussianBlur stdDeviation="8"/>
<feColorMatrix type="matrix" values="0 0 0 0 0.70188 0 0 0 0 0.70188 0 0 0 0 0.70188 0 0 0 0.208725 0"/>
<feBlend mode="normal" in2="BackgroundImageFix" result="effect1_dropShadow_4_4"/>
<feBlend mode="normal" in="SourceGraphic" in2="effect1_dropShadow_4_4" result="shape"/>
</filter>
<linearGradient id="paint0_linear_4_4" x1="741.881" y1="604.978" x2="731.144" y2="656.478" gradientUnits="userSpaceOnUse">
<stop stop-color="#FFAFAF"/>
<stop offset="1" stop-color="#F07777"/>
</linearGradient>
<linearGradient id="paint1_linear_4_4" x1="740.925" y1="595.263" x2="734.489" y2="629.077" gradientUnits="userSpaceOnUse">
<stop stop-color="#FDC6C6"/>
<stop offset="1" stop-color="#FAB2B2"/>
</linearGradient>
<linearGradient id="paint2_linear_4_4" x1="688.703" y1="805.018" x2="687.168" y2="835.83" gradientUnits="userSpaceOnUse">
<stop stop-color="#FDC6C6"/>
<stop offset="1" stop-color="#FAB2B2"/>
</linearGradient>
<linearGradient id="paint3_linear_4_4" x1="654.186" y1="844.684" x2="606.54" y2="746.452" gradientUnits="userSpaceOnUse">
<stop stop-color="#28324F"/>
<stop offset="1" stop-color="#222735"/>
</linearGradient>
<linearGradient id="paint4_linear_4_4" x1="648.499" y1="634.947" x2="646.425" y2="664.552" gradientUnits="userSpaceOnUse">
<stop stop-color="#FDC6C6"/>
<stop offset="1" stop-color="#FAB2B2"/>
</linearGradient>
<linearGradient id="paint5_linear_4_4" x1="736.215" y1="665.504" x2="735.608" y2="684.61" gradientUnits="userSpaceOnUse">
<stop stop-color="#FDC6C6"/>
<stop offset="1" stop-color="#FAB2B2"/>
</linearGradient>
<linearGradient id="paint6_linear_4_4" x1="394.735" y1="491.551" x2="383.764" y2="492.653" gradientUnits="userSpaceOnUse">
<stop stop-color="#4D63A0"/>
<stop offset="1" stop-color="#222735"/>
</linearGradient>
<linearGradient id="paint7_linear_4_4" x1="266.623" y1="697.538" x2="266.623" y2="714.671" gradientUnits="userSpaceOnUse">
<stop stop-color="#FE62BE"/>
<stop offset="1" stop-color="#FDB3A8"/>
</linearGradient>
<linearGradient id="paint8_linear_4_4" x1="240.271" y1="684.468" x2="241.941" y2="701.531" gradientUnits="userSpaceOnUse">
<stop stop-color="#FE62BE"/>
<stop offset="1" stop-color="#FDB3A8"/>
</linearGradient>
<linearGradient id="paint9_linear_4_4" x1="863.96" y1="803.473" x2="862.422" y2="834.357" gradientUnits="userSpaceOnUse">
<stop stop-color="#FDC6C6"/>
<stop offset="1" stop-color="#FAB2B2"/>
</linearGradient>
<linearGradient id="paint10_linear_4_4" x1="858.814" y1="625.24" x2="854.729" y2="687.905" gradientUnits="userSpaceOnUse">
<stop stop-color="#FDC6C6"/>
<stop offset="1" stop-color="#FAB2B2"/>
</linearGradient>
<linearGradient id="paint11_linear_4_4" x1="919.187" y1="600.417" x2="908.308" y2="651.986" gradientUnits="userSpaceOnUse">
<stop stop-color="#FFAFAF"/>
<stop offset="1" stop-color="#F07777"/>
</linearGradient>
<linearGradient id="paint12_linear_4_4" x1="918.346" y1="590.678" x2="911.899" y2="624.572" gradientUnits="userSpaceOnUse">
<stop stop-color="#FDC6C6"/>
<stop offset="1" stop-color="#FAB2B2"/>
</linearGradient>
<linearGradient id="paint13_linear_4_4" x1="824.772" y1="804.716" x2="823.268" y2="839.14" gradientUnits="userSpaceOnUse">
<stop stop-color="#FDC6C6"/>
<stop offset="1" stop-color="#FAB2B2"/>
</linearGradient>
<linearGradient id="paint14_linear_4_4" x1="946.889" y1="659.238" x2="945.437" y2="699.979" gradientUnits="userSpaceOnUse">
<stop stop-color="#FDC6C6"/>
<stop offset="1" stop-color="#FAB2B2"/>
</linearGradient>
<linearGradient id="paint15_linear_4_4" x1="776.75" y1="628.079" x2="788.323" y2="677.934" gradientUnits="userSpaceOnUse">
<stop stop-color="#9FF6EC"/>
<stop offset="1" stop-color="#7D9DFF"/>
</linearGradient>
<linearGradient id="paint16_linear_4_4" x1="449.849" y1="686.028" x2="461.424" y2="713.663" gradientUnits="userSpaceOnUse">
<stop stop-color="#FDC6C6"/>
<stop offset="1" stop-color="#A47070"/>
</linearGradient>
<linearGradient id="paint17_linear_4_4" x1="483.251" y1="584.19" x2="479.902" y2="632.732" gradientUnits="userSpaceOnUse">
<stop stop-color="#FDC6C6"/>
<stop offset="1" stop-color="#A47070"/>
</linearGradient>
<linearGradient id="paint18_linear_4_4" x1="578.01" y1="637.202" x2="575.746" y2="670.984" gradientUnits="userSpaceOnUse">
<stop stop-color="#FDC6C6"/>
<stop offset="1" stop-color="#A47070"/>
</linearGradient>
<linearGradient id="paint19_linear_4_4" x1="739.553" y1="689.031" x2="739.553" y2="692.319" gradientUnits="userSpaceOnUse">
<stop stop-color="#9FF6EC"/>
<stop offset="1" stop-color="#7D9DFF"/>
</linearGradient>
<linearGradient id="paint20_linear_4_4" x1="746.544" y1="639.464" x2="746.544" y2="689.757" gradientUnits="userSpaceOnUse">
<stop stop-color="#9FF6EC"/>
<stop offset="1" stop-color="#7D9DFF"/>
</linearGradient>
<linearGradient id="paint21_linear_4_4" x1="594.551" y1="663.864" x2="614.768" y2="713.479" gradientUnits="userSpaceOnUse">
<stop stop-color="#FDC6C6"/>
<stop offset="1" stop-color="#FFCCA1"/>
</linearGradient>
<linearGradient id="paint22_linear_4_4" x1="636.939" y1="796.257" x2="634.339" y2="825.436" gradientUnits="userSpaceOnUse">
<stop stop-color="#FDC6C6"/>
<stop offset="1" stop-color="#FAB2B2"/>
</linearGradient>
<linearGradient id="paint23_linear_4_4" x1="709.897" y1="795.472" x2="707.744" y2="822.371" gradientUnits="userSpaceOnUse">
<stop stop-color="#FDC6C6"/>
<stop offset="1" stop-color="#FAB2B2"/>
</linearGradient>
<linearGradient id="paint24_linear_4_4" x1="635.593" y1="595.409" x2="632.608" y2="638.669" gradientUnits="userSpaceOnUse">
<stop stop-color="#FDC6C6"/>
<stop offset="1" stop-color="#FFCCA1"/>
</linearGradient>
<linearGradient id="paint25_linear_4_4" x1="722.987" y1="637.858" x2="720.105" y2="693.398" gradientUnits="userSpaceOnUse">
<stop stop-color="#FDC6C6"/>
<stop offset="1" stop-color="#FFCCA1"/>
</linearGradient>
<clipPath id="clip0_4_4">
<rect width="1062" height="1117" fill="white"/>
</clipPath>
</defs>
</svg>
