<svg width="828" height="563" viewBox="0 0 828 563" fill="none" xmlns="http://www.w3.org/2000/svg">
<g id="Illustration">
<g id="Shape">
<g id="Group 59">
<path id="Path" opacity="0.0845424" d="M748.617 170.229C759.035 157.281 778.759 154.643 792.673 164.336C806.449 173.932 809.365 192.017 799.314 204.94L799.006 205.33L716.468 307.914C705.955 320.98 686.43 324.293 671.656 315.597L671.21 315.33L619.249 283.686L566.861 354.683C557.121 367.883 537.821 371.335 523.533 362.52L523.101 362.249C508.915 353.186 505.205 335.228 514.679 321.933L514.97 321.531L583.621 228.495C593.849 214.636 614.002 210.816 629.221 219.765L629.681 220.04L682.607 252.272L748.617 170.229Z" fill="#7367F0"/>
<path id="Path_2" opacity="0.0845424" d="M478.449 3.75988C481.09 0.187134 486.351 -0.721518 490.2 1.73035C493.998 4.14996 495.001 8.93803 492.489 12.4972L492.386 12.6389L471.817 40.4604C468.801 44.381 462.966 45.3254 458.705 42.6132L458.553 42.5148L446.74 34.6846L433.936 53.5694C431.482 57.189 426.367 58.3094 422.436 56.1185L422.281 56.0303C418.382 53.7521 417.175 49.0035 419.535 45.3544L419.63 45.2109L436.61 20.1671C439.407 16.0415 445.278 14.802 449.722 17.3986L449.954 17.5388L450.182 17.6853L462.244 25.68L478.449 3.75988Z" fill="#7367F0"/>
<path id="+" opacity="0.070266" fill-rule="evenodd" clip-rule="evenodd" d="M703.44 134.091C704.821 134.091 705.94 132.971 705.94 131.591V112.912H726.201C727.582 112.912 728.701 111.793 728.701 110.412V101.289C728.701 99.9087 727.582 98.7894 726.201 98.7894H705.94V79.9737C705.94 78.593 704.821 77.4737 703.44 77.4737H693.115C691.735 77.4737 690.615 78.593 690.615 79.9737V98.7894H670.354C668.974 98.7894 667.854 99.9087 667.854 101.289V110.412C667.854 111.793 668.974 112.912 670.354 112.912H690.615V131.591C690.615 132.971 691.735 134.091 693.115 134.091H703.44Z" fill="#00CFE8"/>
<path id="Oval" opacity="0.0739397" fill-rule="evenodd" clip-rule="evenodd" d="M102.4 21.038C158.601 21.038 204.16 63.4308 204.16 115.725C204.16 168.019 158.601 210.412 102.4 210.412C46.1986 210.412 0.638672 168.019 0.638672 115.725C0.638672 63.4308 46.1986 21.038 102.4 21.038ZM102.4 67.8934C74.0094 67.8934 50.9946 89.3083 50.9946 115.725C50.9946 142.142 74.0094 163.557 102.4 163.557C130.79 163.557 153.805 142.142 153.805 115.725C153.805 89.3083 130.79 67.8934 102.4 67.8934Z" fill="#00CFE8"/>
</g>
</g>
<g id="Meeting">
<g id="Group 63">
<path id="Rectangle" fill-rule="evenodd" clip-rule="evenodd" d="M67.9552 104.265C67.9552 95.4283 75.1186 88.2648 83.9552 88.2648H609.759C618.595 88.2648 625.759 95.4283 625.759 104.265V316.582C625.759 325.419 618.595 332.582 609.759 332.582H83.9552C75.1187 332.582 67.9552 325.419 67.9552 316.582V104.265Z" fill="#E7FCFF"/>
<path id="Rectangle_2" opacity="0.383371" fill-rule="evenodd" clip-rule="evenodd" d="M76.3432 104.265C76.3432 95.4283 83.5066 88.2648 92.3432 88.2648H609.759C618.595 88.2648 625.759 95.4283 625.759 104.265V316.582C625.759 325.419 618.595 332.582 609.759 332.582H92.3432C83.5066 332.582 76.3432 325.419 76.3432 316.582V104.265Z" fill="#00CFE8"/>
<path id="Rectangle_3" fill-rule="evenodd" clip-rule="evenodd" d="M84.7313 106.083C84.7313 100.56 89.2084 96.083 94.7313 96.083H607.371C612.894 96.083 617.371 100.56 617.371 106.083V314.764C617.371 320.287 612.894 324.764 607.371 324.764H94.7313C89.2084 324.764 84.7313 320.287 84.7313 314.764L84.7313 106.083Z" fill="#E7FCFF"/>
<path id="Rectangle_4" fill-rule="evenodd" clip-rule="evenodd" d="M305.965 310.241C305.965 306.928 308.652 304.241 311.965 304.241H390.137C393.45 304.241 396.137 306.928 396.137 310.241V324.764H305.965V310.241Z" fill="#D4EFFF"/>
<path id="Rectangle_5" d="M314.353 310.241C314.353 306.928 317.04 304.241 320.353 304.241H398.525C401.838 304.241 404.525 306.928 404.525 310.241V332.582H314.353V310.241Z" fill="#91D6FF"/>
</g>
<g id="ElementCard20">
<g id="Rectangle_6" filter="url(#filter0_dd_4_6)">
<path fill-rule="evenodd" clip-rule="evenodd" d="M100.459 111.244C100.459 108.268 102.871 105.856 105.848 105.856H245.929C248.905 105.856 251.318 108.268 251.318 111.244V153.656C251.318 156.632 248.905 159.045 245.929 159.045H105.848C102.871 159.045 100.459 156.632 100.459 153.656V111.244Z" fill="white"/>
</g>
<path id="Rectangle_7" opacity="0.454078" fill-rule="evenodd" clip-rule="evenodd" d="M145.095 137.453C145.095 136.581 145.802 135.873 146.675 135.873H175.156C176.028 135.873 176.736 136.581 176.736 137.453V137.453C176.736 138.326 176.028 139.033 175.156 139.033H146.675C145.802 139.033 145.095 138.326 145.095 137.453V137.453Z" fill="#C7C1FF"/>
<path id="Rectangle_8" fill-rule="evenodd" clip-rule="evenodd" d="M145.095 128.501C145.095 127.628 145.802 126.921 146.675 126.921H163.856C164.728 126.921 165.435 127.628 165.435 128.501V128.501C165.435 129.373 164.728 130.081 163.856 130.081H146.675C145.802 130.081 145.095 129.373 145.095 128.501V128.501Z" fill="#8478FF"/>
<g id="Group 9">
<path id="Path_3" fill-rule="evenodd" clip-rule="evenodd" d="M228.162 124.757C230.572 121.805 235.094 121.233 238.262 123.48C238.99 123.997 239.606 124.638 240.077 125.37C240.32 125.747 240.189 126.236 239.784 126.463C239.38 126.689 238.855 126.566 238.612 126.189C238.253 125.631 237.783 125.142 237.227 124.747C234.86 123.068 231.501 123.453 229.636 125.586L229.522 125.722L226.873 128.966C222.734 134.035 215.733 136.269 209.144 134.65L208.862 134.578L206.731 134.017C206.593 133.981 206.455 133.949 206.316 133.92C202.419 133.12 198.563 135.366 197.609 138.955L197.564 139.132L197.125 140.992C196.969 141.65 196.667 142.27 196.239 142.813C194.544 144.96 191.303 145.42 189 143.841C188.62 143.58 188.538 143.082 188.818 142.728C189.097 142.373 189.632 142.297 190.012 142.558C191.556 143.616 193.727 143.308 194.863 141.869C195.114 141.551 195.3 141.193 195.412 140.813L195.456 140.649L195.896 138.79C196.971 134.239 201.801 131.362 206.683 132.365L206.94 132.421L207.195 132.485L209.326 133.045C215.23 134.598 221.546 132.682 225.34 128.21L225.513 128.002L228.162 124.757Z" fill="#8478FF"/>
<path id="Path_4" fill-rule="evenodd" clip-rule="evenodd" d="M220.463 123.795C222.207 120.179 226.767 118.565 230.647 120.191C231.426 120.518 232.142 120.963 232.764 121.509C234.23 122.793 235.587 124.823 236.859 127.603C237.044 128.007 236.842 128.475 236.408 128.647C235.975 128.82 235.473 128.632 235.287 128.227C234.1 125.633 232.861 123.779 231.594 122.669C231.109 122.244 230.553 121.898 229.946 121.643C226.982 120.401 223.507 121.589 222.097 124.296L222.021 124.448L221.471 125.587C221.343 125.853 221.196 126.11 221.031 126.357C219.001 129.393 214.714 130.321 211.456 128.429C211.068 128.204 210.643 128.04 210.197 127.945C208.029 127.482 205.869 128.706 205.297 130.692L205.26 130.832L204.309 134.702C204.023 135.868 203.415 136.944 202.545 137.824C199.834 140.569 195.282 140.79 192.281 138.358L192.121 138.225L188.248 134.901C187.901 134.604 187.879 134.1 188.199 133.776C188.497 133.474 188.987 133.436 189.334 133.675L189.406 133.73L193.279 137.054C195.582 139.03 199.168 138.892 201.288 136.745C201.905 136.121 202.35 135.368 202.588 134.552L202.644 134.346L203.595 130.476C204.313 127.551 207.44 125.723 210.579 126.393C211.13 126.511 211.66 126.703 212.152 126.962L212.36 127.078C214.817 128.505 218.05 127.805 219.581 125.515C219.664 125.39 219.741 125.263 219.812 125.132L219.913 124.934L220.463 123.795Z" fill="#C7C1FF"/>
</g>
<ellipse id="Oval_2" cx="125.602" cy="132.977" rx="11.5828" ry="10.7959" fill="#8478FF"/>
</g>
<g id="ElementCard3">
<g id="Rectangle_9" filter="url(#filter1_dd_4_6)">
<path fill-rule="evenodd" clip-rule="evenodd" d="M100.459 171.446C100.459 168.685 102.697 166.446 105.459 166.446H283.141C285.902 166.446 288.141 168.685 288.141 171.446V309.014C288.141 311.775 285.902 314.014 283.141 314.014H105.459C102.697 314.014 100.459 311.775 100.459 309.014V171.446Z" fill="white"/>
</g>
<mask id="mask0_4_6" style="mask-type:luminance" maskUnits="userSpaceOnUse" x="100" y="166" width="189" height="149">
<path id="Rectangle_10" fill-rule="evenodd" clip-rule="evenodd" d="M100.459 171.446C100.459 168.685 102.697 166.446 105.459 166.446H283.141C285.902 166.446 288.141 168.685 288.141 171.446V309.014C288.141 311.775 285.902 314.014 283.141 314.014H105.459C102.697 314.014 100.459 311.775 100.459 309.014V171.446Z" fill="white"/>
</mask>
<g mask="url(#mask0_4_6)">
<g id="Path 3" filter="url(#filter2_d_4_6)">
<path d="M125.623 279.81C125.623 279.81 147.935 273.837 157.773 261.647C167.611 249.457 170.928 237.641 187.848 237.641C204.768 237.641 206.938 255.738 225.229 255.738C243.52 255.738 244.521 232.66 250.6 223.496C256.679 214.333 267.171 214.333 267.171 214.333" stroke="#8EEAF6" stroke-width="4.004" stroke-linecap="round"/>
</g>
<path id="Path 3_2" opacity="0.414737" fill-rule="evenodd" clip-rule="evenodd" d="M125.623 278.55C125.623 278.55 147.935 272.603 157.773 260.466C167.611 248.328 170.928 236.563 187.848 236.563C204.768 236.563 206.938 254.582 225.229 254.582C243.52 254.582 244.521 231.603 250.6 222.479C256.679 213.355 267.171 213.355 267.171 213.355V290.411C267.171 292.112 265.792 293.491 264.091 293.491H128.703C127.002 293.491 125.623 292.112 125.623 290.411V278.55Z" fill="#CEF9FF"/>
<rect id="Rectangle_11" x="115.138" y="181.105" width="58.7162" height="5.86362" rx="2.93181" fill="#8EEAF6"/>
<path id="Rectangle_12" fill-rule="evenodd" clip-rule="evenodd" d="M115.138 198.696C115.138 197.077 116.45 195.764 118.07 195.764H139.467C141.086 195.764 142.399 197.077 142.399 198.696V198.696C142.399 200.315 141.086 201.628 139.467 201.628H118.07C116.45 201.628 115.138 200.315 115.138 198.696V198.696Z" fill="#8EEAF6" fill-opacity="0.401934"/>
<ellipse id="Oval_3" cx="251.967" cy="184.526" rx="3.66976" ry="3.42044" fill="#8EEAF6" fill-opacity="0.451705"/>
<ellipse id="Oval_4" cx="262.453" cy="184.526" rx="3.66976" ry="3.42044" fill="#8EEAF6" fill-opacity="0.451705"/>
<ellipse id="Oval_5" cx="272.938" cy="184.526" rx="3.66976" ry="3.42044" fill="#8EEAF6" fill-opacity="0.451705"/>
</g>
</g>
<g id="ElementCard11">
<g id="Rectangle_13" filter="url(#filter3_d_4_6)">
<path fill-rule="evenodd" clip-rule="evenodd" d="M317.499 127.022C317.499 122.888 320.85 119.537 324.983 119.537H576.827C580.96 119.537 584.311 122.888 584.311 127.022V283.207C584.311 287.341 580.96 290.692 576.827 290.692H324.983C320.85 290.692 317.499 287.341 317.499 283.207V127.022Z" fill="white"/>
</g>
<g id="Group 26">
<path id="Path_5" fill-rule="evenodd" clip-rule="evenodd" d="M362.622 207.309V268.523H352.812V207.309H362.622Z" fill="#E7E4FF"/>
<path id="Path_6" fill-rule="evenodd" clip-rule="evenodd" d="M362.622 221.937V268.523H352.812V221.937H362.622Z" fill="#C7C1FF"/>
<path id="Path_7" fill-rule="evenodd" clip-rule="evenodd" d="M362.622 251.194V268.523H352.812V251.194H362.622Z" fill="#8478FF"/>
</g>
<g id="Group 26_2">
<path id="Path_8" fill-rule="evenodd" clip-rule="evenodd" d="M386.164 192.68V268.523H376.355V192.68H386.164Z" fill="#E7E4FF"/>
<path id="Path_9" fill-rule="evenodd" clip-rule="evenodd" d="M386.164 214.623V268.523H376.355V214.623H386.164Z" fill="#C7C1FF"/>
<path id="Path_10" fill-rule="evenodd" clip-rule="evenodd" d="M386.164 251.194V268.523H376.355V251.194H386.164Z" fill="#8478FF"/>
</g>
<g id="Group 26_3">
<path id="Path_11" fill-rule="evenodd" clip-rule="evenodd" d="M409.706 203.652V268.523H399.897V203.652H409.706Z" fill="#E7E4FF"/>
<path id="Path_12" fill-rule="evenodd" clip-rule="evenodd" d="M409.706 225.594V268.523H399.897V225.594H409.706Z" fill="#C7C1FF"/>
<path id="Path_13" fill-rule="evenodd" clip-rule="evenodd" d="M409.706 254.852V268.523H399.897V254.852H409.706Z" fill="#8478FF"/>
</g>
<g id="Group 26_4">
<path id="Path_14" fill-rule="evenodd" clip-rule="evenodd" d="M433.248 185.366V268.523H423.439V185.366H433.248Z" fill="#E7E4FF"/>
<path id="Path_15" fill-rule="evenodd" clip-rule="evenodd" d="M433.248 207.309V268.523H423.439V207.309H433.248Z" fill="#C7C1FF"/>
<path id="Path_16" fill-rule="evenodd" clip-rule="evenodd" d="M433.248 236.566V268.523H423.439V236.566H433.248Z" fill="#8478FF"/>
</g>
<g id="Group 26_5">
<path id="Path_17" fill-rule="evenodd" clip-rule="evenodd" d="M456.791 170.737V268.523H446.981V170.737H456.791Z" fill="#E7E4FF"/>
<path id="Path_18" fill-rule="evenodd" clip-rule="evenodd" d="M456.791 199.994V268.523H446.981V199.994H456.791Z" fill="#C7C1FF"/>
<path id="Path_19" fill-rule="evenodd" clip-rule="evenodd" d="M456.791 243.88V268.523H446.981V243.88H456.791Z" fill="#8478FF"/>
</g>
<g id="Group 26_6">
<path id="Path_20" fill-rule="evenodd" clip-rule="evenodd" d="M480.333 192.68V268.523H470.524V192.68H480.333Z" fill="#E7E4FF"/>
<path id="Path_21" fill-rule="evenodd" clip-rule="evenodd" d="M480.333 214.623V268.523H470.524V214.623H480.333Z" fill="#C7C1FF"/>
<path id="Path_22" fill-rule="evenodd" clip-rule="evenodd" d="M480.333 248.269V268.523H470.524V248.269H480.333Z" fill="#8478FF"/>
</g>
<g id="Group 26_7">
<path id="Path_23" fill-rule="evenodd" clip-rule="evenodd" d="M503.875 199.994V268.523H494.066V199.994H503.875Z" fill="#E7E4FF"/>
<path id="Path_24" fill-rule="evenodd" clip-rule="evenodd" d="M503.875 214.623V268.523H494.066V214.623H503.875Z" fill="#C7C1FF"/>
<path id="Path_25" fill-rule="evenodd" clip-rule="evenodd" d="M503.875 243.149V268.523H494.066V243.149H503.875Z" fill="#8478FF"/>
</g>
<g id="Group 26_8">
<path id="Path_26" fill-rule="evenodd" clip-rule="evenodd" d="M527.417 185.366V268.523H517.608V185.366H527.417Z" fill="#E7E4FF"/>
<path id="Path_27" fill-rule="evenodd" clip-rule="evenodd" d="M527.417 214.623V268.523H517.608V214.623H527.417Z" fill="#C7C1FF"/>
<path id="Path_28" fill-rule="evenodd" clip-rule="evenodd" d="M527.417 250.463V268.523H517.608V250.463H527.417Z" fill="#8478FF"/>
</g>
<g id="Group 26_9">
<path id="Path_29" fill-rule="evenodd" clip-rule="evenodd" d="M550.96 199.994V268.523H541.15V199.994H550.96Z" fill="#E7E4FF"/>
<path id="Path_30" fill-rule="evenodd" clip-rule="evenodd" d="M550.96 214.623V268.523H541.15V214.623H550.96Z" fill="#C7C1FF"/>
<path id="Path_31" fill-rule="evenodd" clip-rule="evenodd" d="M550.96 250.463V268.523H541.15V250.463H550.96Z" fill="#8478FF"/>
</g>
<path id="Rectangle_14" opacity="0.57573" fill-rule="evenodd" clip-rule="evenodd" d="M349.673 150.989C349.673 149.777 350.656 148.795 351.868 148.795H430.662C431.874 148.795 432.856 149.777 432.856 150.989V150.989C432.856 152.201 431.874 153.183 430.662 153.183H351.868C350.656 153.183 349.673 152.201 349.673 150.989V150.989Z" fill="#8C81FF"/>
<rect id="Rectangle_15" x="349.673" y="136.36" width="43.9455" height="4.38857" rx="2.19428" fill="#8478FF"/>
</g>
<g id="Chair4">
<path id="Path_32" fill-rule="evenodd" clip-rule="evenodd" d="M620.554 465.647L633.266 559.152L626.602 559.07L613.89 466.523L620.554 465.647Z" fill="#BFE7FF"/>
<path id="Path_33" fill-rule="evenodd" clip-rule="evenodd" d="M533.823 480.345C528.428 480.345 524.054 475.972 524.054 470.577V470.577C524.054 465.181 528.428 460.808 533.823 460.808H577.685C583.377 460.808 588.145 456.498 588.717 450.834L595.509 383.601C596.081 377.938 600.849 373.628 606.541 373.628H635.317C641.801 373.628 646.901 379.166 646.368 385.628L639.39 470.169C638.916 475.92 634.11 480.345 628.34 480.345H533.823Z" fill="#91D6FF"/>
<path id="Combined Shape" fill-rule="evenodd" clip-rule="evenodd" d="M635.733 373.649C635.84 374.437 635.864 375.25 635.796 376.078L628.824 460.321C628.348 466.071 623.543 470.494 617.773 470.494H524.056C524.055 470.431 524.054 470.367 524.054 470.303C524.054 464.922 528.416 460.56 533.797 460.56H577.533C583.224 460.56 587.99 456.252 588.564 450.59L595.351 383.598C595.925 377.936 600.692 373.628 606.383 373.628H635.035C635.27 373.628 635.502 373.635 635.733 373.649Z" fill="#BFE7FF"/>
</g>
<g id="Wom1.4">
<g id="Head">
<path id="Path_34" fill-rule="evenodd" clip-rule="evenodd" d="M606.374 357.524C619.925 354.585 620.818 337.258 610.515 331.248C621.14 310.501 596.57 289.902 579.741 302.606C568.707 298.206 559.538 315.374 569.805 328.707C565.5 351.6 574.261 357.518 590.054 357.77L606.374 357.524Z" fill="#422851"/>
<path id="Path_35" fill-rule="evenodd" clip-rule="evenodd" d="M606.206 353.386C606.206 353.386 599.614 351.945 599.385 341.883C599.157 331.822 599.317 328.387 599.317 328.387L584.798 328.143C584.798 328.143 584.639 339.357 584.637 343.412C584.631 354.306 576.483 353.386 576.483 353.386C576.483 353.386 578.176 362.219 591.333 362.908C601.605 363.447 606.206 353.386 606.206 353.386Z" fill="url(#paint0_linear_4_6)"/>
<path id="Path_36" fill-rule="evenodd" clip-rule="evenodd" d="M602.702 323.363C609.179 323.13 608.123 331.963 601.394 331.951C601.394 331.951 597.486 344.498 583.918 344.498C572.898 344.498 572.182 329.874 572.082 326.956C571.974 323.846 571.96 313.626 571.96 313.626L602.954 313.613L602.702 323.363Z" fill="url(#paint1_linear_4_6)"/>
<path id="Path_37" d="M586.534 336.069C586.534 336.069 583.302 338.618 579.559 336.231" stroke="#F77B7B" stroke-width="1.5" stroke-linecap="round"/>
<path id="Path_38" d="M584.4 339.021C583.395 339.453 582.427 339.484 581.562 339.054" stroke="#F49494" stroke-linecap="round"/>
<path id="Path 8" d="M602.042 328.113C601.975 326.697 602.439 325.571 603.99 325.345" stroke="#F77B7B" stroke-linecap="round"/>
<path id="Path_39" fill-rule="evenodd" clip-rule="evenodd" d="M603.727 322.272C603.727 322.272 600.176 326.709 599.457 326.733C598.738 326.757 598.486 320.962 598.486 320.962C594.131 320.652 583.11 318.607 580.408 313.844C578.518 318.047 574.906 319.913 572.533 319.555L572.084 328.483L570.976 310.533H604.595L603.727 322.272Z" fill="#422851"/>
</g>
<g id="LLeg">
<path id="Path_40" fill-rule="evenodd" clip-rule="evenodd" d="M539.865 530.816C539.865 530.816 545.676 541.748 540.912 545.193C536.141 548.639 523.54 555.097 523.54 555.097L556.926 553.142L549.504 529.298L539.865 530.816Z" fill="url(#paint2_linear_4_6)"/>
<path id="Path_41" fill-rule="evenodd" clip-rule="evenodd" d="M553.696 541.22C552.049 541.399 553.808 546.566 550.241 546.959C546.681 547.352 544.95 542.456 540.91 544.008C536.87 545.56 522.136 553.584 521.556 556.865C520.968 560.144 526.458 561.109 533.987 560.369C541.515 559.628 542.903 557.133 548.555 558.138C554.199 559.142 558.428 557.541 558.242 553.699C558.055 549.858 555.344 541.041 553.696 541.22Z" fill="#222D4E"/>
<path id="Path 14" fill-rule="evenodd" clip-rule="evenodd" d="M539.068 544.804L539.796 545.822C540.151 546.317 539.984 547.011 539.444 547.292L529.382 552.523C529.105 552.667 528.776 552.673 528.493 552.539L526.868 551.771C529.296 550.133 531.282 548.902 533.476 547.693C535.161 546.765 537.026 545.809 539.068 544.804Z" fill="white" fill-opacity="0.540975"/>
<path id="Path_42" fill-rule="evenodd" clip-rule="evenodd" d="M590.157 434.457C580.05 434.878 523.795 446.468 513.575 448.437C503.354 450.406 494.713 461.061 502.507 473.399C511.26 487.249 533.846 526.583 539.33 535.45C542.044 539.839 555.736 537.378 552.52 530.012C546.524 516.28 543.74 481.785 528.453 469.207C528.453 469.207 579.861 477.542 602.067 467.995C618.206 461.055 614.555 433.441 590.157 434.457Z" fill="url(#paint3_linear_4_6)"/>
</g>
<g id="LArm">
<path id="Path_43" fill-rule="evenodd" clip-rule="evenodd" d="M518.542 378.781C518.542 378.781 518.656 371.12 515.78 367.116C512.903 363.113 512.789 358.86 510.611 358.999C508.434 359.138 510.59 369.023 510.59 369.023C510.59 369.023 507.827 368.04 505.843 366.797C503.858 365.553 497.841 359.423 496.435 360.509C494.05 362.36 497.891 372.801 499.982 374.889C502.081 376.977 513.545 383.843 513.545 383.843L518.542 378.781Z" fill="url(#paint4_linear_4_6)"/>
<path id="Path_44" fill-rule="evenodd" clip-rule="evenodd" d="M580.655 374.19C575.953 384.349 567.344 403.01 563.795 408.578C559.348 415.55 552.334 418.622 544.122 413.449C535.494 408.013 511.735 386.811 511.038 382.009C510.348 377.206 516.163 371.444 521.425 374.427C526.687 377.411 548.551 394.36 548.551 394.36C548.551 394.36 557.374 373.29 564.473 361.084C570.62 350.524 587.812 358.747 580.655 374.19Z" fill="#6A5EE3"/>
<path id="Path_45" fill-rule="evenodd" clip-rule="evenodd" d="M548.459 394.371C548.459 394.371 546.09 401.859 545.536 401.425C544.981 400.992 545.959 392.414 545.959 392.414L548.459 394.371Z" fill="black" fill-opacity="0.302803"/>
</g>
<g id="Body">
<path id="Path_46" fill-rule="evenodd" clip-rule="evenodd" d="M627.643 361.95C627.643 361.95 616.313 397.292 615.977 403.982C615.641 410.672 625.244 430.335 623.609 435.305C619.839 446.79 571.712 451.736 569.874 436.286C569.016 429.08 570.801 422.613 568.744 414.123C566.695 405.633 558.459 393.016 563.131 381.155C567.802 369.293 566.551 358.319 569.892 356.245C573.233 354.17 581.044 351.968 581.044 351.968C584.842 357.174 597.664 357.099 603.783 351.6C603.783 351.6 618.983 354.347 627.643 361.95Z" fill="#7367F0"/>
<path id="Path_47" fill-rule="evenodd" clip-rule="evenodd" d="M617.489 367.674C609.937 378.839 609.96 398.279 605.903 400.825C601.847 403.37 586.06 400.872 586.06 402.888C586.06 404.904 607.877 423.382 604.295 432.215C602.42 436.84 602.929 440.978 605.821 444.628L606.766 444.436C615.362 442.627 622.273 439.377 623.609 435.305C625.244 430.335 614.534 410.672 614.869 403.982C615.154 398.303 624.16 371.978 626.875 364.151C624.664 360.517 621.536 361.692 617.489 367.674Z" fill="black" fill-opacity="0.199355"/>
</g>
<g id="RArm">
<path id="Path_48" fill-rule="evenodd" clip-rule="evenodd" d="M604.611 397.296C604.611 397.296 595.067 389.427 592.146 388.514C589.224 387.601 572.114 386.504 572.222 388.568C572.345 390.778 581.535 390.651 582.487 391.739C583.439 392.825 583.656 400.258 587.255 401.093C590.847 401.927 601.617 403.366 601.617 403.366L604.611 397.296Z" fill="url(#paint5_linear_4_6)"/>
<path id="Path_49" fill-rule="evenodd" clip-rule="evenodd" d="M630 363.981C640.055 377.2 648.639 397.336 651.934 405.186C655.229 413.036 651.905 424.877 637.416 422.552C622.953 420.234 599.94 407.636 597.394 403.961C594.848 400.286 598.716 393.599 603.587 394.475C608.1 395.285 630.485 404.151 630.485 404.151C630.485 404.151 616.084 380.373 612.567 373.998C606.693 363.353 621.144 352.334 630 363.981Z" fill="#6A5EE3"/>
<path id="Path_50" fill-rule="evenodd" clip-rule="evenodd" d="M630.257 403.988C630.257 403.988 637.799 407.479 636.88 406.015C635.96 404.551 627.378 399.408 627.378 399.408L630.257 403.988Z" fill="black" fill-opacity="0.302803"/>
</g>
</g>
<g id="Men3.2">
<g id="LLeg_2">
<path id="Path_51" fill-rule="evenodd" clip-rule="evenodd" d="M260.654 526.992C260.654 526.992 260.503 536.001 266.442 539.202C272.38 542.402 281.581 548.349 281.581 548.349L246.58 549.454L247.578 526.911L260.654 526.992Z" fill="#F8CFCF"/>
<path id="Path_52" fill-rule="evenodd" clip-rule="evenodd" d="M245.357 536.92L244.788 551.536H252.918L253.475 549.653C253.475 549.653 256.536 549.537 258.305 550.35C260.174 551.21 260.426 551.627 260.426 551.627L286.213 551.678C286.213 551.678 287.485 546.954 279.625 543.537C271.764 540.119 266.04 535.268 264.953 534.772C263.858 534.272 261.649 533.989 260.093 535.165C258.537 536.339 257.306 539.428 253.78 539.525C249.242 539.65 246.635 534.448 245.357 536.92Z" fill="#4B4B4B"/>
<path id="Path 38" d="M267.396 536.357L264.723 538.765" stroke="white" stroke-width="2" stroke-linecap="round"/>
<path id="Path 38_2" d="M271.294 538.182L268.621 540.59" stroke="white" stroke-width="2" stroke-linecap="round"/>
<path id="Path 38_3" d="M275.193 540.007L272.519 542.415" stroke="white" stroke-width="2" stroke-linecap="round"/>
<path id="Path_53" fill-rule="evenodd" clip-rule="evenodd" d="M235.036 332.35C235.036 332.35 244.76 432.031 245.062 438.961C245.364 445.89 241.939 457.849 242.005 470.81C242.072 483.772 243.257 529.454 243.257 529.454L264.707 529.877C264.707 529.877 273.722 447.326 273.82 434.947C273.916 422.568 274.743 333.542 274.743 333.542L235.036 332.35Z" fill="#383838"/>
<path id="Path_54" opacity="0.283552" fill-rule="evenodd" clip-rule="evenodd" d="M250.497 442.064L250.521 442.31C250.844 446.536 248.025 460.439 242.064 484.019L242.005 470.81V470.81C241.94 458.08 245.243 446.318 245.075 439.337L245.062 438.961C244.96 436.626 243.788 423.757 242.279 407.719L242.983 410.068C247.119 423.981 249.624 434.646 250.497 442.064Z" fill="white" fill-opacity="0.192499"/>
</g>
<g id="RLeg">
<path id="Path_55" fill-rule="evenodd" clip-rule="evenodd" d="M208.905 525.722L204.768 549.053L220.018 548.982L220.5 525.356L208.905 525.722Z" fill="#F8CFCF"/>
<path id="Path_56" fill-rule="evenodd" clip-rule="evenodd" d="M207.045 535.857C205.684 536.132 204.69 537.304 204.641 538.692L204.516 542.211C202.361 544.436 201.342 550.858 201.232 551.586C201.225 551.632 201.221 551.677 201.226 551.724C201.553 554.874 223.706 554.835 225.805 551.875C225.902 551.738 225.91 551.571 225.88 551.407C225.643 550.075 224.404 543.734 222.026 542.001L222.012 538.527C222.007 537.155 221.071 535.962 219.739 535.629L217.251 535.007C215.022 531.98 211.984 532.087 209.381 535.386L207.045 535.857Z" fill="#4B4B4B"/>
<path id="Path 39" d="M210.247 537.907H216.42" stroke="white" stroke-width="2" stroke-linecap="round"/>
<path id="Path 39_2" d="M210.247 540.643H216.42" stroke="white" stroke-width="2" stroke-linecap="round"/>
<path id="Path 39_3" d="M211.228 543.378H215.439" stroke="white" stroke-width="2" stroke-linecap="round"/>
<path id="Path_57" fill-rule="evenodd" clip-rule="evenodd" d="M216.596 333.658C216.596 333.658 209.782 401.988 209.874 415.073C209.967 428.158 211.971 433.905 209.119 443.292C206.266 452.679 203.833 527.603 203.833 527.603L224.929 529.753C224.929 529.753 238.407 449.579 239.873 438.464C241.338 427.348 259.452 332.715 259.452 332.715L216.596 333.658Z" fill="#2E2E2E"/>
<path id="Path_58" opacity="0.283552" fill-rule="evenodd" clip-rule="evenodd" d="M222.294 380.034L221.007 384.371C217.239 397.171 213.761 410.706 214.672 430.041L214.716 430.924C214.94 435.112 212.078 459.42 206.13 503.847L205.565 506.97C204.981 510.154 204.462 512.872 204.007 515.122L204.136 511.187C204.895 489.469 206.934 450.478 209.119 443.292C211.971 433.905 209.967 428.158 209.874 415.073C209.81 405.913 213.129 369.684 215.126 348.771L216.596 333.658L225.501 333.462L225.523 335.79C225.68 357.274 224.603 372.022 222.294 380.034V380.034Z" fill="white" fill-opacity="0.192499"/>
</g>
<g id="LArm_2">
<g id="Group 6">
<path id="Path_59" fill-rule="evenodd" clip-rule="evenodd" d="M320.389 249.16C320.389 249.16 318.628 240.123 319.261 238.292C319.802 236.711 324.915 234.43 324.915 234.43C324.915 234.43 333.807 221.496 335.753 222.813C337.336 223.88 331.122 233.416 331.122 233.416C331.122 233.416 336.788 238.89 336.709 241.337C336.63 243.784 327.461 251.444 327.461 251.444L320.389 249.16Z" fill="#F8CFCF"/>
<path id="Path_60" fill-rule="evenodd" clip-rule="evenodd" d="M325.106 234.3C325.106 234.3 329.044 233.807 329.671 234.935C330.205 235.897 326.933 238.624 326.933 239.391C326.933 240.157 326.98 245.96 327.243 246.013C327.506 246.065 331.188 236.544 330.403 234.53C329.756 232.876 325.106 234.3 325.106 234.3Z" fill="#F28585"/>
</g>
<path id="Path_61" fill-rule="evenodd" clip-rule="evenodd" d="M273.412 260.659C263.097 252.362 247.608 267.32 264.879 281.226C271.468 286.531 292.166 299.764 297.239 302.674C305.317 307.306 311.954 303.126 314.682 295.838C316.996 289.659 330.836 256.583 329.075 251.725C327.926 248.557 321.763 245.474 318.669 247.967C314.147 251.611 300.317 283.574 300.317 283.574C300.317 283.574 285.14 270.093 273.412 260.659Z" fill="#877BFF"/>
<path id="Path_62" fill-rule="evenodd" clip-rule="evenodd" d="M300.317 283.574C300.317 283.574 304.847 288.689 305.174 287.908C305.501 287.127 301.582 280.553 301.582 280.553L300.317 283.574Z" fill="black" fill-opacity="0.159856"/>
<path id="Path 41" d="M317.467 250.016C321.066 248.465 324.997 250.383 327.164 253.46" stroke="#5386BF" stroke-linecap="round"/>
</g>
<g id="Head_2">
<path id="Path_63" fill-rule="evenodd" clip-rule="evenodd" d="M229.194 251.09C229.194 251.09 235.124 249.819 235.33 240.95C235.535 232.081 235.391 229.054 235.391 229.054L249.45 228.839C249.45 228.839 249.592 238.723 249.594 242.298C249.6 250.082 255.933 252.184 255.933 252.184C255.933 252.184 255.406 260.695 243.57 261.302C234.329 261.777 229.194 251.09 229.194 251.09Z" fill="#F8C5C5"/>
<g id="Head1">
<path id="Path_64" fill-rule="evenodd" clip-rule="evenodd" d="M261.975 219.493L261.661 227.875C264.318 225.025 266.112 221.492 266.644 216.96L261.975 219.493Z" fill="url(#paint6_linear_4_6)"/>
<path id="Path_65" fill-rule="evenodd" clip-rule="evenodd" d="M234.1 224.571C228.273 224.365 229.223 232.151 235.277 232.141C235.277 232.141 241.782 244.08 251.996 244.111C256.915 244.126 258.522 240.126 259.997 237.318C261.471 234.51 262.554 230.31 262.644 227.738C262.741 224.996 262.753 215.988 262.753 215.988L233.873 215.976L234.1 224.571Z" fill="#F8CFCF"/>
<path id="Path_66" fill-rule="evenodd" clip-rule="evenodd" d="M262.753 220.121H242.442C242.229 223.471 241.01 226.253 237.915 228.305C238.002 233.212 239.801 236.785 242.92 239.29C245.635 232.187 262.246 234.131 261.038 238.765C258.5 248.501 234.71 248.722 236.153 226.313C235.204 225.132 231.81 224.912 230.693 226.093C228.785 221.197 229.599 214.271 235.117 213.269C230.786 202.837 289.687 200.63 262.753 220.121Z" fill="#424242"/>
<path id="Path_67" d="M249.739 238.335C249.739 238.335 252.385 240.109 255.869 238.169" stroke="#CC6969" stroke-linecap="round"/>
<path id="Path 8_2" d="M235.009 229.016C235.069 227.767 234.651 226.775 233.256 226.576" stroke="#DE6767" stroke-linecap="round"/>
</g>
</g>
<g id="Body_2">
<path id="Path_68" fill-rule="evenodd" clip-rule="evenodd" d="M231.801 249.609L248.579 259.741L256.144 251.561C256.144 251.561 272.081 256.153 275.037 261.522C279.304 269.269 273.683 331.338 276.133 335.084C281.355 343.065 274.412 348.544 251.428 350.557C228.444 352.57 208.054 350.922 211.754 340.271C215.455 329.619 201.174 260.104 213.764 256.275C217.698 255.078 231.801 249.609 231.801 249.609Z" fill="#7367F0"/>
<path id="Path_69" fill-rule="evenodd" clip-rule="evenodd" d="M220.479 268.773C221.495 270.443 220.971 276.228 218.908 286.128C217.15 294.562 219.16 303.287 224.467 310.325L224.766 310.715C226.56 313.021 228.215 316.057 229.729 319.824C233.444 329.061 224.877 336.762 231.442 351.214L230.648 351.179C217.766 350.559 209.251 347.473 211.754 340.271C214.788 331.537 205.735 283.233 209.315 264.007C215.513 265.139 219.234 266.727 220.479 268.773Z" fill="black" fill-opacity="0.159856"/>
<path id="Path_70" fill-rule="evenodd" clip-rule="evenodd" d="M231.801 249.609L246.808 258.706C244.608 261.082 243.429 263.847 242.983 266.891C237.216 262.699 231.221 256.841 229.363 250.542L231.801 249.609Z" fill="#5E54C7"/>
<path id="Path_71" fill-rule="evenodd" clip-rule="evenodd" d="M249.765 258.469C252.302 260.064 254.327 262.888 255.974 266.099C257.95 262.409 258.707 257.536 258.707 252.339L256.228 251.428L249.765 258.469Z" fill="#5E54C7"/>
<path id="Path_72" fill-rule="evenodd" clip-rule="evenodd" d="M246.808 258.705L247.031 258.82C247.926 259.285 249.016 259.145 249.765 258.469V258.469C255.423 277.748 259.402 298.968 260.605 320.535L254.7 329.65L247.794 321.119C248.693 298.705 248.687 276.851 246.808 258.705Z" fill="#CBC6FF"/>
</g>
<g id="RArm_2">
<g id="Example Book Back">
<g id="Group 3">
<path id="Rectangle_16" d="M261.799 307.421C261.956 306.033 263.236 305.035 264.62 305.224L278.828 307.157C280.14 307.336 281.06 308.519 280.911 309.835L278.438 331.741C278.282 333.13 277.001 334.127 275.617 333.939L261.409 332.005C260.098 331.827 259.177 330.644 259.326 329.328L261.799 307.421Z" fill="#6182EC"/>
<path id="Rectangle_17" fill-rule="evenodd" clip-rule="evenodd" d="M263.428 306.97C263.59 305.538 264.943 304.531 266.359 304.79L280.959 307.456L291.067 307.298C292.54 307.275 293.687 308.536 293.522 309.998L291.052 331.876C290.911 333.121 289.857 334.077 288.602 334.096L277.933 334.263L262.93 331.523C261.671 331.293 260.813 330.137 260.957 328.863L263.428 306.97Z" fill="#96EFFA"/>
<path id="Rectangle_18" d="M266.006 312.1C266.111 311.177 266.977 310.525 267.891 310.681L274.799 311.858C275.626 311.998 276.193 312.754 276.099 313.588L275.807 316.178C275.703 317.1 274.836 317.752 273.922 317.597L267.014 316.42C266.188 316.279 265.62 315.523 265.714 314.689L266.006 312.1Z" fill="#74CFDB"/>
<path id="Rectangle_19" d="M279.87 308.153C279.919 307.714 280.316 307.393 280.756 307.436L281.505 307.509C281.945 307.552 282.261 307.943 282.212 308.382L279.375 333.512C279.325 333.951 278.929 334.272 278.489 334.229L277.739 334.156C277.3 334.113 276.983 333.722 277.033 333.283L279.87 308.153Z" fill="#EAEFFF"/>
<path id="Rectangle_20" d="M280.651 308.229C280.7 307.79 281.097 307.469 281.536 307.512L282.286 307.586C282.726 307.629 283.042 308.019 282.993 308.459L280.156 333.589C280.106 334.028 279.709 334.349 279.27 334.306L278.52 334.232C278.08 334.189 277.764 333.799 277.814 333.36L280.651 308.229Z" fill="#7AD2DD"/>
</g>
</g>
<path id="Path_73" fill-rule="evenodd" clip-rule="evenodd" d="M247.133 317.264C247.133 317.264 252.228 316.317 254.313 314.802C256.398 313.288 262.713 312.218 262.713 312.218L260.693 316.153C260.693 316.153 276.17 314.809 276.536 316.222C276.903 317.634 272.427 319.17 272.427 319.17C272.427 319.17 270.219 322.984 268.082 325.195C266.06 327.288 256.014 327.038 252.492 325.733C249.449 324.605 246.14 325.169 246.14 325.169L247.133 317.264Z" fill="#F8CFCF"/>
<path id="Path_74" fill-rule="evenodd" clip-rule="evenodd" d="M206.154 262.268C211.689 251.204 230.639 258.658 225.863 270.51C221.237 281.992 210.029 308.8 210.029 308.8C210.029 308.8 245.546 312.971 248.315 314.916C252.009 317.511 249.726 324.917 246.586 326.235C243.93 327.35 224.198 328.002 204.893 326.595C195.342 325.898 188.279 322.102 187.294 312.243C186.604 305.339 200.823 272.926 206.154 262.268Z" fill="#877BFF"/>
<path id="Path_75" fill-rule="evenodd" clip-rule="evenodd" d="M210.042 308.793C210.042 308.793 207.09 313.984 207.934 314.09C208.778 314.196 213.067 309.173 213.067 309.173L210.042 308.793Z" fill="black" fill-opacity="0.159856"/>
<path id="Path 40" d="M245.815 314.352C246.91 317.588 246.14 321.382 244.621 324.063" stroke="#5386BF" stroke-linecap="round"/>
</g>
</g>
<g id="Vase2">
<g id="Group 39">
<path id="Rectangle_21" fill-rule="evenodd" clip-rule="evenodd" d="M95.4684 458.888V458.888C104.651 455.049 115.597 459.244 119.861 468.237L122.68 474.183V474.183C113.497 478.022 102.551 473.826 98.2876 464.834L95.4684 458.888Z" fill="#02D3AF"/>
<path id="Path_76" fill-rule="evenodd" clip-rule="evenodd" d="M108.589 462.979C117.753 469.05 123.695 475.816 126.434 483.275C129.186 490.77 130.313 503.335 129.801 520.944C129.793 521.217 130.022 521.444 130.313 521.451C130.603 521.459 130.845 521.244 130.853 520.971C131.368 503.252 130.231 490.588 127.428 482.953C124.612 475.281 118.528 468.355 109.195 462.172C108.958 462.014 108.63 462.067 108.462 462.29C108.295 462.513 108.352 462.821 108.589 462.979Z" fill="#02B596"/>
<path id="Rectangle_22" fill-rule="evenodd" clip-rule="evenodd" d="M173.369 454.723V454.723C164.333 450.766 153.403 454.738 149.015 463.574L145.802 470.044V470.044C154.839 474.001 165.768 470.029 170.156 461.194L173.369 454.723Z" fill="#02D3AF"/>
<g id="Group 88">
<path id="Rectangle_23" d="M101.172 438.243V438.243C109.885 436.518 118.552 442.141 120.529 450.8L121.802 456.377V456.377C113.089 458.102 104.422 452.479 102.445 443.82L101.172 438.243Z" fill="#02D3AF"/>
<path id="Path_77" fill-rule="evenodd" clip-rule="evenodd" d="M107.58 443.483C114.295 447.848 118.839 452.555 121.221 457.598L121.368 457.915L121.515 458.249C123.957 463.892 127.999 478.672 133.619 502.532C133.682 502.798 133.963 502.967 134.247 502.909C134.53 502.851 134.71 502.588 134.647 502.322L133.951 499.379L133.137 495.972C128.059 474.83 124.414 461.923 122.183 457.2C119.714 451.974 115.041 447.133 108.177 442.672C107.938 442.516 107.61 442.572 107.445 442.796C107.28 443.02 107.341 443.327 107.58 443.483Z" fill="#02B596"/>
</g>
<path id="Rectangle_24" fill-rule="evenodd" clip-rule="evenodd" d="M160.189 433.252V433.252C150.585 433.095 142.653 440.754 142.475 450.358L142.349 457.136V457.136C151.952 457.294 159.884 449.635 160.063 440.031L160.189 433.252Z" fill="#02D3AF"/>
<path id="Path_78" fill-rule="evenodd" clip-rule="evenodd" d="M153.886 436.46C147.709 444.901 143.195 453.047 140.347 460.902C137.503 468.742 134.668 480.85 131.834 497.236C131.788 497.505 131.983 497.759 132.269 497.802C132.556 497.846 132.826 497.663 132.873 497.394L133.221 495.402L133.46 494.059C136.089 479.407 138.718 468.458 141.342 461.22C144.158 453.456 148.627 445.389 154.753 437.02C154.918 436.795 154.857 436.488 154.618 436.333C154.378 436.179 154.051 436.235 153.886 436.46Z" fill="#02B596"/>
<g id="Group 87">
<path id="Path_79" fill-rule="evenodd" clip-rule="evenodd" d="M140.505 430.932C140.505 430.932 135.495 444.219 133.281 463.793C131.066 483.366 132.358 502.939 132.358 502.939L134.803 503.146C134.803 503.146 133.49 480.301 135.067 463.879C136.644 447.457 141.727 431.035 141.727 431.035L140.505 430.932Z" fill="#02B596"/>
<ellipse id="Oval_6" cx="8.0376" cy="11.5704" rx="8.0376" ry="11.5704" transform="matrix(0.9741 0.226119 -0.258683 0.965962 138.22 411.355)" fill="#C2FFF4"/>
<ellipse id="Oval_7" cx="5.59132" cy="7.54338" rx="5.59132" ry="7.54338" transform="matrix(0.9741 0.226119 -0.258683 0.965962 139.723 416.494)" fill="#02D3AF"/>
<path id="Path_80" fill-rule="evenodd" clip-rule="evenodd" d="M142.528 431.644L147.035 418.547C147.303 417.768 146.848 416.933 146.019 416.681C145.19 416.429 144.3 416.857 144.032 417.635L139.525 430.733C139.257 431.512 139.712 432.347 140.541 432.599C141.37 432.85 142.26 432.423 142.528 431.644Z" fill="url(#paint7_linear_4_6)"/>
</g>
<g id="Group 87_2">
<path id="Path_81" fill-rule="evenodd" clip-rule="evenodd" d="M116.117 417.766C116.117 417.766 122.591 430.493 126.991 449.743C131.391 468.994 132.303 488.585 132.303 488.585L129.895 489.029C129.895 489.029 128.636 466.182 125.224 450.003C121.812 433.825 114.913 417.987 114.913 417.987L116.117 417.766Z" fill="#02B596"/>
<ellipse id="Oval_8" cx="8.006" cy="11.6218" rx="8.006" ry="11.6218" transform="matrix(-0.947099 0.32094 0.3641 0.93136 116.191 398.073)" fill="#C2FFF4"/>
<ellipse id="Oval_9" cx="5.56934" cy="7.57687" rx="5.56934" ry="7.57687" transform="matrix(-0.947099 0.32094 0.3641 0.93136 115.274 403.331)" fill="#02D3AF"/>
<path id="Path_82" fill-rule="evenodd" clip-rule="evenodd" d="M114.185 418.671L108.232 406.084C107.878 405.335 108.237 404.46 109.033 404.129C109.83 403.798 110.762 404.137 111.116 404.885L117.07 417.472C117.424 418.221 117.065 419.096 116.268 419.427C115.472 419.758 114.539 419.419 114.185 418.671Z" fill="url(#paint8_linear_4_6)"/>
</g>
<path id="Path_83" fill-rule="evenodd" clip-rule="evenodd" d="M168.404 456.821C155.932 461.365 147.235 466.616 142.318 472.594C137.401 478.572 134.152 487.842 132.549 500.407C132.515 500.678 132.721 500.924 133.009 500.956C133.298 500.989 133.559 500.795 133.594 500.524C135.176 488.121 138.368 479.012 143.15 473.198C147.932 467.386 156.475 462.227 168.785 457.742C169.056 457.644 169.19 457.357 169.085 457.103C168.98 456.849 168.675 456.723 168.404 456.821Z" fill="#02B596"/>
</g>
<g id="Group 38">
<path id="Path 151" fill-rule="evenodd" clip-rule="evenodd" d="M134.978 493.276C129.056 473.628 105.67 479.377 105.67 479.377C105.67 479.377 123.179 484.705 132.108 493.276H134.978Z" fill="#02B596"/>
<path id="Path 151_2" fill-rule="evenodd" clip-rule="evenodd" d="M134.917 490.257C140.839 470.609 160.578 473.483 160.578 473.483C160.578 473.483 148.59 482.657 137.787 490.257H134.917Z" fill="#02B596"/>
<path id="Path 151_3" fill-rule="evenodd" clip-rule="evenodd" d="M134.874 494.163C129.58 476.732 141.929 461.728 141.929 461.728C141.929 461.728 141.303 482.371 137.011 492.89L134.874 494.163Z" fill="#02B596"/>
<path id="Path 114" fill-rule="evenodd" clip-rule="evenodd" d="M129.694 490.257C127.353 483.959 125.025 475.163 123.28 466.635C131.904 469.864 134.674 482.729 131.904 490.257H129.694Z" fill="#02D3AF"/>
<g id="Group 89">
<path id="Rectangle_25" fill-rule="evenodd" clip-rule="evenodd" d="M112.857 486.146C112.746 484.964 113.677 483.942 114.865 483.942H149.375C150.562 483.942 151.493 484.964 151.382 486.146L144.807 556.193C144.71 557.229 143.84 558.021 142.8 558.021H121.439C120.399 558.021 119.529 557.229 119.432 556.193L112.857 486.146Z" fill="#7569EC"/>
<mask id="mask1_4_6" style="mask-type:luminance" maskUnits="userSpaceOnUse" x="112" y="483" width="40" height="76">
<path id="Rectangle_26" fill-rule="evenodd" clip-rule="evenodd" d="M112.857 486.146C112.746 484.964 113.677 483.942 114.865 483.942H149.375C150.562 483.942 151.493 484.964 151.382 486.146L144.807 556.193C144.71 557.229 143.84 558.021 142.8 558.021H121.439C120.399 558.021 119.529 557.229 119.432 556.193L112.857 486.146Z" fill="white"/>
</mask>
<g mask="url(#mask1_4_6)">
<path id="Rectangle_27" fill-rule="evenodd" clip-rule="evenodd" d="M107.739 479.317H122.119C113.208 510.813 140.033 532.467 122.119 563.963H107.739V479.317Z" fill="#8175FF"/>
</g>
</g>
</g>
</g>
<g id="Chair4_2">
<path id="Path 25" fill-rule="evenodd" clip-rule="evenodd" d="M754.645 465.647L741.933 559.152L748.598 559.07L761.309 466.523L754.645 465.647Z" fill="#91D6FF"/>
<path id="Path_84" fill-rule="evenodd" clip-rule="evenodd" d="M717.654 465.647L704.942 559.152L711.606 559.07L724.318 466.523L717.654 465.647Z" fill="#91D6FF"/>
<path id="Path_85" fill-rule="evenodd" clip-rule="evenodd" d="M798.8 465.647L811.512 559.152L804.847 559.07L792.135 466.523L798.8 465.647Z" fill="#BFE7FF"/>
<path id="Path_86" fill-rule="evenodd" clip-rule="evenodd" d="M712.068 480.345C706.673 480.345 702.3 475.972 702.3 470.577V470.577C702.3 465.181 706.673 460.808 712.068 460.808H755.93C761.623 460.808 766.39 456.498 766.962 450.834L773.755 383.601C774.327 377.938 779.094 373.628 784.786 373.628H813.563C820.046 373.628 825.146 379.166 824.613 385.628L817.636 470.169C817.161 475.92 812.356 480.345 806.586 480.345H712.068Z" fill="#91D6FF"/>
<path id="Combined Shape_2" fill-rule="evenodd" clip-rule="evenodd" d="M813.978 373.649C814.086 374.437 814.11 375.25 814.041 376.078L807.069 460.321C806.593 466.071 801.788 470.494 796.019 470.494H702.301C702.3 470.431 702.3 470.367 702.3 470.303C702.3 464.922 706.662 460.56 712.043 460.56H755.778C761.469 460.56 766.236 456.252 766.81 450.59L773.597 383.598C774.171 377.936 778.937 373.628 784.628 373.628H813.281C813.515 373.628 813.748 373.635 813.978 373.649Z" fill="#BFE7FF"/>
</g>
<g id="Wom2.4">
<g id="LLeg_3">
<path id="Path_87" fill-rule="evenodd" clip-rule="evenodd" d="M715.056 529.288C715.056 529.288 720.884 540.247 716.107 543.7C711.322 547.154 698.684 553.626 698.684 553.626L732.166 551.667L724.724 527.768L715.056 529.288Z" fill="url(#paint9_linear_4_6)"/>
<path id="Path_88" fill-rule="evenodd" clip-rule="evenodd" d="M728.849 539.204C727.796 539.673 729.528 544.076 725.821 543.766C722.115 543.458 719.788 538.906 717.055 539.202C714.321 539.497 712.586 544.08 707.382 547.272C702.179 550.465 694.464 554.273 694.981 557.483C695.498 560.692 707.638 561.552 713.789 560.489C719.94 559.428 722.811 557.126 726.801 557.309C730.791 557.492 733.299 557.038 734.55 554.652C735.8 552.267 730.065 538.664 728.849 539.204Z" fill="#EEDFE8"/>
<path id="Path_89" fill-rule="evenodd" clip-rule="evenodd" d="M728.553 553.854L728.212 553.836C723.267 553.448 719.874 556.344 715.167 557.16C710.459 557.977 698.044 558.26 696.062 555.518C695.968 555.388 695.88 555.255 695.8 555.12C695.134 555.883 694.82 556.698 694.981 557.649C695.498 560.703 707.639 561.522 713.79 560.51C719.942 559.5 722.813 557.309 726.804 557.484L727.513 557.508C731.094 557.599 733.378 557.088 734.553 554.955C734.839 554.436 734.775 553.318 734.488 551.906C732.819 552.969 730.712 553.916 728.553 553.854V553.854Z" fill="#EC7AA5"/>
<path id="Path_90" fill-rule="evenodd" clip-rule="evenodd" d="M765.493 432.706C755.357 433.127 698.94 444.745 688.69 446.718C678.441 448.692 669.775 459.372 677.591 471.739C686.37 485.621 709.02 525.047 714.519 533.934C717.241 538.333 730.973 535.867 727.748 528.483C721.735 514.72 718.942 480.144 703.612 467.537C703.612 467.537 755.168 475.891 777.437 466.322C793.623 459.366 789.961 431.687 765.493 432.706Z" fill="#413C75"/>
</g>
<g id="LArm_3">
<path id="Path_91" fill-rule="evenodd" clip-rule="evenodd" d="M694.783 373.797C694.783 373.797 694.898 368.187 692.013 364.174C689.128 360.161 689.013 355.898 686.83 356.038C684.646 356.177 686.808 366.085 686.808 366.085C686.808 366.085 684.038 365.1 682.048 363.854C680.057 362.607 674.023 356.462 672.612 357.551C670.221 359.407 674.073 369.872 676.17 371.964C678.275 374.057 688.661 379.905 688.661 379.905L719.249 408.595L723.822 393.364L694.783 373.797Z" fill="url(#paint10_linear_4_6)"/>
<path id="Path_92" fill-rule="evenodd" clip-rule="evenodd" d="M755.964 371.264C751.248 381.447 742.615 400.151 739.055 405.732C734.595 412.721 727.561 415.8 719.326 410.614C717.603 409.53 712.655 405.735 712.655 405.735C713.387 399.093 716.053 393.541 720.647 389.078L723.767 391.481C723.767 391.481 732.616 370.362 739.735 358.127C745.9 347.543 763.141 355.785 755.964 371.264Z" fill="#EA5455"/>
<path id="Path_93" fill-rule="evenodd" clip-rule="evenodd" d="M723.676 391.492C723.676 391.492 721.299 398.997 720.743 398.563C720.188 398.128 721.168 389.53 721.168 389.53L723.676 391.492Z" fill="black" fill-opacity="0.159856"/>
</g>
<g id="Head_3">
<path id="Path_94" fill-rule="evenodd" clip-rule="evenodd" d="M776.342 331.741V340.751L783.449 335.424C783.449 335.424 785.633 326.792 787.409 320.38C788.523 316.36 791.238 302.753 780.311 303.391C771.36 288.7 745.292 297.793 745.085 315.74C744.835 337.326 745.039 345.73 745.039 345.73C759.78 346.518 768.077 344.533 776.342 331.741Z" fill="#422851"/>
<path id="Path_95" fill-rule="evenodd" clip-rule="evenodd" d="M783.602 348.895C783.602 348.895 776.992 347.451 776.762 337.366C776.533 327.281 776.694 323.838 776.694 323.838L762.133 323.594C762.133 323.594 761.974 334.833 761.972 338.899C761.965 348.783 754.158 349.594 754.158 349.594C754.158 349.594 755.492 357.749 768.687 358.44C778.989 358.98 783.602 348.895 783.602 348.895Z" fill="url(#paint11_linear_4_6)"/>
<path id="Path_96" fill-rule="evenodd" clip-rule="evenodd" d="M780.088 318.803C786.584 318.568 785.525 327.422 778.777 327.41C778.777 327.41 774.857 339.987 761.25 339.987C750.199 339.987 749.48 325.328 749.38 322.404C749.272 319.286 749.259 309.043 749.259 309.043L780.341 309.029L780.088 318.803Z" fill="url(#paint12_linear_4_6)"/>
<path id="Path_97" fill-rule="evenodd" clip-rule="evenodd" d="M780.591 318.744C777.899 319.158 778.226 320.817 777.494 320.672C773.777 319.936 758.731 320.907 756.793 313.204C754.383 318.016 753.794 319.199 748.486 320.491V306.389L782.058 303.391C782.058 303.391 781.537 318.598 780.591 318.744Z" fill="#422851"/>
<path id="Path_98" d="M763.874 331.538C763.874 331.538 760.632 334.093 756.879 331.7" stroke="#F77B7B" stroke-width="1.5" stroke-linecap="round"/>
<path id="Path_99" d="M761.734 334.497C760.726 334.93 759.755 334.961 758.888 334.529" stroke="#F49494" stroke-linecap="round"/>
<path id="Path 8_3" d="M779.426 323.564C779.359 322.144 779.825 321.016 781.381 320.789" stroke="#F77B7B" stroke-linecap="round"/>
</g>
<g id="Body_3">
<path id="Path_100" fill-rule="evenodd" clip-rule="evenodd" d="M782.126 347.864C773.829 352.595 764.239 354.329 755.31 349.192C740.74 375.939 737.109 407.853 740.614 443.126C761.86 450.957 779.716 449.417 794.918 440.466L782.126 347.864Z" fill="#FFE4F4"/>
<g id="RLeg_2">
<path id="Path_101" fill-rule="evenodd" clip-rule="evenodd" d="M678.738 529.728C678.738 529.728 678.913 542.626 667.498 547.449C656.09 552.27 647.962 551.98 648.997 555.708C650.031 559.435 679.725 559.285 682.498 556.369C684.862 553.889 690.001 530.795 691.416 532.561L678.738 529.728Z" fill="url(#paint13_linear_4_6)"/>
<path id="Path_102" fill-rule="evenodd" clip-rule="evenodd" d="M687.029 547.943C685.28 546.771 683.809 553.53 679.057 551.65C674.305 549.771 678.052 543.559 675.062 542.414C672.071 541.268 666.297 547.428 658.627 548.925C650.958 550.421 644.731 551.731 642.961 554.51C641.437 556.899 642.961 557.663 642.961 557.663C642.961 557.663 650.344 561.095 654.932 561.851C661.597 562.949 680.859 563.679 682.97 561.678C684.266 560.451 687.904 548.53 687.029 547.943Z" fill="#EEDFE8"/>
<path id="Path_103" fill-rule="evenodd" clip-rule="evenodd" d="M642.545 554.791C641.099 556.987 643.381 558.129 643.654 558.255L644.754 558.692C646.843 559.5 651.555 561.234 655.038 561.853C661.423 562.99 681.196 563.663 683.323 561.709C683.697 561.366 684.158 560.112 684.605 558.481L683.249 558.619C676.719 559.263 662.143 560.429 654.95 558.851C648.565 557.45 645.07 555.147 643.476 553.802C643.089 554.112 642.776 554.44 642.545 554.791Z" fill="#EC7AA5"/>
<path id="Path_104" fill-rule="evenodd" clip-rule="evenodd" d="M797.253 428.719C797.253 428.719 811.99 457.694 791.28 467.643C771.253 477.265 711.296 465.885 711.296 465.885C711.296 465.885 712.368 473.916 711.296 481.078C708.498 499.785 695.19 530.952 692.375 534.868C688.481 540.283 676.62 536.199 676.397 531.69C676.174 527.18 685.338 469.589 686.732 458.607C688.118 447.624 692.496 446.029 705.281 443.026C708.218 442.337 742.951 434.3 746.133 434.534C773.473 436.547 797.253 428.719 797.253 428.719Z" fill="#524D87"/>
<path id="Path_105" fill-rule="evenodd" clip-rule="evenodd" d="M781.099 464.653C761.271 466.722 708.777 462.458 706.668 464.395C704.655 466.245 704.991 498.427 700.476 517.053L701.163 515.294C705.409 504.313 709.818 490.958 711.296 481.078C712.368 473.916 711.296 465.885 711.296 465.885L713.714 466.321C725.111 468.314 773.656 476.111 791.28 467.643C800.83 463.055 804.727 455.433 802.971 444.777C799.948 456.822 792.657 463.447 781.099 464.653Z" fill="white" fill-opacity="0.056108"/>
</g>
<path id="Path_106" fill-rule="evenodd" clip-rule="evenodd" d="M781.763 347.885C768.023 389.79 759.783 449.2 802.695 438.864C779.9 399.789 810.888 382.203 803.864 362.008C801.463 355.104 781.942 347.344 781.763 347.885Z" fill="#EA5455"/>
<path id="Path_107" fill-rule="evenodd" clip-rule="evenodd" d="M797.26 365.286C781.731 367.468 794.532 392.712 789.406 396.515C784.28 400.318 775.358 400.728 774.396 403.051C772.462 407.721 781.809 419.508 802.436 438.414L802.695 438.864C782.838 404.827 803.792 387.094 804.882 369.74C802.581 366.38 800.04 364.896 797.26 365.286Z" fill="black" fill-opacity="0.159856"/>
<path id="Path_108" fill-rule="evenodd" clip-rule="evenodd" d="M756.038 348.898C750.794 361.142 748.274 370.749 745.922 388.721C743.961 403.689 744.943 434.576 744.943 434.576L738.463 435.762C738.463 435.762 733.831 388.043 735.38 381.898C737.979 371.588 739.74 365.564 743.171 356.138C745.062 350.965 756.038 348.898 756.038 348.898Z" fill="#EA5455"/>
</g>
<g id="RArm_3">
<path id="Path_109" fill-rule="evenodd" clip-rule="evenodd" d="M778.877 395.458C778.877 395.458 770.417 387.571 767.487 386.656C764.558 385.741 748.509 384.641 748.617 386.709C748.74 388.925 759.068 388.798 760.023 389.888C760.978 390.977 762.305 399.461 765.915 400.298C769.518 401.134 776.986 403.61 776.986 403.61L810.228 419.602L806.687 403.612L778.877 395.458Z" fill="url(#paint14_linear_4_6)"/>
<path id="Path_110" fill-rule="evenodd" clip-rule="evenodd" d="M804.34 362.066C814.423 375.315 823.032 395.498 826.337 403.366C829.641 411.235 826.308 423.103 811.777 420.773C810.047 420.496 807.232 419.476 807.232 419.476C801.889 412.657 800.952 406.803 802.946 401.591C802.946 401.591 804.826 402.329 804.826 402.329C804.826 402.329 790.383 378.495 786.857 372.106C780.966 361.436 795.458 350.392 804.34 362.066Z" fill="#EA5455"/>
<path id="Path_111" fill-rule="evenodd" clip-rule="evenodd" d="M804.826 402.329C804.826 402.329 812.161 405.665 811.239 404.198C810.316 402.73 802.031 397.696 802.031 397.696L804.826 402.329Z" fill="black" fill-opacity="0.159856"/>
</g>
</g>
<g id="Example Ipad1">
<g id="Group 3_2">
<path id="Rectangle_28" fill-rule="evenodd" clip-rule="evenodd" d="M651.554 358.16C651.202 356.845 651.991 355.53 653.317 355.223L679.9 349.052C681.226 348.744 682.586 349.56 682.938 350.875L692.454 386.411C692.806 387.726 692.017 389.041 690.691 389.348L664.108 395.519C662.783 395.827 661.423 395.011 661.071 393.696L651.554 358.16Z" fill="url(#paint15_linear_4_6)"/>
<path id="Rectangle_29" fill-rule="evenodd" clip-rule="evenodd" d="M652.571 358.73C652.219 357.415 653.008 356.1 654.334 355.792L680.917 349.622C682.243 349.314 683.603 350.13 683.955 351.445L693.471 386.981C693.823 388.295 693.034 389.61 691.708 389.918L665.125 396.089C663.8 396.396 662.44 395.58 662.088 394.266L652.571 358.73Z" fill="#518DF8"/>
<path id="Rectangle_30" d="M653.685 359.05C653.369 357.867 654.079 356.683 655.272 356.406L680.252 350.608C681.445 350.331 682.669 351.065 682.985 352.248L691.589 384.377C691.906 385.56 691.196 386.743 690.003 387.02L665.023 392.819C663.83 393.096 662.606 392.361 662.289 391.178L653.685 359.05Z" fill="white"/>
</g>
</g>
<g id="Group 26_10">
<g id="Group 25">
<path id="Rectangle_31" fill-rule="evenodd" clip-rule="evenodd" d="M426.334 409.786H439.016V559.629H426.334L426.334 409.786Z" fill="#E9E9E9"/>
<path id="Rectangle_32" fill-rule="evenodd" clip-rule="evenodd" d="M302.105 414.712L402.293 414.712V442.542H318.799V559.629H302.105V414.712Z" fill="#D3D3D3"/>
<path id="Rectangle_33" fill-rule="evenodd" clip-rule="evenodd" d="M301.457 414.712H310.344V559.629H301.457L301.457 414.712Z" fill="#DBDBDB"/>
</g>
<g id="Group 25_2">
<path id="Rectangle_34" fill-rule="evenodd" clip-rule="evenodd" d="M737.63 414.712H755.404V559.629H737.63V414.712Z" fill="#E9E9E9"/>
<path id="Rectangle_35" fill-rule="evenodd" clip-rule="evenodd" d="M737.63 409.786H748.739V559.629H737.63L737.63 409.786Z" fill="#DBDBDB"/>
<path id="Rectangle_36" fill-rule="evenodd" clip-rule="evenodd" d="M590.524 414.712L744.936 414.712V442.178H611.306V559.629H590.524V414.712Z" fill="#D3D3D3"/>
<path id="Rectangle_37" fill-rule="evenodd" clip-rule="evenodd" d="M314.563 409.786L591.049 409.786V451.395H314.563L314.563 409.786Z" fill="#DBDBDB"/>
<path id="Rectangle_38" fill-rule="evenodd" clip-rule="evenodd" d="M584.708 414.712H597.391V451.395H584.708V414.712Z" fill="#E9E9E9"/>
<path id="Rectangle_39" fill-rule="evenodd" clip-rule="evenodd" d="M590.563 414.712H600.561V559.629H590.563V414.712Z" fill="#DBDBDB"/>
<path id="Rectangle_40" fill-rule="evenodd" clip-rule="evenodd" d="M592.156 417.175C592.156 413.094 595.464 409.786 599.545 409.786L761.856 409.786C765.937 409.786 769.244 413.094 769.244 417.175V417.175C769.244 421.255 765.937 424.563 761.856 424.563H599.545C595.464 424.563 592.156 421.255 592.156 417.175V417.175Z" fill="#E9E9E9"/>
<path id="Rectangle_41" fill-rule="evenodd" clip-rule="evenodd" d="M311.392 412.742H587.879V427.518H311.392V412.742Z" fill="#E9E9E9"/>
<path id="Rectangle_42" fill-rule="evenodd" clip-rule="evenodd" d="M288.141 417.175C288.141 413.094 291.449 409.786 295.529 409.786H603.742C607.822 409.786 611.13 413.094 611.13 417.175V417.175C611.13 421.255 607.822 424.563 603.742 424.563H295.529C291.449 424.563 288.141 421.255 288.141 417.175V417.175Z" fill="#DBDBDB"/>
</g>
</g>
<g id="Men2.8">
<g id="RLeg_3">
<path id="Path_112" fill-rule="evenodd" clip-rule="evenodd" d="M337.667 522.841L328.894 549.362L347.298 549.984C347.298 549.984 345.22 540.911 348.187 532.407C350.566 525.58 352.509 522.172 352.509 522.172L337.667 522.841Z" fill="#92691F"/>
<path id="Path_113" fill-rule="evenodd" clip-rule="evenodd" d="M346.816 542.695C346.816 542.695 353.841 548.756 360.595 551.002C367.35 553.248 369.936 553.272 370.418 554.117L370.505 554.278C371.895 556.949 371.052 560.496 355.654 560.693C351.911 560.74 348.02 558.716 337.691 556.575L336.945 560.318C331.164 560.247 327.791 559.399 326.826 557.773C325.371 555.341 327.843 543.35 329.549 543.123C331.255 542.896 331.592 547.772 336.172 547.879C340.759 547.986 346.816 542.695 346.816 542.695Z" fill="#391B0B"/>
<path id="Combined Shape_3" fill-rule="evenodd" clip-rule="evenodd" d="M360.415 550.941C360.206 551.11 359.953 551.289 359.656 551.459C358.636 552.042 357.1 552.505 355.033 552.065C353.984 551.842 352.811 551.216 351.654 550.424C350.493 549.629 349.328 548.651 348.292 547.705C347.256 546.758 346.346 545.838 345.695 545.155C345.37 544.814 345.109 544.531 344.929 544.334C344.896 544.298 344.866 544.265 344.839 544.235C344.98 544.133 345.116 544.034 345.245 543.938C345.262 543.957 345.28 543.977 345.299 543.997C345.476 544.192 345.734 544.472 346.057 544.81C346.702 545.487 347.604 546.399 348.629 547.336C349.655 548.274 350.802 549.234 351.937 550.011C353.077 550.792 354.185 551.374 355.137 551.576C357.072 551.988 358.483 551.553 359.408 551.025C359.571 550.932 359.719 550.836 359.853 550.74C360.04 550.81 360.227 550.877 360.415 550.941Z" fill="#81411E"/>
<path id="Path_114" fill-rule="evenodd" clip-rule="evenodd" d="M295.724 439.823C295.724 439.823 368.812 445.264 378.882 445.555C388.952 445.845 396.646 459.227 388.848 471.579C380.089 485.445 356.293 525.365 351.641 534.595C347.706 542.398 329.823 539.2 333.042 527.28C336.883 513.014 344.044 481.007 359.339 468.415C359.339 468.415 322.139 480.972 301.186 468.794C289.232 461.846 295.724 439.823 295.724 439.823Z" fill="#7A3636"/>
<path id="Path_115" fill-rule="evenodd" clip-rule="evenodd" d="M388.848 471.579L387.709 473.398C383.276 480.53 376.119 492.58 369.285 504.317L369.645 503.241C374.929 487.584 383.14 469.139 386.651 463.512C387.881 461.539 389.556 459.528 391.677 457.48C392.576 461.777 391.892 466.756 388.848 471.579Z" fill="white" fill-opacity="0.192499"/>
</g>
<g id="LLeg_4">
<path id="Path_116" fill-rule="evenodd" clip-rule="evenodd" d="M417.205 523.15C417.205 523.15 422.091 543.378 428.45 545.543C430.899 546.376 409.686 548.756 409.686 548.756L404.36 529.349L417.205 523.15Z" fill="#92691F"/>
<path id="Path_117" fill-rule="evenodd" clip-rule="evenodd" d="M406.622 541.923L406.267 559L413.579 559.051L413.654 555.212C413.654 555.212 419.353 558.394 423.212 559.513C428.402 561.022 448.907 560.231 451.224 557.932C453.541 555.623 453.591 551.948 448.834 551.496C444.078 551.045 436.213 549.7 432.827 547.288C428.732 544.38 427.174 539.767 425.984 539.763C424.162 539.757 424.021 545.184 414.78 545.261C411.262 545.29 406.622 541.923 406.622 541.923Z" fill="#391B0B"/>
<path id="Path_118" fill-rule="evenodd" clip-rule="evenodd" d="M424.092 541.286C424.092 541.286 428.807 548.137 431.611 549.129C434.414 550.111 436.674 549.009 436.674 549.009C436.674 549.009 431.84 547.215 429.972 544.085C425.743 536.996 424.897 540.603 424.092 541.286Z" fill="#81411E"/>
<path id="Path_119" fill-rule="evenodd" clip-rule="evenodd" d="M301.771 445.32C301.771 445.32 301.669 467.06 317.359 472.525C333.048 477.989 384.137 475.933 384.137 475.933C384.137 475.933 400.35 531.471 404.235 536.88C408.12 542.29 426.54 542.849 425.544 530.391C424.54 517.932 417.351 471.678 415.961 460.708C414.578 449.738 410.21 447.112 397.454 445.146C392.972 444.455 394.874 443.348 366.054 442.092C359.863 441.822 349.478 443.98 339.934 444.957C330.39 445.934 301.771 445.32 301.771 445.32Z" fill="#7A3636"/>
<path id="Path_120" fill-rule="evenodd" clip-rule="evenodd" d="M352.763 445.789L352.764 443.264L354.041 443.086C358.687 442.444 362.911 441.955 366.054 442.092L369.367 442.242C394.732 443.436 393.151 444.483 397.454 445.146L398.283 445.277C410.129 447.187 414.415 449.856 415.865 459.997L416.271 463.049C418.192 477.107 424.601 518.68 425.544 530.391C425.619 531.328 425.584 532.192 425.453 532.986L421.719 515.478C416.216 489.523 413.133 474.143 412.468 469.339L412.329 468.341C411.086 459.816 407.833 449.238 397.337 449.928L396.43 449.999C389.04 450.522 375.025 449.202 354.385 446.039L352.763 445.789Z" fill="white" fill-opacity="0.192499"/>
<ellipse id="Oval_10" cx="4.18009" cy="6.86704" rx="4.18009" ry="6.86704" transform="matrix(0.97767 0.210145 -0.240682 0.970604 425.139 455.032)" fill="white" fill-opacity="0.192499"/>
</g>
<g id="RArm_4">
<path id="Path_121" fill-rule="evenodd" clip-rule="evenodd" d="M313.089 416.451C313.089 416.451 330.186 420.136 330.013 421.582C329.843 423.036 322.316 423.26 322.316 423.26C322.316 423.26 336.231 431.626 335.123 433.258C334.015 434.89 324.944 436.729 321.178 435.412C317.412 434.096 307.65 424.516 307.65 424.516L313.089 416.451Z" fill="url(#paint16_linear_4_6)"/>
<path id="Path_122" fill-rule="evenodd" clip-rule="evenodd" d="M313.244 369.29C307.517 375.87 287.99 395.97 287.99 395.97C287.99 395.97 307.517 408.919 312.434 411.658C320.498 416.147 312.298 428.057 306.385 426.734C298.371 424.937 278.145 411.945 268.641 406.688C259.137 401.43 262.773 392.942 269.805 385.196C275.206 379.246 286.949 367.057 295.211 356.356C303.431 345.71 324.357 356.521 313.244 369.29Z" fill="#EA5455"/>
<path id="Path 15" fill-rule="evenodd" clip-rule="evenodd" d="M287.99 395.97C287.99 395.97 282.493 400.902 283.064 401.284C283.636 401.665 290.26 397.487 290.26 397.487L287.99 395.97Z" fill="black" fill-opacity="0.159856"/>
</g>
<g id="Head_4">
<path id="Path_123" fill-rule="evenodd" clip-rule="evenodd" d="M347.339 320.98C352.141 321.47 351.801 329.339 345.955 329.75C344.76 337.336 340.499 340.95 335.304 341.368L335.592 352.842L312.613 352.829C312.613 352.829 319.084 344.724 318.762 333.627C318.439 322.53 318.978 312.106 318.978 312.106L348.741 312.604L347.339 320.98Z" fill="url(#paint17_linear_4_6)"/>
<path id="Path_124" fill-rule="evenodd" clip-rule="evenodd" d="M337.939 299.578C355.643 303.738 348.339 321.312 348.339 321.312C342.99 320.633 337.842 326.676 335.89 332.603C330.246 338.004 322.935 337.995 318.074 334.848C318.074 334.848 311.385 315.588 313.573 309.174C315.761 302.761 321.803 295.786 337.939 299.578Z" fill="#2C272E"/>
</g>
<g id="Body_4">
<path id="Path_125" fill-rule="evenodd" clip-rule="evenodd" d="M296.087 355.401C294.497 357.921 293.359 368.069 296.087 408.273C297.499 429.092 291.49 449.61 293.043 458.643C294.596 467.675 305.269 468.754 305.269 468.754L311.493 449.901L314.422 468.754C314.422 468.754 358.561 464.912 362.429 455.556C366.305 446.181 361.438 424.14 360.28 403.386C359.117 382.55 359.99 361.162 357.85 357.921C353.581 351.45 342.592 348.428 335.772 347.461C327.118 346.232 315.945 346.186 309.303 348.146C302.661 350.106 297.676 352.882 296.087 355.401Z" fill="#EA5455"/>
<path id="Path_126" fill-rule="evenodd" clip-rule="evenodd" d="M340.999 369.718C344.482 393.645 349.14 410.435 354.972 420.086C357.384 424.076 359.834 425.722 362.322 425.021L361.731 419.719C361.142 414.353 360.583 408.826 360.28 403.386C360.068 399.593 359.924 395.782 359.817 392.065L340.999 369.718Z" fill="black" fill-opacity="0.159856"/>
<path id="Path_127" fill-rule="evenodd" clip-rule="evenodd" d="M309.303 348.146C308.9 348.265 308.511 348.388 308.134 348.516C317.67 352.388 333.417 351.87 341.977 348.717C339.747 348.131 337.609 347.721 335.772 347.461C327.118 346.232 315.945 346.186 309.303 348.146Z" fill="#E5AA41"/>
</g>
<g id="LArm_4">
<path id="Path_128" fill-rule="evenodd" clip-rule="evenodd" d="M426.278 390.442C426.278 390.442 440.48 381.615 442.99 379.842C445.492 378.077 448.632 364.689 446.686 362.811C445.746 361.902 438.641 368.017 437.373 368.836C436.114 369.648 429.671 373.261 429.671 373.261C429.671 373.261 431.495 363.014 429.925 362.188C428.764 361.587 426.442 364.224 426.131 367.011C425.82 369.798 422.591 373.434 422.174 377.664C421.986 379.512 420.032 383.042 420.032 383.042L426.278 390.442Z" fill="url(#paint18_linear_4_6)"/>
<path id="Path_129" fill-rule="evenodd" clip-rule="evenodd" d="M341.696 373.514C347.138 384.043 356.381 399.435 361.457 408.46C367.465 419.14 374.623 423.665 389.061 415.74C401.153 409.103 418.59 398.429 427.599 392.627C435.982 387.229 426.072 373.902 418.152 378.404C407.645 384.37 380.776 396.193 380.776 396.193C380.776 396.193 366.949 372.677 361.208 361.387C353.904 347.037 331.164 353.139 341.696 373.514Z" fill="#EA5455"/>
<path id="Path_130" fill-rule="evenodd" clip-rule="evenodd" d="M380.776 396.193C380.776 396.193 383.304 404.484 383.901 404.156C384.498 403.828 383.482 395.004 383.482 395.004L380.776 396.193Z" fill="black" fill-opacity="0.159856"/>
</g>
</g>
<g id="Chair8">
<path id="Path_131" fill-rule="evenodd" clip-rule="evenodd" d="M324.758 477.374L312.047 561.107L318.711 561.025L331.423 478.25L324.758 477.374Z" fill="#BFE7FF"/>
<path id="Path_132" fill-rule="evenodd" clip-rule="evenodd" d="M367.152 477.374L379.864 561.107L373.199 561.025L360.488 478.25L367.152 477.374Z" fill="#91D6FF"/>
<path id="Path_133" fill-rule="evenodd" clip-rule="evenodd" d="M286.006 477.374L273.294 561.107L279.959 561.025L292.67 478.25L286.006 477.374Z" fill="#BFE7FF"/>
<path id="Path_134" fill-rule="evenodd" clip-rule="evenodd" d="M372.737 482.3C378.133 482.3 382.506 477.926 382.506 472.531V472.531C382.506 467.136 378.133 462.762 372.737 462.762H328.875C323.183 462.762 318.416 458.452 317.843 452.789L311.051 385.556C310.479 379.892 305.712 375.582 300.019 375.582H271.243C264.76 375.582 259.659 381.121 260.193 387.582L267.17 472.124C267.644 477.874 272.45 482.3 278.22 482.3H372.737Z" fill="#BFE7FF"/>
<path id="Combined Shape_4" fill-rule="evenodd" clip-rule="evenodd" d="M305.264 376.816L312.337 462.276C312.813 468.025 317.618 472.449 323.387 472.449H382.504C382.506 472.385 382.506 472.322 382.506 472.258C382.506 466.877 378.144 462.515 372.763 462.515H329.028C323.337 462.515 318.57 458.206 317.996 452.544L311.209 385.552C310.819 381.708 308.497 378.488 305.264 376.816Z" fill="#91D6FF"/>
</g>
<g id="Front Laptop3">
<path id="Rectangle_43" fill-rule="evenodd" clip-rule="evenodd" d="M620.49 408.387C620.49 407.974 620.155 407.64 619.743 407.64H526.112C525.7 407.64 525.366 407.974 525.366 408.387V409.572C525.366 409.985 525.7 410.319 526.112 410.319H619.743C620.155 410.319 620.49 409.985 620.49 409.572V408.387Z" fill="url(#paint19_linear_4_6)"/>
<path id="Rectangle_44" fill-rule="evenodd" clip-rule="evenodd" d="M620.498 408.387C620.498 407.974 620.164 407.64 619.752 407.64H583.675C583.263 407.64 582.929 407.974 582.929 408.387V409.572C582.929 409.985 583.263 410.319 583.675 410.319H619.752C620.164 410.319 620.498 409.985 620.498 409.572V408.387Z" fill="#518DF8"/>
<path id="Rectangle_45" fill-rule="evenodd" clip-rule="evenodd" d="M627.293 370.877C627.591 368.714 625.91 366.787 623.727 366.787H560.931C559.133 366.787 557.61 368.114 557.365 369.896L552.72 403.666C552.422 405.829 554.103 407.757 556.286 407.757H619.082C620.88 407.757 622.403 406.429 622.648 404.647L627.293 370.877Z" fill="#518DF8"/>
<path id="Rectangle_46" fill-rule="evenodd" clip-rule="evenodd" d="M625.406 370.877C625.703 368.714 624.023 366.787 621.839 366.787H560.355C558.556 366.787 557.033 368.114 556.788 369.896L552.143 403.666C551.846 405.829 553.526 407.757 555.709 407.757H617.194C618.993 407.757 620.516 406.429 620.761 404.647L625.406 370.877Z" fill="url(#paint20_linear_4_6)"/>
<path id="Rectangle_47" d="M623.24 372.406C623.507 370.459 621.994 368.725 620.03 368.725H561.816C560.197 368.725 558.826 369.92 558.606 371.524L554.421 401.984C554.153 403.931 555.666 405.665 557.631 405.665H615.844C617.463 405.665 618.834 404.47 619.054 402.866L623.24 372.406Z" fill="white"/>
</g>
<g id="Wom3.8">
<g id="RArm_5">
<path id="Path_135" fill-rule="evenodd" clip-rule="evenodd" d="M471.257 418.421C471.257 418.421 486.366 421.703 486.213 422.991C486.063 424.285 479.411 424.484 479.411 424.484C479.411 424.484 491.708 431.934 490.729 433.387C489.75 434.84 481.733 436.478 478.406 435.305C475.077 434.133 466.451 425.603 466.451 425.603L442.248 413.501L450.338 403.568L471.257 418.421Z" fill="url(#paint21_linear_4_6)"/>
<path id="Path_136" fill-rule="evenodd" clip-rule="evenodd" d="M471.394 376.427C466.333 382.287 449.077 400.185 449.077 400.185C449.077 400.185 452.484 402.564 452.484 402.564L441.405 415.075C441.405 415.075 434.331 411.04 431.978 409.728C423.579 405.046 426.792 397.488 433.006 390.591C437.78 385.293 448.157 374.439 455.458 364.911C462.722 355.43 481.215 365.057 471.394 376.427Z" fill="#FFB66F"/>
<path id="Path 15_2" fill-rule="evenodd" clip-rule="evenodd" d="M449.077 400.185C449.077 400.185 444.219 404.576 444.724 404.916C445.229 405.256 451.083 401.535 451.083 401.535L449.077 400.185Z" fill="black" fill-opacity="0.159856"/>
<path id="Path 76" fill-rule="evenodd" clip-rule="evenodd" d="M451.797 401.255L437.358 414.564L444.578 418.963L454.496 403.154L451.797 401.255Z" fill="#FFEDC2"/>
</g>
<g id="LLeg_5">
<path id="Path_137" fill-rule="evenodd" clip-rule="evenodd" d="M497.908 520.827L490.097 544.251L503.226 544.8C503.226 544.8 501.375 536.787 504.017 529.276C506.135 523.246 507.865 520.236 507.865 520.236L497.908 520.827Z" fill="url(#paint22_linear_4_6)"/>
<path id="Path_138" fill-rule="evenodd" clip-rule="evenodd" d="M503.333 537.94C503.333 537.94 503.059 543.904 505.296 545.789C507.532 547.673 519.396 554.63 520.39 556.031C521.384 557.434 519.925 559.145 519.925 559.145C519.925 559.145 507.813 560.914 502.099 558.184C497.973 556.213 495.026 554.603 495.026 554.603L493.76 557.633L487.146 556.748C487.146 556.748 485.108 551.94 485.983 549.549C486.859 547.157 491.379 535.985 491.379 535.985C491.379 535.985 503.333 537.94 503.333 537.94Z" fill="#391B0B"/>
<path id="Path_139" fill-rule="evenodd" clip-rule="evenodd" d="M459.708 440.979C469.583 441.876 518.222 452.662 528.236 454.577C538.251 456.492 546.718 466.856 539.081 478.857C530.504 492.329 506.256 534.194 506.256 534.194C506.107 534.228 505.96 534.288 505.808 534.288C500.877 534.288 496.479 533.659 492.246 530.912C492.246 530.912 498.679 487.013 513.657 474.78C513.657 474.78 474.979 487.728 455.636 473.6C444.225 465.266 448.826 439.99 459.708 440.979Z" fill="#33373E"/>
<path id="Combined Shape_5" fill-rule="evenodd" clip-rule="evenodd" d="M535.636 457.778L532.986 488.758C533.183 488.432 533.378 488.109 533.571 487.791L536.108 458.133C535.953 458.013 535.795 457.894 535.636 457.778Z" fill="white" fill-opacity="0.192499"/>
</g>
<g id="RLeg_4">
<path id="Path_140" fill-rule="evenodd" clip-rule="evenodd" d="M570.627 518.976C570.627 518.976 574.933 536.837 580.538 538.748C582.696 539.484 567.223 541.586 567.223 541.586L562.53 524.45L570.627 518.976Z" fill="url(#paint23_linear_4_6)"/>
<path id="Path_141" fill-rule="evenodd" clip-rule="evenodd" d="M565.251 536.662L569.338 559.024L576.421 557.981L575.546 552.451C575.546 552.451 578.652 557.268 582.117 557.061C585.592 556.852 602.968 554.413 602.968 554.413C602.968 554.413 603.359 549.057 595.366 547.833C588.718 546.817 577.381 534.868 577.381 534.868L565.251 536.662Z" fill="#391B0B"/>
<path id="Path_142" fill-rule="evenodd" clip-rule="evenodd" d="M467.992 438.022C467.992 438.022 453.738 466.131 473.77 475.783C493.143 485.118 544.692 473.074 544.692 473.074C544.692 473.074 543.655 480.865 544.692 487.814C547.398 505.962 560.709 528.289 561.92 531.969C562.53 533.822 577.375 531.084 577.375 528.886C577.375 526.688 569.801 476.668 568.453 466.013C567.112 455.359 562.878 453.811 550.511 450.898C547.67 450.229 510.848 442.433 507.77 442.66C481.324 444.613 467.992 438.022 467.992 438.022Z" fill="#42474F"/>
<path id="Path_143" fill-rule="evenodd" clip-rule="evenodd" d="M507.77 442.66C510.848 442.433 547.67 450.229 550.511 450.898L552.541 451.384C563.089 453.953 566.999 455.87 568.357 465.301L568.722 468.008C569.836 475.91 572.844 494.49 575.224 509.958C572.538 504.273 570.316 497.965 568.556 491.033C564.455 474.879 565.332 461.614 564.231 459.291C563.13 456.968 509.265 449.552 500.01 448.022C495.982 447.356 493.709 445.704 493.192 443.065C497.665 443.183 502.524 443.047 507.77 442.66Z" fill="white" fill-opacity="0.192499"/>
</g>
<g id="Head_5">
<path id="Path_144" fill-rule="evenodd" clip-rule="evenodd" d="M500.761 330.155C505.04 330.591 504.736 337.604 499.527 337.97C498.463 344.73 494.666 347.951 490.037 348.324L490.293 358.549L469.817 358.537C469.817 358.537 475.583 351.314 475.296 341.425C475.009 331.536 475.489 322.246 475.489 322.246L502.01 322.69L500.761 330.155Z" fill="url(#paint24_linear_4_6)"/>
<path id="Path_145" fill-rule="evenodd" clip-rule="evenodd" d="M501.692 330.68C496.708 328.843 493.026 336.753 489.213 342.251C485.4 347.749 475.52 346.814 474.158 342.251C469.003 332.255 464.56 318.666 470.576 317.551C471.423 303.105 511.986 306.515 501.692 330.68Z" fill="#9E5229"/>
<path id="Combined Shape_6" fill-rule="evenodd" clip-rule="evenodd" d="M473.882 311.835L482.684 311.835H482.79L482.864 311.912C490.683 320.047 492.425 332.041 488.753 342.85C488.495 343.154 488.217 343.434 487.922 343.693C491.993 332.809 490.422 320.563 482.577 312.335H473.25C473.451 312.162 473.662 311.995 473.882 311.835Z" fill="black" fill-opacity="0.199355"/>
<ellipse id="Oval_11" cx="4.88875" cy="4.5571" rx="4.88875" ry="4.5571" transform="matrix(-1 0 0 1 484.171 307.528)" fill="#FB9934"/>
</g>
<g id="Body_5">
<path id="Path_146" fill-rule="evenodd" clip-rule="evenodd" d="M505.767 360.276C510.3 366.467 517.855 387.479 518.283 392.206C518.766 397.659 512.478 406.345 512.375 414.238C512.283 422.133 517.065 441.893 515.628 444.114C514.203 446.334 466.865 459.172 464.198 458.117C461.531 457.062 452.325 445.685 454.429 441.062C456.544 436.438 465.282 425.95 464.282 419.65C463.293 413.351 457.553 390.099 454.702 382.185C451.863 374.271 452.81 365.962 458.109 362.557C460.731 360.872 467.727 356.085 480.187 356.106C492.646 356.128 505.415 359.796 505.767 360.276Z" fill="#FF9F43"/>
<path id="Path_147" fill-rule="evenodd" clip-rule="evenodd" d="M515.929 387.131L494.206 372.599L494.213 375.254C494.293 391.644 495.401 400.326 513.839 427.186L513.412 424.449C512.811 420.475 512.346 416.754 512.375 414.238C512.44 409.258 514.967 403.963 516.702 399.363L515.929 387.131Z" fill="black" fill-opacity="0.159856"/>
<path id="Path 68" fill-rule="evenodd" clip-rule="evenodd" d="M491.698 355.654C491.698 355.654 492.223 358.316 489.927 358.316C487.632 358.316 472.235 358.787 470.15 357.946C468.065 357.104 468.691 355.654 468.691 355.654H491.698Z" fill="#FFF6E1"/>
</g>
<g id="LArm_5">
<path id="Path_148" fill-rule="evenodd" clip-rule="evenodd" d="M568.437 392.193C568.437 392.193 580.975 384.402 583.191 382.838C585.4 381.28 588.171 369.465 586.454 367.807C585.623 367.005 579.351 372.402 578.232 373.125C577.121 373.841 571.433 377.03 571.433 377.03C571.433 377.03 573.042 367.986 571.657 367.257C570.632 366.726 568.582 369.054 568.307 371.513C568.033 373.973 565.182 377.182 564.814 380.915C564.648 382.546 563.999 384.659 563.999 384.659L529.211 398.569L532.851 413.692L568.437 392.193Z" fill="url(#paint25_linear_4_6)"/>
<path id="Path_149" fill-rule="evenodd" clip-rule="evenodd" d="M493.767 377.253C498.571 386.545 506.731 400.129 511.213 408.094C516.516 417.52 522.835 421.513 535.582 414.519C537.074 413.701 540.3 411.876 540.3 411.876L532.409 395.564C532.409 395.564 528.267 397.268 528.267 397.268C528.267 397.268 516.06 376.514 510.992 366.55C504.544 353.886 484.469 359.271 493.767 377.253Z" fill="#FFB66F"/>
<path id="Path_150" fill-rule="evenodd" clip-rule="evenodd" d="M528.267 397.268C528.267 397.268 530.499 404.585 531.026 404.296C531.553 404.007 530.656 396.219 530.656 396.219L528.267 397.268Z" fill="black" fill-opacity="0.159856"/>
<path id="Path 75" fill-rule="evenodd" clip-rule="evenodd" d="M532.297 394.843L537.794 415.151L545.972 411.034L535.241 393.262L532.297 394.843Z" fill="#FFEDC2"/>
</g>
<path id="Path_151" fill-rule="evenodd" clip-rule="evenodd" d="M479.806 308.717C479.806 308.717 475.197 303.225 469.876 304.666C464.554 306.107 459.74 314.938 462.026 323.24C464.3 331.542 462.425 336.277 459.666 341.873C452.255 356.924 477.914 366.481 477.914 366.481C477.914 366.481 475.912 355.328 479.806 348.593C483.816 341.657 486.094 332.763 486.094 327.32C486.094 317.856 479.806 308.717 479.806 308.717Z" fill="#9E5229"/>
</g>
<g id="Chair8_2">
<path id="Path_152" fill-rule="evenodd" clip-rule="evenodd" d="M479.048 477.374L491.76 561.107L485.096 561.025L472.384 478.25L479.048 477.374Z" fill="#91D6FF"/>
<path id="Path_153" fill-rule="evenodd" clip-rule="evenodd" d="M516.04 477.374L528.751 561.107L522.087 561.025L509.375 478.25L516.04 477.374Z" fill="#91D6FF"/>
<path id="Path_154" fill-rule="evenodd" clip-rule="evenodd" d="M434.893 477.374L422.181 561.107L428.846 561.025L441.558 478.25L434.893 477.374Z" fill="#BFE7FF"/>
<path id="Path_155" fill-rule="evenodd" clip-rule="evenodd" d="M521.625 482.3C527.02 482.3 531.394 477.926 531.394 472.531V472.531C531.394 467.136 527.02 462.762 521.625 462.762H477.763C472.071 462.762 467.303 458.452 466.731 452.789L459.939 385.556C459.366 379.892 454.599 375.582 448.907 375.582H420.13C413.647 375.582 408.547 381.121 409.08 387.582L416.057 472.124C416.532 477.874 421.338 482.3 427.108 482.3H521.625Z" fill="#BFE7FF"/>
<path id="Combined Shape_7" fill-rule="evenodd" clip-rule="evenodd" d="M454.152 376.816L461.225 462.276C461.7 468.025 466.506 472.449 472.275 472.449H531.392C531.393 472.385 531.394 472.322 531.394 472.258C531.394 466.877 527.031 462.515 521.65 462.515H477.915C472.224 462.515 467.457 458.206 466.883 452.544L460.096 385.552C459.707 381.708 457.384 378.488 454.152 376.816Z" fill="#91D6FF"/>
</g>
</g>
</g>
<defs>
<filter id="filter0_dd_4_6" x="80.4588" y="86.8557" width="206.859" height="109.189" filterUnits="userSpaceOnUse" color-interpolation-filters="sRGB">
<feFlood flood-opacity="0" result="BackgroundImageFix"/>
<feColorMatrix in="SourceAlpha" type="matrix" values="0 0 0 0 0 0 0 0 0 0 0 0 0 0 0 0 0 0 127 0" result="hardAlpha"/>
<feOffset dx="8" dy="9"/>
<feGaussianBlur stdDeviation="14"/>
<feColorMatrix type="matrix" values="0 0 0 0 0.0755213 0 0 0 0 0.582569 0 0 0 0 0.878793 0 0 0 0.229458 0"/>
<feBlend mode="normal" in2="BackgroundImageFix" result="effect1_dropShadow_4_6"/>
<feColorMatrix in="SourceAlpha" type="matrix" values="0 0 0 0 0 0 0 0 0 0 0 0 0 0 0 0 0 0 127 0" result="hardAlpha"/>
<feOffset dy="2"/>
<feGaussianBlur stdDeviation="7.5"/>
<feColorMatrix type="matrix" values="0 0 0 0 0.503982 0 0 0 0 0.700178 0 0 0 0 1 0 0 0 0.233829 0"/>
<feBlend mode="normal" in2="effect1_dropShadow_4_6" result="effect2_dropShadow_4_6"/>
<feBlend mode="normal" in="SourceGraphic" in2="effect2_dropShadow_4_6" result="shape"/>
</filter>
<filter id="filter1_dd_4_6" x="80.4588" y="147.446" width="243.682" height="203.568" filterUnits="userSpaceOnUse" color-interpolation-filters="sRGB">
<feFlood flood-opacity="0" result="BackgroundImageFix"/>
<feColorMatrix in="SourceAlpha" type="matrix" values="0 0 0 0 0 0 0 0 0 0 0 0 0 0 0 0 0 0 127 0" result="hardAlpha"/>
<feOffset dx="8" dy="9"/>
<feGaussianBlur stdDeviation="14"/>
<feColorMatrix type="matrix" values="0 0 0 0 0.0755213 0 0 0 0 0.582569 0 0 0 0 0.878793 0 0 0 0.229458 0"/>
<feBlend mode="normal" in2="BackgroundImageFix" result="effect1_dropShadow_4_6"/>
<feColorMatrix in="SourceAlpha" type="matrix" values="0 0 0 0 0 0 0 0 0 0 0 0 0 0 0 0 0 0 127 0" result="hardAlpha"/>
<feOffset dy="2"/>
<feGaussianBlur stdDeviation="7.5"/>
<feColorMatrix type="matrix" values="0 0 0 0 0.503982 0 0 0 0 0.700178 0 0 0 0 1 0 0 0 0.233829 0"/>
<feBlend mode="normal" in2="effect1_dropShadow_4_6" result="effect2_dropShadow_4_6"/>
<feBlend mode="normal" in="SourceGraphic" in2="effect2_dropShadow_4_6" result="shape"/>
</filter>
<filter id="filter2_d_4_6" x="108.62" y="210.331" width="175.552" height="99.4815" filterUnits="userSpaceOnUse" color-interpolation-filters="sRGB">
<feFlood flood-opacity="0" result="BackgroundImageFix"/>
<feColorMatrix in="SourceAlpha" type="matrix" values="0 0 0 0 0 0 0 0 0 0 0 0 0 0 0 0 0 0 127 0" result="hardAlpha"/>
<feOffset dy="13"/>
<feGaussianBlur stdDeviation="7.5"/>
<feColorMatrix type="matrix" values="0 0 0 0 0 0 0 0 0 0 0 0 0 0 0 0 0 0 0.144395 0"/>
<feBlend mode="normal" in2="BackgroundImageFix" result="effect1_dropShadow_4_6"/>
<feBlend mode="normal" in="SourceGraphic" in2="effect1_dropShadow_4_6" result="shape"/>
</filter>
<filter id="filter3_d_4_6" x="307.499" y="109.537" width="298.812" height="203.154" filterUnits="userSpaceOnUse" color-interpolation-filters="sRGB">
<feFlood flood-opacity="0" result="BackgroundImageFix"/>
<feColorMatrix in="SourceAlpha" type="matrix" values="0 0 0 0 0 0 0 0 0 0 0 0 0 0 0 0 0 0 127 0" result="hardAlpha"/>
<feOffset dx="6" dy="6"/>
<feGaussianBlur stdDeviation="8"/>
<feColorMatrix type="matrix" values="0 0 0 0 0.70188 0 0 0 0 0.70188 0 0 0 0 0.70188 0 0 0 0.208725 0"/>
<feBlend mode="normal" in2="BackgroundImageFix" result="effect1_dropShadow_4_6"/>
<feBlend mode="normal" in="SourceGraphic" in2="effect1_dropShadow_4_6" result="shape"/>
</filter>
<linearGradient id="paint0_linear_4_6" x1="615.881" y1="322.978" x2="605.144" y2="374.478" gradientUnits="userSpaceOnUse">
<stop stop-color="#FFAFAF"/>
<stop offset="1" stop-color="#F07777"/>
</linearGradient>
<linearGradient id="paint1_linear_4_6" x1="614.925" y1="313.263" x2="608.489" y2="347.077" gradientUnits="userSpaceOnUse">
<stop stop-color="#FDC6C6"/>
<stop offset="1" stop-color="#FAB2B2"/>
</linearGradient>
<linearGradient id="paint2_linear_4_6" x1="562.703" y1="523.018" x2="561.168" y2="553.83" gradientUnits="userSpaceOnUse">
<stop stop-color="#FDC6C6"/>
<stop offset="1" stop-color="#FAB2B2"/>
</linearGradient>
<linearGradient id="paint3_linear_4_6" x1="528.186" y1="562.684" x2="480.54" y2="464.452" gradientUnits="userSpaceOnUse">
<stop stop-color="#28324F"/>
<stop offset="1" stop-color="#222735"/>
</linearGradient>
<linearGradient id="paint4_linear_4_6" x1="522.499" y1="352.947" x2="520.425" y2="382.552" gradientUnits="userSpaceOnUse">
<stop stop-color="#FDC6C6"/>
<stop offset="1" stop-color="#FAB2B2"/>
</linearGradient>
<linearGradient id="paint5_linear_4_6" x1="610.215" y1="383.504" x2="609.608" y2="402.61" gradientUnits="userSpaceOnUse">
<stop stop-color="#FDC6C6"/>
<stop offset="1" stop-color="#FAB2B2"/>
</linearGradient>
<linearGradient id="paint6_linear_4_6" x1="268.735" y1="209.551" x2="257.764" y2="210.653" gradientUnits="userSpaceOnUse">
<stop stop-color="#4D63A0"/>
<stop offset="1" stop-color="#222735"/>
</linearGradient>
<linearGradient id="paint7_linear_4_6" x1="140.623" y1="415.538" x2="140.623" y2="432.671" gradientUnits="userSpaceOnUse">
<stop stop-color="#FE62BE"/>
<stop offset="1" stop-color="#FDB3A8"/>
</linearGradient>
<linearGradient id="paint8_linear_4_6" x1="114.271" y1="402.468" x2="115.941" y2="419.531" gradientUnits="userSpaceOnUse">
<stop stop-color="#FE62BE"/>
<stop offset="1" stop-color="#FDB3A8"/>
</linearGradient>
<linearGradient id="paint9_linear_4_6" x1="737.96" y1="521.473" x2="736.422" y2="552.357" gradientUnits="userSpaceOnUse">
<stop stop-color="#FDC6C6"/>
<stop offset="1" stop-color="#FAB2B2"/>
</linearGradient>
<linearGradient id="paint10_linear_4_6" x1="732.814" y1="343.24" x2="728.729" y2="405.905" gradientUnits="userSpaceOnUse">
<stop stop-color="#FDC6C6"/>
<stop offset="1" stop-color="#FAB2B2"/>
</linearGradient>
<linearGradient id="paint11_linear_4_6" x1="793.187" y1="318.417" x2="782.308" y2="369.986" gradientUnits="userSpaceOnUse">
<stop stop-color="#FFAFAF"/>
<stop offset="1" stop-color="#F07777"/>
</linearGradient>
<linearGradient id="paint12_linear_4_6" x1="792.346" y1="308.678" x2="785.899" y2="342.572" gradientUnits="userSpaceOnUse">
<stop stop-color="#FDC6C6"/>
<stop offset="1" stop-color="#FAB2B2"/>
</linearGradient>
<linearGradient id="paint13_linear_4_6" x1="698.772" y1="522.716" x2="697.268" y2="557.14" gradientUnits="userSpaceOnUse">
<stop stop-color="#FDC6C6"/>
<stop offset="1" stop-color="#FAB2B2"/>
</linearGradient>
<linearGradient id="paint14_linear_4_6" x1="820.889" y1="377.238" x2="819.437" y2="417.979" gradientUnits="userSpaceOnUse">
<stop stop-color="#FDC6C6"/>
<stop offset="1" stop-color="#FAB2B2"/>
</linearGradient>
<linearGradient id="paint15_linear_4_6" x1="650.75" y1="346.079" x2="662.323" y2="395.934" gradientUnits="userSpaceOnUse">
<stop stop-color="#9FF6EC"/>
<stop offset="1" stop-color="#7D9DFF"/>
</linearGradient>
<linearGradient id="paint16_linear_4_6" x1="323.849" y1="404.028" x2="335.424" y2="431.663" gradientUnits="userSpaceOnUse">
<stop stop-color="#FDC6C6"/>
<stop offset="1" stop-color="#A47070"/>
</linearGradient>
<linearGradient id="paint17_linear_4_6" x1="357.251" y1="302.19" x2="353.902" y2="350.732" gradientUnits="userSpaceOnUse">
<stop stop-color="#FDC6C6"/>
<stop offset="1" stop-color="#A47070"/>
</linearGradient>
<linearGradient id="paint18_linear_4_6" x1="452.01" y1="355.202" x2="449.746" y2="388.984" gradientUnits="userSpaceOnUse">
<stop stop-color="#FDC6C6"/>
<stop offset="1" stop-color="#A47070"/>
</linearGradient>
<linearGradient id="paint19_linear_4_6" x1="613.553" y1="407.031" x2="613.553" y2="410.319" gradientUnits="userSpaceOnUse">
<stop stop-color="#9FF6EC"/>
<stop offset="1" stop-color="#7D9DFF"/>
</linearGradient>
<linearGradient id="paint20_linear_4_6" x1="620.544" y1="357.464" x2="620.544" y2="407.757" gradientUnits="userSpaceOnUse">
<stop stop-color="#9FF6EC"/>
<stop offset="1" stop-color="#7D9DFF"/>
</linearGradient>
<linearGradient id="paint21_linear_4_6" x1="468.551" y1="381.864" x2="488.768" y2="431.479" gradientUnits="userSpaceOnUse">
<stop stop-color="#FDC6C6"/>
<stop offset="1" stop-color="#FFCCA1"/>
</linearGradient>
<linearGradient id="paint22_linear_4_6" x1="510.939" y1="514.257" x2="508.339" y2="543.436" gradientUnits="userSpaceOnUse">
<stop stop-color="#FDC6C6"/>
<stop offset="1" stop-color="#FAB2B2"/>
</linearGradient>
<linearGradient id="paint23_linear_4_6" x1="583.897" y1="513.472" x2="581.744" y2="540.371" gradientUnits="userSpaceOnUse">
<stop stop-color="#FDC6C6"/>
<stop offset="1" stop-color="#FAB2B2"/>
</linearGradient>
<linearGradient id="paint24_linear_4_6" x1="509.593" y1="313.409" x2="506.608" y2="356.669" gradientUnits="userSpaceOnUse">
<stop stop-color="#FDC6C6"/>
<stop offset="1" stop-color="#FFCCA1"/>
</linearGradient>
<linearGradient id="paint25_linear_4_6" x1="596.987" y1="355.858" x2="594.105" y2="411.398" gradientUnits="userSpaceOnUse">
<stop stop-color="#FDC6C6"/>
<stop offset="1" stop-color="#FFCCA1"/>
</linearGradient>
</defs>
</svg>
