<svg width="1024" height="1116" viewBox="0 0 1024 1116" fill="none" xmlns="http://www.w3.org/2000/svg">
<g clip-path="url(#clip0_6_966)">
<rect width="1024" height="1116" fill="#F8F8F8"/>
<path opacity="0.0528274" fill-rule="evenodd" clip-rule="evenodd" d="M856.904 440.127C856.904 340.867 773.173 260.4 669.887 260.4C566.6 260.4 482.87 340.867 482.87 440.127C482.87 539.388 566.6 619.855 669.887 619.855C773.173 619.855 856.904 539.388 856.904 440.127ZM552.783 440.127C552.783 377.973 605.212 327.588 669.887 327.588C734.562 327.588 786.991 377.973 786.991 440.127C786.991 502.281 734.562 552.667 669.887 552.667C605.212 552.667 552.783 502.281 552.783 440.127Z" fill="#7367F0"/>
<g opacity="0.14102" filter="url(#filter0_f_6_966)">
<path fill-rule="evenodd" clip-rule="evenodd" d="M273.131 545.388C273.131 517.249 249.394 494.437 220.114 494.437C190.833 494.437 167.096 517.249 167.096 545.388C167.096 573.527 190.833 596.339 220.114 596.339C249.394 596.339 273.131 573.527 273.131 545.388ZM202.053 545.388C202.053 535.802 210.139 528.031 220.114 528.031C230.088 528.031 238.174 535.802 238.174 545.388C238.174 554.974 230.088 562.745 220.114 562.745C210.139 562.745 202.053 554.974 202.053 545.388Z" fill="#8BF78F"/>
</g>
<ellipse cx="383.826" cy="708.318" rx="104.869" ry="100.782" fill="#7367F0" fill-opacity="0.0612161"/>
<ellipse opacity="0.14102" cx="348.87" cy="355.583" rx="37.2869" ry="35.8335" fill="#CEF5FF"/>
<g filter="url(#filter1_f_6_966)">
<ellipse cx="788.156" cy="708.318" rx="37.2869" ry="35.8335" fill="#7367F0" fill-opacity="0.135927"/>
</g>
<path fill-rule="evenodd" clip-rule="evenodd" d="M384.042 408.504C384.042 394.621 395.297 383.367 409.179 383.367H594.639C608.522 383.367 619.776 394.621 619.776 408.504V826.818C619.776 840.701 608.522 851.955 594.639 851.955H409.179C395.297 851.955 384.042 840.701 384.042 826.818V408.504Z" fill="#C4E3E7"/>
<path fill-rule="evenodd" clip-rule="evenodd" d="M392.544 411.331C392.544 401.102 400.837 392.809 411.066 392.809H445.525C446.366 392.809 447.054 393.477 447.079 394.317C447.26 400.335 452.191 405.119 458.212 405.119H544.833C550.854 405.119 555.785 400.335 555.966 394.317C555.992 393.477 556.68 392.809 557.52 392.809H591.979C602.209 392.809 610.501 401.102 610.501 411.331V821.193C610.501 831.422 602.208 839.715 591.979 839.715H411.066C400.837 839.715 392.544 831.422 392.544 821.193V411.331Z" fill="white"/>
<mask id="mask0_6_966" style="mask-type:luminance" maskUnits="userSpaceOnUse" x="392" y="392" width="219" height="448">
<path fill-rule="evenodd" clip-rule="evenodd" d="M392.544 411.331C392.544 401.102 400.837 392.809 411.066 392.809H445.525C446.366 392.809 447.054 393.477 447.079 394.317C447.26 400.335 452.191 405.119 458.212 405.119H544.833C550.854 405.119 555.785 400.335 555.966 394.317C555.992 393.477 556.68 392.809 557.52 392.809H591.979C602.209 392.809 610.501 401.102 610.501 411.331V821.193C610.501 831.422 602.208 839.715 591.979 839.715H411.066C400.837 839.715 392.544 831.422 392.544 821.193V411.331Z" fill="white"/>
</mask>
<g mask="url(#mask0_6_966)">
<ellipse opacity="0.0987723" cx="475.178" cy="664.813" rx="18.6944" ry="17.9051" fill="#7367F0"/>
<path opacity="0.14102" fill-rule="evenodd" clip-rule="evenodd" d="M587.052 646.908C636.901 646.908 677.311 685.612 677.311 733.356C677.311 781.1 636.901 819.805 587.052 819.805C537.203 819.805 496.793 781.1 496.793 733.356C496.793 685.612 537.203 646.908 587.052 646.908ZM587.052 684.677C558.982 684.677 536.226 706.471 536.226 733.356C536.226 760.241 558.982 782.036 587.052 782.036C615.122 782.036 637.877 760.241 637.877 733.356C637.877 706.471 615.122 684.677 587.052 684.677Z" fill="#C8F5D0"/>
<path fill-rule="evenodd" clip-rule="evenodd" d="M419.094 475.41C419.094 472.166 421.725 469.535 424.969 469.535H579.716C582.961 469.535 585.591 472.166 585.591 475.41C585.591 478.655 582.961 481.285 579.716 481.285H424.969C421.725 481.285 419.094 478.655 419.094 475.41Z" fill="#68DE9E" fill-opacity="0.642073"/>
</g>
<path d="M514.687 391.57C516.703 391.57 518.338 393.073 518.338 394.927C518.338 396.74 516.775 398.218 514.821 398.282L514.687 398.285H473.4C471.384 398.285 469.749 396.782 469.749 394.927C469.749 393.114 471.312 391.637 473.266 391.572L473.4 391.57H514.687Z" fill="#56CDD9"/>
<path d="M529.483 391.011C531.5 391.011 533.135 392.576 533.135 394.508C533.135 396.396 531.572 397.935 529.617 398.003L529.483 398.005H529.292C527.275 398.005 525.641 396.439 525.641 394.508C525.641 392.619 527.203 391.08 529.158 391.013L529.292 391.011H529.483Z" fill="#56CDD9"/>
<path fill-rule="evenodd" clip-rule="evenodd" d="M399.232 545.945C399.232 543.736 401.022 541.945 403.232 541.945L411.934 541.945C414.144 541.945 415.934 543.736 415.934 545.945V549.738C415.934 550.412 416.48 550.958 417.154 550.958H471.092C473.301 550.958 475.092 552.749 475.092 554.958V599.346C475.092 601.555 473.301 603.346 471.092 603.346H403.232C401.022 603.346 399.232 601.555 399.232 599.346V545.945Z" fill="url(#paint0_linear_6_966)"/>
<path fill-rule="evenodd" clip-rule="evenodd" d="M417.25 547.228C417.348 546.64 417.857 546.209 418.453 546.209H476.812C477.565 546.209 478.138 546.886 478.015 547.629L469.261 600.195C469.163 600.783 468.654 601.214 468.058 601.214H409.699C408.945 601.214 408.372 600.538 408.496 599.795L417.25 547.228Z" fill="url(#paint1_linear_6_966)"/>
<path fill-rule="evenodd" clip-rule="evenodd" d="M480.27 560.178C482.799 560.178 484.693 562.496 484.19 564.974L477.561 597.63C476.804 601.359 473.526 604.039 469.721 604.039H404.125C401.596 604.039 399.702 601.721 400.205 599.243L406.834 566.587C407.591 562.858 410.87 560.178 414.674 560.178L480.27 560.178Z" fill="#FFCC7B"/>
<path fill-rule="evenodd" clip-rule="evenodd" d="M312.77 490.083C312.77 486.769 315.456 484.083 318.77 484.083H355.258L368.853 497.512V541.87C368.853 545.184 366.167 547.87 362.853 547.87H318.77C315.456 547.87 312.77 545.184 312.77 541.87V490.083Z" fill="#B7B1FB"/>
<path fill-rule="evenodd" clip-rule="evenodd" d="M349.295 526.488V508.873C349.295 507.002 347.811 505.57 345.871 505.57H340.164C339.479 505.57 339.022 506.011 339.022 506.671C339.022 507.332 339.479 507.772 340.164 507.772H345.871C346.556 507.772 347.012 508.213 347.012 508.873V526.488C347.012 527.149 346.556 527.589 345.871 527.589H340.164C339.479 527.589 339.022 528.029 339.022 528.69C339.022 529.351 339.479 529.791 340.164 529.791H345.871C347.811 529.791 349.295 528.36 349.295 526.488ZM342.333 517.24C342.447 517.571 342.447 517.901 342.333 518.121C342.333 518.231 342.218 518.341 342.104 518.451L337.539 522.855C337.31 523.075 336.968 523.185 336.74 523.185C336.511 523.185 336.169 523.075 335.941 522.855C335.484 522.415 335.484 521.754 335.941 521.314L338.566 518.782H327.608C326.923 518.782 326.467 518.341 326.467 517.681C326.467 517.02 326.923 516.58 327.608 516.58H338.566L335.941 514.048C335.484 513.607 335.484 512.947 335.941 512.506C336.397 512.066 337.082 512.066 337.539 512.506L342.104 516.91C342.161 516.965 342.19 517.02 342.218 517.075C342.247 517.13 342.275 517.185 342.333 517.24Z" fill="black"/>
<mask id="mask1_6_966" style="mask-type:luminance" maskUnits="userSpaceOnUse" x="326" y="505" width="24" height="25">
<path fill-rule="evenodd" clip-rule="evenodd" d="M349.295 526.488V508.873C349.295 507.002 347.811 505.57 345.871 505.57H340.164C339.479 505.57 339.022 506.011 339.022 506.671C339.022 507.332 339.479 507.772 340.164 507.772H345.871C346.556 507.772 347.012 508.213 347.012 508.873V526.488C347.012 527.149 346.556 527.589 345.871 527.589H340.164C339.479 527.589 339.022 528.029 339.022 528.69C339.022 529.351 339.479 529.791 340.164 529.791H345.871C347.811 529.791 349.295 528.36 349.295 526.488ZM342.333 517.24C342.447 517.571 342.447 517.901 342.333 518.121C342.333 518.231 342.218 518.341 342.104 518.451L337.539 522.855C337.31 523.075 336.968 523.185 336.74 523.185C336.511 523.185 336.169 523.075 335.941 522.855C335.484 522.415 335.484 521.754 335.941 521.314L338.566 518.782H327.608C326.923 518.782 326.467 518.341 326.467 517.681C326.467 517.02 326.923 516.58 327.608 516.58H338.566L335.941 514.048C335.484 513.607 335.484 512.947 335.941 512.506C336.397 512.066 337.082 512.066 337.539 512.506L342.104 516.91C342.161 516.965 342.19 517.02 342.218 517.075C342.247 517.13 342.275 517.185 342.333 517.24Z" fill="white"/>
</mask>
<g mask="url(#mask1_6_966)">
<rect x="324.184" y="504.469" width="27.3939" height="26.4224" fill="white"/>
</g>
<path opacity="0.33996" d="M368.853 497.512H358.258C356.601 497.512 355.258 496.169 355.258 494.512V484.083L368.853 497.512Z" fill="#7367F0"/>
<path fill-rule="evenodd" clip-rule="evenodd" d="M337.306 655.706C337.306 652.392 339.993 649.706 343.306 649.706H410.757C414.071 649.706 416.757 652.392 416.757 655.706V707.493C416.757 710.807 414.071 713.493 410.757 713.493H343.306C339.993 713.493 337.306 710.807 337.306 707.493V655.706Z" fill="#6FD9E6"/>
<path fill-rule="evenodd" clip-rule="evenodd" d="M385.436 679.064H384.104V675.211C384.104 670.972 380.509 667.504 376.114 667.504C371.72 667.504 368.124 670.972 368.124 675.211V679.064H366.793C364.529 679.064 362.798 680.734 362.798 682.917V691.908C362.798 694.092 364.529 695.762 366.793 695.762H385.436C387.7 695.762 389.431 694.092 389.431 691.908V682.917C389.431 680.734 387.7 679.064 385.436 679.064ZM370.788 675.211C370.788 672.385 373.185 670.073 376.114 670.073C379.044 670.073 381.441 672.385 381.441 675.211V679.064H370.788V675.211ZM385.436 693.193C386.235 693.193 386.768 692.679 386.768 691.908V682.917C386.768 682.147 386.235 681.633 385.436 681.633H366.793C365.994 681.633 365.461 682.147 365.461 682.917V691.908C365.461 692.679 365.994 693.193 366.793 693.193H385.436Z" fill="black"/>
<mask id="mask2_6_966" style="mask-type:luminance" maskUnits="userSpaceOnUse" x="362" y="667" width="28" height="29">
<path fill-rule="evenodd" clip-rule="evenodd" d="M385.436 679.064H384.104V675.211C384.104 670.972 380.509 667.504 376.114 667.504C371.72 667.504 368.124 670.972 368.124 675.211V679.064H366.793C364.529 679.064 362.798 680.734 362.798 682.917V691.908C362.798 694.092 364.529 695.762 366.793 695.762H385.436C387.7 695.762 389.431 694.092 389.431 691.908V682.917C389.431 680.734 387.7 679.064 385.436 679.064ZM370.788 675.211C370.788 672.385 373.185 670.073 376.114 670.073C379.044 670.073 381.441 672.385 381.441 675.211V679.064H370.788V675.211ZM385.436 693.193C386.235 693.193 386.768 692.679 386.768 691.908V682.917C386.768 682.147 386.235 681.633 385.436 681.633H366.793C365.994 681.633 365.461 682.147 365.461 682.917V691.908C365.461 692.679 365.994 693.193 366.793 693.193H385.436Z" fill="white"/>
</mask>
<g mask="url(#mask2_6_966)">
<rect x="360.135" y="666.22" width="31.9596" height="30.8262" fill="white"/>
</g>
<path d="M406.242 452.035C406.242 448.721 408.928 446.035 412.242 446.035H479.693C483.007 446.035 485.693 448.721 485.693 452.035V503.822C485.693 507.136 483.007 509.822 479.693 509.822H412.242C408.928 509.822 406.242 507.136 406.242 503.822V452.035Z" fill="#BAF3C4"/>
<mask id="mask3_6_966" style="mask-type:luminance" maskUnits="userSpaceOnUse" x="406" y="446" width="80" height="64">
<path d="M406.242 452.035C406.242 448.721 408.928 446.035 412.242 446.035H479.693C483.007 446.035 485.693 448.721 485.693 452.035V503.822C485.693 507.136 483.007 509.822 479.693 509.822H412.242C408.928 509.822 406.242 507.136 406.242 503.822V452.035Z" fill="white"/>
</mask>
<g mask="url(#mask3_6_966)">
<ellipse cx="441.294" cy="469.535" rx="10.5156" ry="10.0716" fill="white"/>
<ellipse cx="417.342" cy="521.572" rx="37.973" ry="36.3698" fill="#28C76F"/>
<ellipse cx="486.277" cy="513.179" rx="44.9834" ry="42.5247" fill="#69E09E"/>
</g>
<g filter="url(#filter2_dd_6_966)">
<path fill-rule="evenodd" clip-rule="evenodd" d="M511.439 430.337C511.417 424.798 515.9 420.296 521.439 420.296H640.946C646.453 420.296 650.923 424.748 650.946 430.255L651.565 580.354C651.587 585.893 647.104 590.395 641.565 590.395H522.058C516.551 590.395 512.081 585.943 512.058 580.436L511.439 430.337Z" fill="white"/>
</g>
<path opacity="0.33996" d="M555.797 528.846C555.797 526.992 557.3 525.489 559.154 525.489H603.85C605.704 525.489 607.207 526.992 607.207 528.846C607.207 530.7 605.704 532.203 603.85 532.203H559.154C557.3 532.203 555.797 530.7 555.797 528.846Z" fill="#7367F0"/>
<path opacity="0.33996" d="M544.113 546.751C544.113 544.897 545.616 543.394 547.47 543.394H615.534C617.388 543.394 618.891 544.897 618.891 546.751C618.891 548.605 617.388 550.108 615.534 550.108H547.47C545.616 550.108 544.113 548.605 544.113 546.751Z" fill="#7367F0"/>
<g filter="url(#filter3_dd_6_966)">
<ellipse cx="581.59" cy="474.669" rx="26.9608" ry="26.3964" fill="white"/>
</g>
<path fill-rule="evenodd" clip-rule="evenodd" d="M582.098 473.794C585.907 473.794 588.995 470.836 588.995 467.188C588.995 463.54 585.907 460.583 582.098 460.583C578.289 460.583 575.201 463.54 575.201 467.188C575.201 470.836 578.289 473.794 582.098 473.794ZM580.867 475.664C575.41 475.664 570.986 480.088 570.986 485.544C570.986 486.168 571.492 486.673 572.115 486.673H592.08C592.704 486.673 593.209 486.168 593.209 485.544C593.209 480.088 588.786 475.664 583.329 475.664H580.867Z" fill="#7367F0"/>
<path fill-rule="evenodd" clip-rule="evenodd" d="M715.027 611.807C715.027 611.807 701.962 624.187 702.763 625.397C703.564 626.616 710.149 623.785 710.149 623.785C710.149 623.785 701.934 636.789 703.624 637.788C705.314 638.787 713.957 636.764 716.606 634.083C719.257 631.403 723.348 617.876 723.348 617.876L743.22 582.231L728.807 577.454L715.027 611.807Z" fill="url(#paint2_linear_6_966)"/>
<path fill-rule="evenodd" clip-rule="evenodd" d="M701.685 545.916C707.172 554.082 725.642 577.353 725.642 577.353L724.296 581.996L741.27 593.141C741.27 593.141 746.092 580.382 746.511 578.587C747.891 572.666 720.004 534.88 713.761 529.421C703.929 520.823 693.299 533.437 701.685 545.916Z" fill="#FD8715"/>
<path fill-rule="evenodd" clip-rule="evenodd" d="M730.057 583.531C730.373 582.939 725.669 577.27 725.669 577.27L724.872 580.027C724.872 580.027 729.74 584.122 730.057 583.531Z" fill="black" fill-opacity="0.159856"/>
<path fill-rule="evenodd" clip-rule="evenodd" d="M724.191 580.438L742.224 593.628L738.206 602.158L722.438 585.361L724.191 580.438Z" fill="#FFEDC2"/>
<path fill-rule="evenodd" clip-rule="evenodd" d="M712.807 820.492L711.806 836.837L724.646 837.157L722.232 820.492H712.807Z" fill="url(#paint3_linear_6_966)"/>
<path fill-rule="evenodd" clip-rule="evenodd" d="M725.254 826.931C725.254 826.931 724.894 836.774 727.022 840.211C729.164 843.648 729.813 846.312 729.908 848.367C730.009 850.571 729.792 852.567 729.792 852.567H708.54C708.54 852.567 708.008 842.211 709.415 840.257C710.823 838.305 711.746 838.271 711.746 836.546C711.758 834.82 712.062 826.996 712.062 826.996L725.254 826.931Z" fill="#391B0B"/>
<path fill-rule="evenodd" clip-rule="evenodd" d="M667.57 602.269L700.879 598.801L701.368 599.236C703.742 601.403 714.059 611.464 717.023 625.216C722.62 651.179 715.13 699.13 715.295 709.645C715.454 720.16 720.641 726.504 722.797 741.371C724.953 756.238 725.157 822.681 725.157 822.681C719.441 825.925 714.411 826.158 707.596 822.486L667.57 602.269Z" fill="#4E3319"/>
<path fill-rule="evenodd" clip-rule="evenodd" d="M697.323 765.964L667.57 602.269L686.09 600.34C686.915 657.208 698.432 734.077 697.323 765.964Z" fill="white" fill-opacity="0.192499"/>
<path fill-rule="evenodd" clip-rule="evenodd" d="M674.393 818.773L663.444 818.943C663.444 818.943 664.164 829.829 659.954 833.516L659.723 833.709C654.64 837.789 674.25 836.316 674.25 836.316L674.393 818.773Z" fill="url(#paint4_linear_6_966)"/>
<path fill-rule="evenodd" clip-rule="evenodd" d="M674.974 827.258L674.659 852.558L666.862 852.563L666.795 846.329C666.795 846.329 664.336 852.141 660.577 852.477C656.807 852.813 640.009 852.607 640.009 852.607C640.009 852.607 638.614 846.771 646.975 844.121C653.93 841.918 661.62 827.258 661.62 827.258H674.974Z" fill="#391B0B"/>
<path fill-rule="evenodd" clip-rule="evenodd" d="M651.048 604.519L688.45 603.305L688.73 603.801C690.545 607.098 700.489 626.401 697.418 648.342C693.108 679.139 682.152 715.244 681.615 720.759C680.659 730.592 682.572 737.712 683.356 747.869C684.14 758.026 680.365 821.904 680.365 821.904C674.815 825.101 668.211 825.729 659.814 822.001C659.814 822.001 652.234 735.235 652.178 721.503C652.122 707.772 651.048 604.519 651.048 604.519Z" fill="#604021"/>
<path fill-rule="evenodd" clip-rule="evenodd" d="M658.744 637.83L658.496 640.112C656.004 664.173 656.022 715.271 656.988 723.151L657.12 724.167C658.191 733.059 658.225 755.635 657.224 791.895L655.921 776.248C653.452 746.141 652.204 727.893 652.178 721.503L652.133 714.891C651.918 688.154 651.048 604.519 651.048 604.519L658.936 604.263C659.779 617.466 659.715 628.655 658.744 637.83Z" fill="white" fill-opacity="0.192499"/>
<path fill-rule="evenodd" clip-rule="evenodd" d="M665.31 490.475C660.708 490.957 661.034 498.706 666.637 499.111C667.782 506.581 671.865 510.14 676.844 510.552L676.568 521.852L698.589 521.839C698.589 521.839 692.388 513.857 692.697 502.929C693.006 492.001 692.49 481.735 692.49 481.735L663.967 482.225L665.31 490.475Z" fill="url(#paint5_linear_6_966)"/>
<path fill-rule="evenodd" clip-rule="evenodd" d="M664.309 491.055C669.669 489.025 673.628 497.766 677.73 503.842C681.831 509.917 692.457 508.885 693.921 503.842C699.466 492.796 704.244 477.779 697.774 476.547C696.863 460.583 653.238 464.352 664.309 491.055Z" fill="#8B5030"/>
<path fill-rule="evenodd" clip-rule="evenodd" d="M694.253 470.257H684.752H684.643L684.569 470.336C676.156 479.33 674.29 492.596 678.259 504.545C678.517 504.854 678.794 505.141 679.087 505.406C674.722 493.377 676.42 479.848 684.861 470.757H694.868C694.671 470.584 694.466 470.417 694.253 470.257Z" fill="black" fill-opacity="0.199355"/>
<ellipse cx="688.411" cy="470.507" rx="5.2578" ry="5.03582" fill="#FB9934"/>
<path fill-rule="evenodd" clip-rule="evenodd" d="M659.532 524.04C654.619 530.953 646.431 554.414 645.967 559.692C645.443 565.78 652.258 575.478 652.37 584.292C652.47 593.107 647.287 619.647 648.844 622.126C650.389 624.606 694.685 635.582 697.575 635.523C700.453 635.463 718.622 620.524 716.342 615.361C714.049 610.198 703.41 597.369 704.494 590.335C705.566 583.302 711.787 557.339 714.877 548.502C717.954 539.666 716.928 530.389 711.185 526.586C708.343 524.705 700.76 519.36 687.256 519.385C673.752 519.409 659.913 523.504 659.532 524.04Z" fill="#FD8715"/>
<path fill-rule="evenodd" clip-rule="evenodd" d="M674.78 518.879C674.78 518.879 674.211 521.852 676.699 521.852C679.187 521.852 695.874 522.378 698.134 521.438C700.394 520.498 699.716 518.879 699.716 518.879H674.78Z" fill="#FFF6E1"/>
<path fill-rule="evenodd" clip-rule="evenodd" d="M652.402 538.991L652.553 538.918C661.652 534.567 667.117 534.375 668.949 538.341C671.317 543.468 665.176 555.787 650.525 575.298C648.513 569.381 645.619 563.739 645.967 559.692C646.235 556.637 649.091 547.493 652.402 538.991Z" fill="black" fill-opacity="0.159856"/>
<path fill-rule="evenodd" clip-rule="evenodd" d="M591.706 524.58C591.706 524.58 590.067 521.172 587.49 520.25C584.914 519.328 580.974 513.221 581.583 511.447C582.192 509.674 587.522 504.755 587.522 504.755C587.522 504.755 582.81 492.644 584.897 491.278C586.741 490.07 593.718 505.324 593.718 505.324C593.718 505.324 597.82 505.916 598.766 507.476C601.152 511.407 599.349 520.25 599.349 520.25L623.564 554.142L612.453 567.788L591.706 524.58Z" fill="url(#paint6_linear_6_966)"/>
<path fill-rule="evenodd" clip-rule="evenodd" d="M653.522 527.208C645.332 534.177 625.301 552.664 625.301 552.664L622.324 548.296L607.344 562.989C607.344 562.989 618.644 579.043 622.324 579.155C631.913 579.448 649.092 562.109 665.244 548.57C679.726 536.431 668.788 514.219 653.522 527.208Z" fill="#FD8715"/>
<path fill-rule="evenodd" clip-rule="evenodd" d="M625.36 552.686C625.36 552.686 619.741 558.911 619.277 558.232C618.814 557.553 623.516 549.986 623.516 549.986L625.36 552.686Z" fill="black" fill-opacity="0.159856"/>
<path fill-rule="evenodd" clip-rule="evenodd" d="M624.118 549.286L606.743 567.788L601.39 557.229L620.812 545.556L624.118 549.286Z" fill="#FFEDC2"/>
<path fill-rule="evenodd" clip-rule="evenodd" d="M687.489 466.499C687.489 466.499 692.409 460.361 698.09 461.971C703.771 463.581 708.91 473.453 706.47 482.731C704.043 492.012 706.045 497.304 708.99 503.558C716.902 520.382 689.509 531.064 689.509 531.064C689.509 531.064 691.646 518.598 687.489 511.07C683.207 503.318 680.776 493.376 680.776 487.293C680.776 476.714 687.489 466.499 687.489 466.499Z" fill="#8B5030"/>
<path fill-rule="evenodd" clip-rule="evenodd" d="M625.901 399.153C645.696 388.228 665.76 388.875 686.05 399.153L684.837 412.094C683.053 431.13 672.343 448.19 655.976 458.072C638.903 448.261 627.887 430.542 626.644 410.89L625.901 399.153Z" fill="#28C76F"/>
<ellipse cx="655.976" cy="421.314" rx="16.4043" ry="15.7118" fill="#1CA258"/>
<path fill-rule="evenodd" clip-rule="evenodd" d="M655.742 410.153C660.959 410.153 665.475 413.521 666.786 418.27C666.887 418.637 666.658 419.014 666.275 419.111C665.892 419.208 665.499 418.989 665.398 418.622C664.253 414.473 660.304 411.527 655.742 411.527C650.227 411.527 645.757 415.793 645.757 421.054C645.757 424.024 646.774 426.694 648.82 429.088C649.071 429.382 649.026 429.815 648.719 430.056C648.412 430.296 647.96 430.253 647.709 429.959C645.455 427.321 644.322 424.345 644.322 421.054C644.322 415.033 649.435 410.153 655.742 410.153Z" fill="white"/>
<path fill-rule="evenodd" clip-rule="evenodd" d="M653.204 414.019C657.265 412.679 661.651 414.618 663.149 418.409L663.23 418.626C664 420.768 665.048 421.737 666.388 421.721C666.784 421.716 667.11 422.02 667.115 422.4C667.12 422.779 666.802 423.091 666.406 423.096C664.409 423.12 662.925 421.81 661.97 419.334L661.873 419.074C660.719 415.863 657.066 414.199 653.671 415.319C650.615 416.327 648.981 419.889 649.7 423.029C649.839 423.641 650.016 424.19 650.244 424.719L650.449 425.176C651.13 426.618 652.016 427.7 656.017 432.306C656.271 432.597 656.229 433.031 655.924 433.274C655.62 433.516 655.167 433.477 654.914 433.185L652.768 430.702C650.193 427.693 649.611 426.835 648.962 425.347L648.917 425.242C648.656 424.637 648.455 424.012 648.297 423.324C647.434 419.551 649.396 415.275 653.204 414.019Z" fill="white"/>
<path fill-rule="evenodd" clip-rule="evenodd" d="M654.862 417.73C656.966 417.036 659.293 418.12 659.947 420.146C660.89 423.065 662.626 424.879 665.188 425.658C665.566 425.773 665.775 426.159 665.655 426.521C665.535 426.883 665.132 427.083 664.754 426.968C661.722 426.046 659.652 423.884 658.576 420.552C658.164 419.278 656.677 418.585 655.329 419.03C653.894 419.503 653.184 420.829 653.575 422.644C653.774 423.566 654.561 424.823 655.901 426.46L656.129 426.737C656.318 426.963 656.515 427.195 656.729 427.442L659.035 430.055C659.288 430.348 659.245 430.781 658.94 431.023C658.634 431.265 658.182 431.224 657.929 430.931L656.084 428.846L655.622 428.317C655.404 428.065 655.201 427.827 655.008 427.595L654.543 427.027C653.208 425.363 652.413 424.051 652.169 422.922C651.637 420.454 652.718 418.437 654.862 417.73Z" fill="white"/>
<path fill-rule="evenodd" clip-rule="evenodd" d="M656.139 421.474C656.518 421.363 656.919 421.567 657.036 421.93C657.809 424.349 659.324 426.065 662.173 428.114C662.49 428.342 662.554 428.773 662.316 429.076C662.078 429.38 661.629 429.441 661.312 429.213C658.242 427.006 656.542 425.08 655.663 422.333C655.547 421.97 655.76 421.585 656.139 421.474Z" fill="white"/>
</g>
<defs>
<filter id="filter0_f_6_966" x="161.66" y="489.001" width="116.908" height="112.775" filterUnits="userSpaceOnUse" color-interpolation-filters="sRGB">
<feFlood flood-opacity="0" result="BackgroundImageFix"/>
<feBlend mode="normal" in="SourceGraphic" in2="BackgroundImageFix" result="shape"/>
<feGaussianBlur stdDeviation="2.71828" result="effect1_foregroundBlur_6_966"/>
</filter>
<filter id="filter1_f_6_966" x="742.714" y="664.33" width="90.8834" height="87.9766" filterUnits="userSpaceOnUse" color-interpolation-filters="sRGB">
<feFlood flood-opacity="0" result="BackgroundImageFix"/>
<feBlend mode="normal" in="SourceGraphic" in2="BackgroundImageFix" result="shape"/>
<feGaussianBlur stdDeviation="4.07742" result="effect1_foregroundBlur_6_966"/>
</filter>
<filter id="filter2_dd_6_966" x="491.439" y="401.296" width="196.125" height="226.099" filterUnits="userSpaceOnUse" color-interpolation-filters="sRGB">
<feFlood flood-opacity="0" result="BackgroundImageFix"/>
<feColorMatrix in="SourceAlpha" type="matrix" values="0 0 0 0 0 0 0 0 0 0 0 0 0 0 0 0 0 0 127 0" result="hardAlpha"/>
<feOffset dx="8" dy="9"/>
<feGaussianBlur stdDeviation="14"/>
<feColorMatrix type="matrix" values="0 0 0 0 0.0755213 0 0 0 0 0.582569 0 0 0 0 0.878793 0 0 0 0.229458 0"/>
<feBlend mode="normal" in2="BackgroundImageFix" result="effect1_dropShadow_6_966"/>
<feColorMatrix in="SourceAlpha" type="matrix" values="0 0 0 0 0 0 0 0 0 0 0 0 0 0 0 0 0 0 127 0" result="hardAlpha"/>
<feOffset dy="2"/>
<feGaussianBlur stdDeviation="7.5"/>
<feColorMatrix type="matrix" values="0 0 0 0 0.503982 0 0 0 0 0.700178 0 0 0 0 1 0 0 0 0.233829 0"/>
<feBlend mode="normal" in2="effect1_dropShadow_6_966" result="effect2_dropShadow_6_966"/>
<feBlend mode="normal" in="SourceGraphic" in2="effect2_dropShadow_6_966" result="shape"/>
</filter>
<filter id="filter3_dd_6_966" x="534.629" y="429.273" width="109.922" height="108.793" filterUnits="userSpaceOnUse" color-interpolation-filters="sRGB">
<feFlood flood-opacity="0" result="BackgroundImageFix"/>
<feColorMatrix in="SourceAlpha" type="matrix" values="0 0 0 0 0 0 0 0 0 0 0 0 0 0 0 0 0 0 127 0" result="hardAlpha"/>
<feOffset dx="8" dy="9"/>
<feGaussianBlur stdDeviation="14"/>
<feColorMatrix type="matrix" values="0 0 0 0 0.0755213 0 0 0 0 0.582569 0 0 0 0 0.878793 0 0 0 0.229458 0"/>
<feBlend mode="normal" in2="BackgroundImageFix" result="effect1_dropShadow_6_966"/>
<feColorMatrix in="SourceAlpha" type="matrix" values="0 0 0 0 0 0 0 0 0 0 0 0 0 0 0 0 0 0 127 0" result="hardAlpha"/>
<feOffset dy="2"/>
<feGaussianBlur stdDeviation="7.5"/>
<feColorMatrix type="matrix" values="0 0 0 0 0.503982 0 0 0 0 0.700178 0 0 0 0 1 0 0 0 0.233829 0"/>
<feBlend mode="normal" in2="effect1_dropShadow_6_966" result="effect2_dropShadow_6_966"/>
<feBlend mode="normal" in="SourceGraphic" in2="effect2_dropShadow_6_966" result="shape"/>
</filter>
<linearGradient id="paint0_linear_6_966" x1="481.043" y1="591.788" x2="481.043" y2="520.754" gradientUnits="userSpaceOnUse">
<stop stop-color="#FF8C19"/>
<stop offset="1" stop-color="#FFC967"/>
</linearGradient>
<linearGradient id="paint1_linear_6_966" x1="472.329" y1="563.47" x2="472.329" y2="531.095" gradientUnits="userSpaceOnUse">
<stop stop-color="#F8FDFF"/>
<stop offset="1" stop-color="#AAD4FF"/>
</linearGradient>
<linearGradient id="paint2_linear_6_966" x1="699.442" y1="561.005" x2="703.505" y2="634.312" gradientUnits="userSpaceOnUse">
<stop stop-color="#FDC6C6"/>
<stop offset="1" stop-color="#FFCCA1"/>
</linearGradient>
<linearGradient id="paint3_linear_6_966" x1="709.584" y1="816.435" x2="711.242" y2="836.25" gradientUnits="userSpaceOnUse">
<stop stop-color="#FDC6C6"/>
<stop offset="1" stop-color="#FAB2B2"/>
</linearGradient>
<linearGradient id="paint4_linear_6_966" x1="656.198" y1="814.439" x2="657.766" y2="835.638" gradientUnits="userSpaceOnUse">
<stop stop-color="#FDC6C6"/>
<stop offset="1" stop-color="#FAB2B2"/>
</linearGradient>
<linearGradient id="paint5_linear_6_966" x1="655.811" y1="471.97" x2="659.2" y2="519.761" gradientUnits="userSpaceOnUse">
<stop stop-color="#FDC6C6"/>
<stop offset="1" stop-color="#FFCCA1"/>
</linearGradient>
<linearGradient id="paint6_linear_6_966" x1="574.245" y1="472.568" x2="584.863" y2="563.01" gradientUnits="userSpaceOnUse">
<stop stop-color="#FDC6C6"/>
<stop offset="1" stop-color="#FFCCA1"/>
</linearGradient>
<clipPath id="clip0_6_966">
<rect width="1024" height="1116" fill="white"/>
</clipPath>
</defs>
</svg>
