<svg width="415" height="446" viewBox="0 0 415 446" fill="none" xmlns="http://www.w3.org/2000/svg">
<path d="M49.4513 289.403C62.9061 270.581 55.1652 268.335 46.4108 261.453C37.6564 254.572 37.7437 237.732 58.8347 231.098C79.9257 224.464 84.731 249.124 88.9947 257.721C93.2758 266.3 111.92 255.05 126.336 268.441C140.752 281.832 126.371 300.565 124.012 312.807C121.653 325.048 132.767 332.69 149.961 335.396C167.155 338.103 165.757 348.911 160.9 360.445C156.042 371.979 155.221 378.205 167.575 385.812C179.929 393.436 166.019 418.272 144.177 427.772C122.335 437.271 88.6102 434.459 72.8488 415.531C51.618 390.022 86.2687 359.507 68.7949 339.094C51.3384 318.68 29.4262 317.424 49.4513 289.403Z" fill="url(#paint0_linear_9_365)"/>
<path d="M134.759 430.938C135.318 430.797 135.86 430.655 136.419 430.496C134.689 417.264 131.806 403.537 128.032 389.704C123.855 368.989 130.635 346.718 138.848 332.637C138.359 332.46 137.904 332.283 137.432 332.088C130.443 344.082 124.467 361.842 125.148 379.638C119.434 360.675 112.148 341.694 103.987 323.668C95.4952 300.335 114.769 272.456 120.832 264.514C120.378 264.284 119.941 264.072 119.487 263.859C113.983 271.077 97.9415 294.232 100.458 316.062C84.8885 283.283 66.5585 254.325 49.5389 235.485C49.0671 235.821 48.5953 236.157 48.1584 236.493C61.858 251.636 75.5575 272.262 87.9464 295.435C78.0912 285.83 63.6927 282.203 54.7112 280.841C54.5015 281.301 54.2568 281.761 53.9947 282.239C64.5839 283.813 83.1586 288.625 92.0353 303.254C104.337 327.401 115.118 353.811 122.982 379.355C117.477 372.049 107.972 364.69 94.5691 357.42C85.9195 352.732 77.7243 349.247 73.1811 347.425C73.3383 348.044 73.4781 348.664 73.5829 349.283C85.7447 354.254 116.848 368.423 124.921 385.847C126.197 390.234 127.368 394.586 128.451 398.885C115.747 375.976 84.574 361.542 73.7227 357.066C73.6703 357.597 73.6179 358.145 73.5305 358.676C78.6678 360.816 87.6494 364.867 97.0154 370.74C109.929 378.825 126.127 392.003 130.88 409.251C132.522 416.698 133.833 423.969 134.759 430.938Z" fill="white"/>
<path d="M73.8449 356.694C78.5629 365.274 81.2014 374.614 82.3198 383.494C82.809 387.97 83.0712 392.268 82.8964 396.408C82.8265 398.477 82.7217 400.476 82.5469 402.404C82.3372 404.35 82.0926 406.225 81.8131 408.012C81.2888 411.585 80.52 414.876 79.7511 417.741C78.9997 420.607 78.1785 423.101 77.4096 425.153C75.9069 429.24 74.771 431.504 74.771 431.504C74.771 431.504 72.6043 430.071 69.2318 427.541C67.5544 426.25 65.5623 424.711 63.3257 422.978C61.1065 421.226 58.73 419.227 56.1264 417.105C54.8508 416.025 53.5578 414.911 52.2647 413.743C50.9367 412.594 49.5912 411.391 48.2632 410.152C45.6421 407.658 42.8637 405.076 40.33 402.263C35.0704 396.726 30.2127 390.605 26.3859 383.618C22.5067 376.666 19.8681 369.272 17.946 361.842C16.915 358.18 16.1812 354.43 15.4473 350.874C15.0978 349.088 14.8007 347.283 14.5211 345.532C14.2066 343.798 13.9445 342.1 13.6999 340.437C13.2455 337.094 12.8087 333.998 12.4942 331.168C12.2146 328.338 11.9525 325.808 11.7253 323.685C11.3409 319.457 11.271 316.839 11.271 316.839C11.271 316.839 13.7872 317.052 17.9984 317.883C20.1302 318.29 22.6465 318.874 25.4598 319.723C28.2905 320.554 31.4708 321.598 34.7384 323.013C36.3984 323.703 38.0934 324.481 39.8408 325.313C41.5707 326.18 43.3006 327.117 45.0654 328.143C48.6476 330.16 52.1424 332.636 55.6547 335.378C62.5743 340.986 69.0746 348.132 73.8449 356.694Z" fill="url(#paint1_linear_9_365)"/>
<path d="M59.3416 338.563L58.2583 337.554C57.7865 339.66 57.2273 342.419 56.738 345.621C56.2138 348.84 55.7071 352.52 55.4275 356.394C54.7635 364.248 54.8509 372.987 56.7905 381.619C53.1384 374.101 49.067 366.796 44.716 359.684C43.8248 358.234 43.056 356.73 42.3919 355.226C41.693 353.741 41.1164 352.202 40.6271 350.663C39.6835 347.549 38.9846 344.471 38.5827 341.375C38.1982 338.28 37.9885 335.273 37.9361 332.424C37.8837 329.576 38.0235 326.852 38.1458 324.5C37.7439 324.305 37.3245 324.128 36.9226 323.951C36.4683 331.487 36.4159 342.065 39.7359 351.883C31.5931 339.447 22.297 327.807 12.1971 316.928C11.603 316.858 11.271 316.822 11.271 316.822C11.271 316.822 11.2885 317.158 11.3059 317.777C21.3534 328.604 30.5971 340.19 38.705 352.573C30.9641 345.674 21.0214 343.197 14.0144 342.614C14.0843 343.021 14.1542 343.427 14.2066 343.834C16.4433 344.029 18.8896 344.453 21.4932 345.108C24.0968 345.762 26.8577 346.665 29.5137 347.974C32.1872 349.265 34.8782 350.857 37.2546 352.945C38.4603 353.971 39.6136 355.085 40.7145 356.306C41.7804 357.544 42.7589 358.906 43.6501 360.339C47.9836 367.415 52.0375 374.703 55.6721 382.186C50.1329 375.357 42.6716 371.006 35.8742 368.388C32.4144 367.096 29.1293 366.212 26.2112 365.628C23.2406 365.062 20.6894 364.779 18.7323 364.637L19.0993 365.84C23.8522 366.212 31.7504 367.468 39.7184 371.359C47.6865 375.18 55.7595 381.726 60.0756 391.49C61.4385 394.551 62.6966 397.646 63.9897 400.742C65.1604 403.873 66.4535 406.969 67.5369 410.135C61.5608 400.901 52.422 395.134 44.6811 391.968C36.8353 388.801 30.4223 388.023 28.972 387.882L29.8108 389.138C31.3834 389.332 34.1443 389.828 37.6565 390.818C41.2037 391.791 45.3451 393.348 49.6436 395.647C58.1709 400.229 67.1524 408.225 70.8045 419.9C72.0102 423.562 73.0062 427.294 74.0547 430.991C74.5614 431.327 74.841 431.522 74.841 431.522C74.841 431.522 74.9808 431.221 75.2429 430.673C74.1944 426.94 73.1984 423.208 71.9753 419.528C68.3407 407.924 69.2493 396.09 71.154 385.794C72.0976 380.682 73.3731 375.994 74.4565 372.209C75.5749 368.405 76.6932 365.451 77.2698 363.877L76.5359 362.179C75.9942 363.594 73.4081 370.263 71.3462 379.054C69.2318 387.917 67.4495 398.796 68.6902 409.728C67.6068 406.544 66.3137 403.431 65.1255 400.282C63.8324 397.186 62.5568 394.055 61.1939 390.995C56.8953 381.266 56.0391 371.023 56.3536 361.595C56.6856 352.166 58.2233 343.675 59.3416 338.563Z" fill="white"/>
<path d="M365.903 270.316C374.623 269.608 378.554 267.893 380.913 265.168C382.067 263.789 382.748 262.143 383.29 260.233C383.569 259.278 383.814 258.252 384.076 257.19C384.373 256.147 384.688 255.05 385.037 253.9C385.754 251.6 387.116 249.371 388.864 247.514C390.594 245.657 392.935 244.348 395.329 243.64C400.187 242.242 405.604 243.711 410.252 249.867C412.593 252.927 413.327 255.987 413.083 258.888C412.96 260.339 412.593 261.754 412.034 263.134C411.475 264.514 410.741 265.841 409.972 267.203C408.4 269.891 406.355 272.386 404.451 274.632C402.633 276.95 400.903 278.984 399.82 280.576C397.601 283.725 400.047 287.192 402.476 291.473C404.975 295.807 407.421 300.937 406.46 308.03C406.215 309.799 405.691 311.285 405.08 312.647C404.486 314.027 403.717 315.212 402.791 316.256C400.938 318.343 398.475 319.847 395.958 321.227C393.407 322.571 390.594 323.668 387.938 324.783C385.317 325.915 382.94 327.082 381.053 328.444C373.417 333.91 375.094 344.719 382.835 354.183C386.697 358.941 387.536 362.55 386.225 365.61C385.02 368.688 382.032 371.306 378.31 373.854C371.198 378.948 368.245 383.105 373.155 392.534C374.291 394.869 374.413 397.293 373.347 399.681C372.334 402.069 370.237 404.439 367.703 406.597C362.513 410.896 354.545 414.593 346.367 414.823C338.19 415.035 328.946 411.833 321.17 405.076C313.482 398.389 307.645 388.076 306.649 375.888C306.177 367.733 307.872 360.887 311.018 355.209C313.953 349.46 318.322 344.878 322.516 340.65C324.578 338.527 326.832 336.546 328.894 334.565C330.955 332.566 332.895 330.567 334.573 328.444C336.355 326.357 337.91 324.163 339.098 321.705C339.692 320.484 340.199 319.193 340.619 317.83C341.038 316.468 341.44 315.071 341.702 313.55C342.226 310.507 342.558 307.624 342.803 304.864C343.117 302.14 343.379 299.557 343.589 297.098C343.816 294.657 343.991 292.304 344.305 290.146C344.655 288.006 345.074 285.989 345.651 284.114C346.228 282.239 346.962 280.523 347.923 278.949C348.901 277.392 350.212 276.047 351.802 274.862C354.982 272.563 359.333 270.829 365.903 270.316Z" fill="url(#paint2_linear_9_365)"/>
<path d="M339.535 414.275L340.689 414.469C342.96 403.272 345.441 391.667 348.29 379.939C348.989 377.834 349.792 375.782 350.684 373.818C351.575 371.855 352.518 369.962 353.707 368.193C354.842 366.406 356.048 364.726 357.306 363.134C358.547 361.542 359.84 360.038 361.273 358.676C364.086 355.934 366.969 353.599 369.817 351.689C372.788 349.813 375.689 348.363 378.362 347.302C378.205 346.965 378.048 346.629 377.89 346.293C373.365 348.098 368.035 350.999 363.3 355.244C358.355 359.419 353.934 364.938 350.509 371.43C354.738 355.333 360.032 339.217 366.043 323.792C367.161 321.457 368.507 319.316 370.01 317.371C371.6 315.478 373.4 313.815 375.252 312.329C378.904 309.339 383.22 307.323 387.274 305.908C389.318 305.2 391.275 304.634 393.215 304.245C395.172 303.856 397.024 303.59 398.719 303.413C402.109 303.06 404.87 303.06 406.583 303.113C406.548 302.741 406.495 302.387 406.443 302.034C403.35 301.945 396.832 301.998 389.493 303.997C385.911 305.041 382.084 306.562 378.397 308.685C374.867 310.896 371.425 313.726 368.612 317.264C374.343 303.201 380.686 289.863 387.064 277.728C393.425 265.575 399.768 254.625 405.08 245.037C404.73 244.825 404.398 244.631 404.049 244.471C399.82 252.273 394.875 260.534 390.087 269.608C385.125 278.542 380.302 288.236 375.566 298.248C376.021 295.4 376.3 292.658 376.37 289.952C376.423 287.245 376.248 284.592 375.951 282.062C375.427 277.056 374.466 272.58 373.522 269.219C373.138 269.308 372.753 269.396 372.334 269.485C372.893 271.466 373.487 273.854 373.959 276.525C374.203 277.869 374.396 279.249 374.588 280.718C374.798 282.186 374.972 283.725 375.077 285.281C375.304 288.413 375.234 291.632 374.832 294.94C374.5 298.283 373.784 301.662 372.439 305.005C367.843 315.478 363.492 326.304 359.543 337.254C355.734 348.257 352.379 359.348 349.391 370.263C349.356 366.424 348.849 362.108 347.835 357.19C347.416 354.767 346.892 352.184 346.228 349.442C345.546 346.735 344.83 343.852 344.078 340.774C343.117 336.847 342.017 333.097 341.125 329.859C340.287 326.64 339.535 323.898 338.976 321.952C338.714 322.483 338.434 322.996 338.137 323.509C339.535 328.745 342.244 338.174 344.603 347.903C345.826 352.803 346.769 357.738 347.556 362.515C347.905 364.885 348.115 367.202 348.167 369.431C348.307 371.678 348.272 373.818 348.028 375.835C347.556 377.71 347.014 379.568 346.595 381.425C346.175 383.282 345.756 385.14 345.337 386.979C345.441 384.184 345.127 381.354 345.005 378.541C344.812 375.729 344.445 372.898 343.956 370.068C343.449 367.238 343.065 364.46 342.471 361.701C341.929 358.941 341.178 356.199 340.636 353.599C340.042 350.981 339.413 348.451 338.749 346.028C338.417 344.825 338.085 343.64 337.77 342.508C337.473 341.375 337.194 340.296 336.932 339.235C335.813 335.043 334.765 331.54 334.014 329.187C333.716 329.541 333.402 329.913 333.087 330.284C334.503 334.76 336.722 342.631 339.011 351.671C339.378 353.228 339.745 354.855 340.129 356.536C340.549 358.234 340.951 359.985 341.318 361.772C341.685 363.558 342.017 365.38 342.314 367.238C342.593 369.077 342.995 370.988 343.24 372.881C343.781 376.684 343.991 380.523 344.166 384.379C344.271 388.218 343.886 392.039 343.379 395.824C342.768 399.008 341.929 402.14 341.405 405.235C340.793 408.278 340.182 411.303 339.535 414.275Z" fill="white"/>
<path d="M334.013 237.077C336.477 233.345 339.377 229.364 342.348 225.101C345.388 220.873 348.604 216.416 351.871 211.675C357.271 203.997 361.482 196.798 365.099 190.801C368.681 184.804 371.704 180.152 374.238 177.834C371.704 180.152 366.724 182.593 360.87 186.732C354.999 190.819 348.149 196.585 342.348 204.847C338.836 209.906 336.022 215.107 333.786 220.148C331.602 225.225 329.907 230.09 328.701 234.583C326.866 241.163 325.888 246.806 324.927 251.052C321.519 260.268 318.426 269.838 315.683 279.55C315.735 278.842 315.805 278.135 315.84 277.41C316.032 272.421 315.753 267.079 314.757 261.595C313.062 252.609 309.287 245.356 305.705 239.978C302.141 234.53 298.663 230.921 297.335 228.162C298.681 230.921 299.537 235.874 300.253 242.083C301.022 248.292 301.756 255.651 303.294 263.789C304.185 268.795 305.146 273.553 306.02 278.099C306.824 282.628 307.662 286.927 308.222 290.889C308.99 296.037 309.445 300.618 309.48 304.298C307.54 313.019 305.845 321.722 304.412 330.319C304.517 329.028 304.604 327.666 304.639 326.215C304.762 322.89 304.552 319.228 303.975 315.319C303.329 311.445 302.21 307.358 300.463 303.325C297.527 296.744 293.037 292.057 289.053 288.802C285.086 285.511 281.539 283.636 280.036 281.797C281.556 283.636 282.849 287.44 284.247 292.145C285.663 296.868 287.218 302.37 289.822 308.172C292.949 315.283 296.339 321.669 298.925 327.383C300.9 331.664 302.42 335.485 303.137 338.457C302.35 343.675 301.651 348.823 301.057 353.882C301.022 353.988 300.97 354.094 300.935 354.183C300.97 354.112 301.022 354.041 301.057 353.971C299.38 368.14 298.419 381.566 298.157 393.578L299.817 393.613C300.096 380.682 301.197 366.123 303.137 350.769C304.954 348.416 307.523 345.709 310.58 342.844C312.887 340.615 315.561 338.351 318.269 335.909C321.03 333.504 323.931 330.992 326.866 328.267C331.689 323.88 335.498 319.387 338.853 315.602C342.173 311.798 345.056 308.88 347.293 307.818C345.074 308.88 340.968 309.11 335.848 310.542C330.745 311.922 324.542 314.487 319.038 319.511C315.718 322.607 312.974 326.021 310.79 329.453C308.641 332.92 306.963 336.334 305.758 339.553C305.024 341.411 304.447 343.162 303.94 344.807C304.884 338.032 305.967 331.115 307.243 324.128C309.375 321.068 312.485 317.441 316.259 313.479C318.95 310.578 322.043 307.588 325.259 304.351C328.526 301.167 331.969 297.806 335.481 294.232C341.282 288.448 345.93 282.823 349.967 278.135C353.968 273.429 357.358 269.821 359.962 268.299C357.358 269.821 352.518 270.864 346.612 273.306C340.705 275.711 333.629 279.497 327.268 285.848C323.424 289.757 320.209 293.949 317.588 298.107C315.019 302.299 312.939 306.403 311.384 310.259C310.109 313.302 309.13 316.115 308.274 318.644C311.017 304.404 314.425 289.987 318.549 275.959C320.436 273.288 323.476 270.068 327.216 266.654C329.644 264.372 332.44 262.073 335.306 259.614C338.224 257.19 341.3 254.661 344.445 251.954C349.617 247.585 353.776 243.145 357.48 239.448C361.132 235.715 364.313 232.902 366.689 231.929C364.33 232.902 360.067 232.955 354.72 234.247C349.39 235.485 342.855 237.909 336.931 242.915C333.366 246.01 330.396 249.46 328.002 252.945C325.783 256.288 324 259.596 322.672 262.745C324.734 256.518 326.954 250.415 329.312 244.471C330.641 242.172 332.248 239.695 334.013 237.077Z" fill="#59773B"/>
<path d="M313.219 231.487C314.879 238.775 316.941 245.462 318.322 251.37C319.737 257.243 320.506 262.267 320.034 265.274C320.488 262.285 322.638 257.721 324.158 251.423C324.944 248.292 325.486 244.754 325.678 240.916C325.818 237.077 325.521 232.955 324.577 228.781C322.97 221.935 319.44 216.628 316.155 212.86C312.887 209.021 309.777 206.669 308.624 204.67C309.777 206.686 310.353 210.543 310.825 215.283C311.349 220.024 311.804 225.543 313.219 231.487Z" fill="#59773B"/>
<path d="M236.09 252.679C234.36 249.761 232.333 246.647 230.236 243.304C228.104 239.996 225.833 236.493 223.544 232.796C219.752 226.782 216.851 221.174 214.352 216.522C211.871 211.852 209.757 208.208 207.939 206.368C209.757 208.208 213.426 210.26 217.707 213.603C221.988 216.929 226.934 221.546 231.005 228.002C233.451 231.965 235.391 235.998 236.894 239.907C238.344 243.835 239.445 247.567 240.179 251.017C241.315 256.058 241.839 260.357 242.398 263.594C244.617 270.687 246.592 278.029 248.287 285.494C248.269 284.963 248.252 284.432 248.252 283.884C248.287 280.116 248.706 276.083 249.667 271.979C251.292 265.257 254.42 259.932 257.338 256.005C260.239 252.025 263 249.442 264.118 247.408C263 249.442 262.161 253.139 261.375 257.809C260.553 262.479 259.732 267.999 258.247 274.084C257.373 277.834 256.482 281.39 255.643 284.786C254.857 288.183 254.071 291.402 253.494 294.374C252.708 298.23 252.201 301.68 252.026 304.457C253.162 311.126 254.105 317.76 254.857 324.305C254.822 323.314 254.822 322.288 254.839 321.192C254.874 318.68 255.171 315.902 255.765 312.984C256.395 310.082 257.391 307.04 258.876 304.068C261.357 299.221 264.922 295.842 268.05 293.543C271.177 291.208 273.921 289.934 275.126 288.607C273.903 289.934 272.785 292.747 271.562 296.267C270.304 299.769 268.923 303.873 266.739 308.154C264.118 313.408 261.287 318.096 259.12 322.306C257.46 325.455 256.167 328.285 255.521 330.514C255.923 334.476 256.255 338.404 256.517 342.242C256.552 342.313 256.569 342.401 256.604 342.472C256.587 342.419 256.552 342.366 256.517 342.295C257.251 353.068 257.46 363.24 257.198 372.332L255.94 372.297C256.22 362.515 255.94 351.476 255.067 339.801C253.791 337.961 251.939 335.803 249.737 333.521C248.077 331.752 246.155 329.93 244.198 327.984C242.206 326.056 240.109 324.04 237.994 321.881C234.517 318.379 231.826 314.841 229.415 311.851C227.056 308.862 224.976 306.527 223.334 305.642C224.959 306.527 228.069 306.863 231.879 308.154C235.688 309.393 240.266 311.586 244.233 315.584C246.627 318.043 248.566 320.732 250.086 323.42C251.572 326.127 252.708 328.763 253.511 331.257C253.983 332.69 254.368 334.034 254.682 335.308C254.228 330.143 253.669 324.889 252.987 319.564C251.484 317.176 249.283 314.31 246.574 311.161C244.652 308.88 242.415 306.474 240.126 303.909C237.785 301.361 235.304 298.708 232.787 295.86C228.629 291.261 225.326 286.82 222.46 283.141C219.629 279.426 217.201 276.578 215.278 275.322C217.183 276.578 220.8 277.551 225.169 279.621C229.537 281.655 234.744 284.804 239.305 289.845C242.066 292.941 244.338 296.249 246.155 299.486C247.937 302.759 249.353 305.943 250.383 308.897C251.222 311.232 251.869 313.408 252.41 315.354C250.89 304.492 248.846 293.472 246.277 282.716C244.949 280.611 242.782 278.082 240.074 275.358C238.326 273.553 236.3 271.696 234.22 269.732C232.106 267.786 229.869 265.77 227.615 263.576C223.876 260.074 220.905 256.553 218.249 253.617C215.628 250.663 213.339 248.398 211.574 247.585C213.321 248.416 216.537 248.611 220.538 249.796C224.522 250.928 229.362 253.033 233.644 257.049C236.23 259.525 238.327 262.25 240.004 264.974C241.559 267.592 242.765 270.157 243.656 272.58C242.328 267.786 240.878 263.099 239.323 258.517C238.449 256.66 237.33 254.731 236.09 252.679Z" fill="#FCBC39"/>
<path d="M252.026 249.265C250.488 254.714 248.688 259.667 247.413 264.089C246.12 268.476 245.351 272.244 245.595 274.526C245.368 272.244 243.918 268.724 243.009 263.912C242.537 261.507 242.258 258.818 242.258 255.917C242.293 253.016 242.677 249.92 243.551 246.789C245.036 241.676 247.884 237.82 250.523 235.078C253.144 232.319 255.59 230.656 256.517 229.188C255.573 230.656 254.979 233.557 254.455 237.112C253.878 240.686 253.319 244.843 252.026 249.265Z" fill="#FCBC39"/>
<path d="M72.9186 328.94C70.647 326.587 68.0434 324.128 65.335 321.492C62.5916 318.874 59.6734 316.115 56.7029 313.16C51.7927 308.384 47.8261 303.803 44.4187 299.999C41.0463 296.178 38.2505 293.26 36.1187 291.933C38.233 293.242 42.1471 294.321 46.9 296.479C51.6529 298.619 57.3494 301.821 62.6265 306.951C65.8242 310.1 68.5327 313.461 70.8218 316.769C73.0584 320.112 74.9281 323.367 76.396 326.445C78.5977 330.921 80.048 334.83 81.3061 337.749C84.9931 343.905 88.4878 350.344 91.7555 356.942C91.6157 356.447 91.4934 355.952 91.3536 355.439C90.5498 351.883 90.043 348.009 90.0081 343.94C90.0255 337.254 91.7729 331.54 93.6252 327.171C95.4599 322.784 97.4694 319.706 98.0635 317.547C97.4694 319.723 97.5218 323.385 97.8189 327.931C98.0985 332.495 98.5528 337.873 98.5353 343.94C98.5528 347.655 98.5179 351.211 98.5004 354.59C98.5353 357.951 98.5004 361.153 98.6402 364.071C98.7625 367.875 99.0596 371.218 99.5313 373.871C102.083 379.868 104.476 385.883 106.643 391.862C106.399 390.942 106.154 389.987 105.927 388.943C105.403 386.573 105.053 383.901 104.948 381.036C104.896 378.152 105.14 375.074 105.874 371.943C107.115 366.813 109.701 362.833 112.13 359.95C114.541 357.031 116.83 355.209 117.669 353.687C116.83 355.226 116.394 358.128 116.027 361.701C115.642 365.274 115.258 369.449 114.174 373.96C112.881 379.497 111.291 384.538 110.208 388.996C109.352 392.339 108.775 395.294 108.67 397.522C109.928 401.167 111.117 404.758 112.235 408.313C112.287 408.384 112.322 408.455 112.375 408.525C112.34 408.472 112.305 408.437 112.27 408.384C115.363 418.326 117.861 427.825 119.644 436.422L118.456 436.67C116.533 427.436 113.79 417.123 110.348 406.367C108.74 404.934 106.521 403.342 103.935 401.697C101.978 400.424 99.7585 399.15 97.4869 397.77C95.1803 396.426 92.769 395.011 90.3051 393.454C86.2512 390.96 82.9311 388.253 80.013 386.007C77.1123 383.742 74.6485 382.026 72.9186 381.566C74.6485 382.026 77.6366 381.619 81.4983 381.956C85.3425 382.256 90.1479 383.247 94.761 386.095C97.5568 387.864 99.9857 389.934 102.013 392.092C104.022 394.285 105.682 396.514 106.975 398.655C107.744 399.893 108.391 401.078 108.985 402.175C107.412 397.434 105.7 392.622 103.847 387.793C101.908 385.883 99.1819 383.707 95.9492 381.372C93.6252 379.656 91.0041 377.922 88.2607 376.047C85.4998 374.208 82.5642 372.262 79.5587 370.174C74.6136 366.813 70.5247 363.417 67.0125 360.604C63.5177 357.774 60.5995 355.651 58.5202 354.908C60.5995 355.651 64.1992 355.722 68.7773 356.677C73.338 357.597 78.9296 359.348 84.3465 363.028C87.6316 365.31 90.4974 367.875 92.9437 370.51C95.3551 373.181 97.382 375.835 99.0246 378.382C100.335 380.381 101.436 382.274 102.38 383.972C98.5179 374.137 94.1319 364.248 89.3091 354.731C87.5967 353.068 84.9756 351.176 81.8478 349.247C79.8033 347.938 77.4793 346.682 75.1028 345.303C72.674 343.958 70.1403 342.578 67.5192 341.057C63.2206 338.634 59.6385 336.015 56.4932 333.857C53.3654 331.682 50.7093 330.089 48.8746 329.718C50.6919 330.089 53.7673 329.541 57.7863 329.736C61.7878 329.895 66.8027 330.744 71.7129 333.521C74.6835 335.255 77.2871 337.325 79.4713 339.5C81.5158 341.605 83.2282 343.728 84.6086 345.816C82.2846 341.623 79.8732 337.554 77.3919 333.61C76.029 332.141 74.5437 330.585 72.9186 328.94Z" fill="url(#paint3_linear_9_365)"/>
<path d="M87.1076 322.076C86.8804 327.542 86.3038 332.619 86.1115 337.041C85.8844 341.464 86.0067 345.161 86.7406 347.248C86.0067 345.161 83.8574 342.171 81.9353 337.873C80.9393 335.732 80.083 333.256 79.4365 330.532C78.8249 327.807 78.4754 324.8 78.5977 321.669C78.8424 316.539 80.6597 312.241 82.5119 309.074C84.3467 305.872 86.2688 303.767 86.828 302.157C86.2688 303.767 86.3737 306.615 86.6707 310.082C86.9154 313.603 87.3347 317.618 87.1076 322.076Z" fill="url(#paint4_linear_9_365)"/>
<path d="M287.778 271.342L263.576 246.842C262.895 246.152 261.794 246.152 261.095 246.842L236.894 271.342C235.793 272.456 236.579 274.367 238.134 274.367H241.175C244.145 274.367 246.557 276.808 246.557 279.815V320.732C246.557 321.705 247.343 322.501 248.304 322.501H276.35C277.311 322.501 278.097 321.705 278.097 320.732V279.815C278.097 276.808 280.508 274.367 283.479 274.367H286.519C288.11 274.367 288.878 272.456 287.778 271.342Z" fill="url(#paint5_linear_9_365)"/>
<path d="M344.952 325.844H272.889C271.492 325.844 270.251 324.995 269.709 323.703L267.001 317.176C266.127 315.053 264.083 313.691 261.811 313.691H231.826C229.554 313.691 227.527 315.071 226.636 317.176L224.172 323.137C223.438 324.906 223.054 326.817 223.054 328.745V334.087V415.212C223.054 419.758 226.689 423.438 231.179 423.438H344.917C349.408 423.438 353.042 419.758 353.042 415.212V334.087C353.095 329.541 349.443 325.844 344.952 325.844Z" fill="#7367F0"/>
<path d="M344.952 428.922H231.214C226.724 428.922 223.072 425.242 223.072 420.696V339.553C223.072 335.007 226.706 331.31 231.214 331.31H344.952C349.443 331.31 353.077 334.989 353.077 339.553V420.678C353.095 425.242 349.443 428.922 344.952 428.922Z" fill="url(#paint6_linear_9_365)"/>
<path d="M314.88 347.054H183.092V440.155H314.88V347.054Z" fill="url(#paint7_linear_9_365)"/>
<path d="M308.799 353.988H189.19V433.203H308.799V353.988Z" fill="#7367F0"/>
<path d="M189.19 381.248C202.872 381.248 242.87 433.203 264.73 433.203H189.19V381.248Z" fill="#0C205D"/>
<path d="M215.89 433.203C232.63 433.203 281.243 371.749 308.799 371.306V433.203H215.89Z" fill="#7367F0"/>
<path d="M236.107 388.253C241.309 388.253 245.526 383.984 245.526 378.718C245.526 373.453 241.309 369.184 236.107 369.184C230.906 369.184 226.689 373.453 226.689 378.718C226.689 383.984 230.906 388.253 236.107 388.253Z" fill="#FCBC39"/>
<path d="M129.359 114.594C160.617 114.594 185.957 88.9411 185.957 57.2969C185.957 25.6527 160.617 0 129.359 0C98.101 0 72.7612 25.6527 72.7612 57.2969C72.7612 88.9411 98.101 114.594 129.359 114.594Z" fill="url(#paint8_linear_9_365)"/>
<path d="M305.584 183.035C336.842 183.035 362.181 157.382 362.181 125.738C362.181 94.0941 336.842 68.4414 305.584 68.4414C274.325 68.4414 248.986 94.0941 248.986 125.738C248.986 157.382 274.325 183.035 305.584 183.035Z" fill="url(#paint9_linear_9_365)"/>
<path d="M77.3744 188.625C107.465 188.625 131.858 163.931 131.858 133.469C131.858 103.007 107.465 78.3122 77.3744 78.3122C47.284 78.3122 22.8909 103.007 22.8909 133.469C22.8909 163.931 47.284 188.625 77.3744 188.625Z" fill="url(#paint10_linear_9_365)"/>
<path d="M214.335 214.77C268.986 214.77 313.289 169.92 313.289 114.594C313.289 59.2677 268.986 14.4171 214.335 14.4171C159.684 14.4171 115.38 59.2677 115.38 114.594C115.38 169.92 159.684 214.77 214.335 214.77Z" fill="url(#paint11_linear_9_365)"/>
<path d="M147.759 195.471L114.611 161.914C113.668 160.958 112.165 160.958 111.221 161.914L78.0735 195.471C76.5707 196.992 77.6366 199.61 79.7684 199.61H83.9447C88.0161 199.61 91.3186 202.954 91.3186 207.075V263.099C91.3186 264.443 92.3846 265.522 93.7126 265.522H132.12C133.448 265.522 134.514 264.443 134.514 263.099V207.075C134.514 202.954 137.817 199.61 141.888 199.61H146.064C148.196 199.61 149.262 197.01 147.759 195.471Z" fill="url(#paint12_linear_9_365)"/>
<path d="M287.725 222.041C287.725 226.251 284.283 229.683 280.037 229.683C275.79 229.683 272.348 226.269 272.348 222.041C272.348 217.831 275.79 214.399 280.037 214.399C284.283 214.417 287.725 217.831 287.725 222.041Z" stroke="#0C205D" stroke-width="2" stroke-miterlimit="10" stroke-linecap="round" stroke-linejoin="round"/>
<path d="M388.864 157.969C388.899 157.933 388.951 157.88 388.986 157.845C390.734 156.058 393.512 156.058 395.259 157.845C395.294 157.88 395.347 157.933 395.382 157.969C397.199 159.773 397.199 162.639 395.382 164.443C395.347 164.479 395.294 164.532 395.259 164.567C393.512 166.354 390.734 166.354 388.986 164.567C388.951 164.532 388.899 164.479 388.864 164.443C387.047 162.639 387.047 159.791 388.864 157.969Z" stroke="#0C205D" stroke-width="2" stroke-miterlimit="10" stroke-linecap="round" stroke-linejoin="round"/>
<path d="M332.843 47.373C338.994 47.373 343.991 42.4199 343.991 36.2992C343.991 42.4022 348.989 47.373 355.139 47.373C348.989 47.373 343.991 52.3261 343.991 58.4467C343.991 52.3261 338.994 47.373 332.843 47.373Z" stroke="#0C205D" stroke-width="2" stroke-miterlimit="10" stroke-linecap="round" stroke-linejoin="round"/>
<path d="M39.6484 57.2792C42.8636 57.2792 45.4497 54.6965 45.4497 51.5124C45.4497 54.6965 48.0533 57.2792 51.2511 57.2792C48.0359 57.2792 45.4497 59.8619 45.4497 63.046C45.4672 59.8619 42.8636 57.2792 39.6484 57.2792Z" stroke="#0C205D" stroke-width="2" stroke-miterlimit="10" stroke-linecap="round" stroke-linejoin="round"/>
<path d="M233.504 68.0876H112.917V153.263H233.504V68.0876Z" fill="url(#paint13_linear_9_365)"/>
<path d="M227.947 74.4382H118.491V146.913H227.947V74.4382Z" fill="#7367F0"/>
<path d="M227.947 83.8491C204.305 85.1581 178.985 126.057 162.962 126.057C151.709 126.057 133.99 96.8333 118.491 93.9853V146.948H227.947V83.8491Z" fill="#7367F0"/>
<path d="M171.576 97.081C171.576 101.893 167.714 105.802 162.962 105.802C158.209 105.802 154.347 101.893 154.347 97.081C154.347 92.2694 158.209 88.36 162.962 88.36C167.714 88.3423 171.576 92.2517 171.576 97.081Z" fill="#FCBC39"/>
<path d="M211.696 384.521C207.013 365.38 208.341 341.517 208.743 325.862C209.442 298.283 203.956 273.199 203.956 273.199L152.74 276.897C148.493 303.573 145.593 299.875 145.767 324.464C145.942 349.053 148.895 364.16 147.148 377.675C145.418 391.207 150.451 425.631 148.022 437.572H159.292C159.292 437.572 164.674 419.298 164.499 407.889C164.325 396.479 162.595 390.146 163.801 377.144C165.024 364.142 177.605 318.839 177.605 318.839C177.605 318.839 186.185 371.006 188.613 376.967C191.042 382.946 193.646 386.979 195.026 392.074C196.407 397.169 201.3 429.169 201.824 437.254H211.906C211.924 437.254 216.379 403.661 211.696 384.521Z" fill="#7367F0"/>
<path d="M138.463 440.579C136.733 441.11 135.877 443.463 135.877 445.125H159.292C159.292 445.125 161.197 442.49 159.292 437.572H148.022C148.022 437.572 140.193 440.048 138.463 440.579Z" fill="#0C205D"/>
<path d="M221.849 441.145C220.853 440.632 211.906 437.254 211.906 437.254H201.824C201.824 437.254 199.01 439.146 200.059 445.125H224.522C224.54 445.108 224.103 442.313 221.849 441.145Z" fill="#0C205D"/>
<path d="M167.627 179.674V193.843H184.996V177.427L167.627 179.674Z" fill="#FFB7A4"/>
<path d="M167.627 179.674V187.404C171.664 187.298 182.602 187.688 182.602 193.844H184.996V177.41L167.627 179.674Z" fill="#E08D7E"/>
<path d="M165.373 172.138C162.577 170.776 164.779 182.787 167.627 179.674L165.373 172.138Z" fill="#E08D7E"/>
<path d="M169.549 158.429C166.509 158.535 164.866 162.869 164.866 167.044C164.866 173.89 168.414 186.308 174.704 186.308C176.242 186.308 181.903 186.325 183.301 186.325C187.81 186.325 193.087 178.524 193.087 168.494C193.087 158.234 187.705 153.246 178.164 153.246C174.46 153.281 171.07 154.732 169.549 158.429Z" fill="#0C205D"/>
<path d="M131.264 169.644C128.556 163.983 121.636 141.783 120.116 134.548C120.116 134.548 121.391 126.004 120.727 125.331C120.063 124.659 115.206 116.257 113.546 116.876C111.886 117.495 112.287 118.769 112.287 118.769C112.287 118.769 109.16 118.344 108.321 120.661C107.482 122.979 107.517 129.453 108.321 131.222C109.876 134.654 109.719 136.387 112.043 136.9C112.148 136.918 114.524 161.065 117.128 174.261C120.518 183.778 125.603 196.798 129.587 202.565C130.46 193.861 135.86 184.468 139.075 179.55C135.388 175.906 132.435 172.085 131.264 169.644Z" fill="#FFB7A4"/>
<path d="M155.221 189.863C150.118 189.05 143.95 184.433 139.057 179.568C135.842 184.486 130.425 193.879 129.569 202.582C137.607 214.222 145.296 219.564 146.501 224.146L155.221 189.863Z" fill="#BB8036"/>
<path d="M148.301 217.07C141.766 212.86 129.569 202.6 129.569 202.6C137.607 214.24 145.296 219.582 146.501 224.164L148.301 217.07Z" fill="#9F6013"/>
<path d="M212.081 176.136C209.652 179.922 207.468 183.619 206.611 184.893C205.266 186.909 202.26 187.157 199.43 187.758L208.726 222.023C209.023 214.735 212.43 213.391 217.655 201.839C219.979 196.709 221.552 192.941 223.072 189.368C221.482 181.974 217.148 177.162 212.081 176.136Z" fill="#BB8036"/>
<path d="M205.598 210.525L208.726 222.041C209.023 214.753 212.43 213.408 217.655 201.857C219.979 196.727 221.552 192.959 223.072 189.386C219.193 198.036 213.426 204.298 205.598 210.525Z" fill="#9F6013"/>
<path d="M238.152 125.402C236.806 123.616 235.269 121.829 234.797 120.219C234.325 118.609 233.556 118.309 233.556 118.309L231.32 121.227C231.32 121.227 231.372 119.795 230.498 118.786C229.607 117.778 228.437 118.362 228.314 120.396C228.192 122.413 226.025 124.323 225.204 126.18C224.383 128.02 227.388 137.431 227.021 138.811C226.672 140.173 220.189 164.903 216.432 169.821C215.034 171.643 213.514 173.907 212.063 176.154C217.131 177.18 221.464 181.991 223.072 189.403C224.977 184.946 226.829 180.789 230.009 174.633C233.329 155.988 235.968 136.37 235.968 136.37C239.672 130.939 239.497 127.189 238.152 125.402Z" fill="#FFB7A4"/>
<path d="M188.177 371.413C187.215 361.648 179.527 314.593 179.807 312.453C180.086 310.312 177.622 318.821 177.622 318.821C177.622 318.821 186.202 370.988 188.631 376.949C191.06 382.929 193.663 386.962 195.044 392.056C196.424 397.151 201.317 429.152 201.841 437.236C200.845 424.765 201.09 408.313 198.014 395.028C194.921 381.761 189.138 381.177 188.177 371.413Z" fill="#0C205D"/>
<path d="M150.45 289.315C150.608 267.716 146.554 240.014 146.501 224.305C146.449 211.745 155.238 189.863 155.238 189.863C163.538 191.19 165.321 193.844 171 193.844C176.679 193.844 181.938 193.844 184.996 193.844C188.054 193.844 192.44 189.598 199.43 187.776C199.43 187.776 208.481 211.056 208.726 222.041C208.988 233.026 204.48 269.095 206.437 287.917C206.437 287.935 150.38 299.575 150.45 289.315Z" fill="#BB8036"/>
<path d="M190.57 194.976C192.65 192.623 194.153 189.74 196.302 188.802C191.095 190.854 187.565 193.844 184.996 193.844C184.315 193.844 183.493 193.844 182.602 193.844C182.602 196.302 184.629 197.806 186.691 197.523C188.142 197.328 189.627 196.055 190.57 194.976Z" fill="#9F6013"/>
<path d="M167.784 195.63C170.475 196.072 171.629 194.056 173.236 193.861C172.485 193.861 171.734 193.861 170.982 193.861C166.544 193.861 164.464 192.251 159.816 190.907C163.171 191.703 165.111 195.188 167.784 195.63Z" fill="#9F6013"/>
<path d="M159.536 190.801C159.292 190.748 159.327 190.765 159.798 190.872C159.711 190.854 159.624 190.836 159.536 190.801Z" fill="#86C4AE"/>
<path d="M223.351 112.63C242.073 112.63 257.25 97.2656 257.25 78.3123C257.25 59.359 242.073 43.9943 223.351 43.9943C204.629 43.9943 189.452 59.359 189.452 78.3123C189.452 97.2656 204.629 112.63 223.351 112.63Z" fill="url(#paint14_linear_9_365)"/>
<path d="M144.09 121.298C172.925 121.298 196.302 97.6334 196.302 68.4414C196.302 39.2494 172.925 15.5846 144.09 15.5846C115.254 15.5846 91.8777 39.2494 91.8777 68.4414C91.8777 97.6334 115.254 121.298 144.09 121.298Z" fill="url(#paint15_linear_9_365)"/>
<path d="M374.623 226.729C375.357 226.233 376.073 225.72 376.772 225.207" stroke="#0C205D" stroke-width="0.5" stroke-miterlimit="10"/>
<path d="M380.896 222.006C404.416 202.476 417.102 170.299 413.939 139.536C413.066 131.027 410.986 122.395 406.111 115.408C401.236 108.402 393.18 103.272 384.74 103.679C376.301 104.086 368.14 111.109 367.931 119.653C367.721 128.197 377.244 135.928 385.037 132.602C388.183 131.257 390.542 128.569 392.604 125.827C415.722 95.0821 409.553 45.9755 379.568 22.0591C350.963 -0.742935 305.392 3.1488 280.334 29.5772" stroke="#0C205D" stroke-width="0.5" stroke-miterlimit="10" stroke-dasharray="2.98 2.98"/>
<path d="M278.569 31.5584C277.992 32.2129 277.433 32.8852 276.874 33.575" stroke="#0C205D" stroke-width="0.5" stroke-miterlimit="10"/>
<path d="M60.9665 121.015C60.1802 121.387 59.3939 121.776 58.5901 122.147" stroke="#0C205D" stroke-width="0.5" stroke-miterlimit="10"/>
<path d="M53.8371 124.447C41.6753 130.426 29.7756 137.042 20.0077 146.134C8.33516 156.996 -0.0348268 172.103 1.22329 187.511C2.49889 202.918 15.482 217.618 31.6803 218.114C37.6913 218.291 45.2225 214.611 44.244 208.951C43.6499 205.483 39.8056 203.201 36.1186 203.148C32.4316 203.095 28.9194 204.74 25.7741 206.598C10.3971 215.708 -0.995902 232.619 1.29318 249.637C3.35509 264.974 19.0816 278.029 34.7207 276.49" stroke="#0C205D" stroke-width="0.5" stroke-miterlimit="10" stroke-dasharray="3.01 3.01"/>
<path d="M37.3242 276.101C38.1804 275.924 39.0192 275.711 39.858 275.428" stroke="#0C205D" stroke-width="0.5" stroke-miterlimit="10"/>
<defs>
<linearGradient id="paint0_linear_9_365" x1="106.574" y1="404.256" x2="106.574" y2="218.113" gradientUnits="userSpaceOnUse">
<stop stop-color="#F9FBFC"/>
<stop offset="1" stop-color="#A5E0CC"/>
</linearGradient>
<linearGradient id="paint1_linear_9_365" x1="47.1215" y1="422.916" x2="47.1215" y2="236.774" gradientUnits="userSpaceOnUse">
<stop stop-color="#F9FBFC"/>
<stop offset="1" stop-color="#A5E0CC"/>
</linearGradient>
<linearGradient id="paint2_linear_9_365" x1="359.838" y1="404.256" x2="359.838" y2="218.113" gradientUnits="userSpaceOnUse">
<stop stop-color="#F9FBFC"/>
<stop offset="1" stop-color="#A5E0CC"/>
</linearGradient>
<linearGradient id="paint3_linear_9_365" x1="82.6457" y1="424.347" x2="78.1126" y2="346.326" gradientUnits="userSpaceOnUse">
<stop stop-color="#F9FBFC"/>
<stop offset="1" stop-color="#59773B"/>
</linearGradient>
<linearGradient id="paint4_linear_9_365" x1="88.9834" y1="423.979" x2="84.4504" y2="345.958" gradientUnits="userSpaceOnUse">
<stop stop-color="#F9FBFC"/>
<stop offset="1" stop-color="#59773B"/>
</linearGradient>
<linearGradient id="paint5_linear_9_365" x1="262.344" y1="248.254" x2="262.344" y2="316.896" gradientUnits="userSpaceOnUse">
<stop stop-color="#3346AC"/>
<stop offset="1" stop-color="#0C205D"/>
</linearGradient>
<linearGradient id="paint6_linear_9_365" x1="288.082" y1="333.794" x2="288.082" y2="421.752" gradientUnits="userSpaceOnUse">
<stop stop-color="#7367F0"/>
<stop offset="1" stop-color="#3066E4"/>
</linearGradient>
<linearGradient id="paint7_linear_9_365" x1="247.017" y1="331.057" x2="256.606" y2="627.834" gradientUnits="userSpaceOnUse">
<stop stop-color="#F9FBFC"/>
<stop offset="1" stop-color="#77A0FA"/>
</linearGradient>
<linearGradient id="paint8_linear_9_365" x1="126.59" y1="-30.4139" x2="137.883" y2="319.1" gradientUnits="userSpaceOnUse">
<stop stop-color="#F9FBFC"/>
<stop offset="1" stop-color="#77A0FA"/>
</linearGradient>
<linearGradient id="paint9_linear_9_365" x1="302.322" y1="22.1562" x2="313.614" y2="371.671" gradientUnits="userSpaceOnUse">
<stop stop-color="#F9FBFC"/>
<stop offset="1" stop-color="#77A0FA"/>
</linearGradient>
<linearGradient id="paint10_linear_9_365" x1="74.9429" y1="56.2642" x2="85.8133" y2="392.705" gradientUnits="userSpaceOnUse">
<stop stop-color="#F9FBFC"/>
<stop offset="1" stop-color="#77A0FA"/>
</linearGradient>
<linearGradient id="paint11_linear_9_365" x1="214.338" y1="-16.298" x2="214.338" y2="575.983" gradientUnits="userSpaceOnUse">
<stop stop-color="#F9FBFC"/>
<stop offset="1" stop-color="#77A0FA"/>
</linearGradient>
<linearGradient id="paint12_linear_9_365" x1="112.922" y1="163.853" x2="112.922" y2="257.867" gradientUnits="userSpaceOnUse">
<stop stop-color="#7367F0"/>
<stop offset="1" stop-color="#8478FF"/>
</linearGradient>
<linearGradient id="paint13_linear_9_365" x1="171.413" y1="53.4602" x2="180.187" y2="325.015" gradientUnits="userSpaceOnUse">
<stop stop-color="#F9FBFC"/>
<stop offset="1" stop-color="#77A0FA"/>
</linearGradient>
<linearGradient id="paint14_linear_9_365" x1="223.349" y1="-16.2978" x2="223.349" y2="575.982" gradientUnits="userSpaceOnUse">
<stop stop-color="#F9FBFC"/>
<stop offset="1" stop-color="#77A0FA"/>
</linearGradient>
<linearGradient id="paint15_linear_9_365" x1="144.087" y1="-16.2978" x2="144.087" y2="575.983" gradientUnits="userSpaceOnUse">
<stop stop-color="#F9FBFC"/>
<stop offset="1" stop-color="#77A0FA"/>
</linearGradient>
</defs>
</svg>
